<?xml version="1.0" encoding="UTF-8"?>
<svg id="Layer_2" data-name="Layer 2" xmlns="http://www.w3.org/2000/svg" viewBox="0 0 287.02 285.86">
  <defs>
    <style>
      .cls-1 {
        fill: #ffd00d;
      }

      .cls-2 {
        fill: #c7b299;
      }
    </style>
  </defs>
  <g id="Layer_1-2" data-name="Layer 1">
    <g>
      <path class="cls-1" d="M171.95,130.29c22.11,10.61,29.31,43.56,19.48,65.79-3,6.78-7.82,13.89-13.61,18.82-27.15,23.11-65.22,24.68-98.32,14.28l.18-8.91c21.51,7.12,42.79,8.92,64.21,3.22,18.9-5.03,35.35-17.13,41.43-35.92,4.21-13.01,2.87-27.16-5.44-38.04,3.54,31.71-24.36,46.61-51.96,46.94-36.65.44-60.4-27.99-63.95-63.26-1.1-10.93.93-22.45,4.28-33.17,1.21-3.88,4.01-7.55,5.42-11.27,2.22-5.88,5.97-10.91,10.27-15.8,36.01-40.88,87.77-47.34,138.49-33.51-9.42-8.94-32.01-17.71-43.94-21.34-24.32-7.4-59.08-5.61-82.96,4.42-32.72,13.73-53.04,31.99-69.51,63.61-7.95,15.26-10.98,31.43-12.33,48.34-.43,5.34.24,23.95,1.39,26.22,7.7,15.26,17.3,25.55,29.11,38.51l-8.62.61c-1.69.12-4.49-1.24-6.22-2.35l-.87,1.63c-.77,1.43-10.18-.19-13.63,1.75-.07-2.01-1.17-3.42-2.88-5.11l-1.97-8.54-4.02-6.97,2.48.29c.33.04.84-.78.55-.93-6.18-3.11-5.46-9.92-6.82-19.02l-1.13-7.54c-.93-6.22-1.4-11.52-.72-17.94.24-2.31-.36-6.07.09-8.67,4.95-28.66,3.67-27.59,17.13-54.01,5.02-9.86,11.09-19.01,18.27-27.39,2.77-3.24,5.38-6.68,8.54-9.23l12.99-10.48c5.85-4.72,12.87-7.68,19.69-11.12,5.08-2.56,9.67-4.74,15.06-6.46C127.8-3.7,142.97-.67,178.59,5.35c5.64.95,10.52,3.05,15.78,5.08,6.56,2.54,11.75,6.12,18.12,9.34l7.66,3.87,8.67,6.55c11.17,8.43,22.54,17.46,29.35,30.11,1.3,2.41,1.3,3.71,3.52,5.13,3.99,2.56,4.74,9.29,7.62,13.02,2.01,2.61,3.23,4.91,4.59,7.56,1.96,3.78,5.68,6.84,4.02,11.83l4.19,7.4c-.81,11.99,1.58,3.24,3.32,19.31.38,3.52,1.81,7.78.9,11.05-1.13,4.06-.25,6.39.31,10.31.83,5.76.16,12.73-.59,18.67l-1.88,14.85c-.44,3.49-.2,6.69-2.2,9.91-3.2,5.13-4.13,20.26-17.7,38.28-2.26,3-6.47,7.26-7.15,10.32-.08.37-1.44.52-1.81.6-.49.11-.2,1.85-.5,2.25l-4.32,5.8c-6.24-.95-6.55,6.26-9.5,8.38l-11.72,8.39c-11.23,8.04-11.9,8-21.65,9.75l-5.68,1.02c.81,1.63,1.1,2.21,1.06,2.12-3.61.4-4.66.53-6.99,1.58-13.05,5.89-26.96,7.48-41.15,7.96-17.67.6-34.08-2.08-50.52-8.23-4.6-1.72-8.86-3.28-13.09-5.58-1.88-1.03-6.08-.94-6.6-3.58l5.58,2.03c1.27.46,3.63-1.48,4.57-2.4l-3.16-.9c-2.55-.72,1.79-4.99-5.27-8.46,2.59-1.44,5.38-.58,8.11.92l3.47,1.91c.72.4.13,2.15-.12,4.21l9.27,2.07-2.04-4.32c10.72,3.62,20.86,7.19,31.97,7.15,4.29-.02,9.62,1.51,13.75.9,8.02-1.18,15.7-2.55,23.28-5.12,18.23-6.2,33.71-18.98,44.03-35.25,9.53-15.02,13-33.1,10.33-50.35-3.14-20.27-18.89-42.72-36.63-52.86-14.6-8.35-31.51-10-47.1-3.29-1.58.68-3.47,3.01-4.02,4.64,10.44-3.17,20.54-4.13,31.3,1.03ZM114.79,105.24c26.77-29.08,68.01-33.64,102.74-18.51,19.95,8.69,35.35,24.09,46.78,42.72,4.91,8.02,6.9,17.08,10.45,25.91,2.17-20.43-1.42-40.33-9.32-58.56-6.25-14.42-12.97-27.05-23.54-39.13-31.88-17.62-69.83-22.18-104.88-10.66-14.23,4.67-26.68,12.87-37.99,22.06-6.52,5.31-10.72,11.18-15.3,18.04-18.67,27.97-15.73,65.58,9.37,88.71,10.38,9.56,24.84,12.94,38.62,12.49,6.27-.2,12.08-.49,17.64-5.03-13.77-.15-26.01-4.24-35.11-14.88-4.5-5.26-8.78-11.85-10.57-18.6-4.27-16.09-.37-32.12,11.09-44.56ZM199.62,262.02c10.11-1.99,23.53-12.56,31.59-18.53,5.25-3.89,10.39-8.34,13.56-13.59,3.46,1.33,18.31-25.83,19.94-29.16,1.12-2.28.68-7.8,1.98-9.77,2.64-4.03,3.59-6.84,3.24-11.43-2.48-32.38-13.4-57.4-40.53-76.3-25.23-17.57-57.7-21.73-85.59-8.49-20.55,9.75-37.72,31.71-25.78,53.94,1.34-11.01,5.38-18.94,13.41-25.01,6.5-4.91,13.19-9.01,21.41-10.5,15.79-2.86,30.88,0,44.74,8.57,42.65,26.36,53.79,85.46,19.86,123.78-5.64,6.36-10.56,11.63-17.83,16.49Z"/>
      <g>
        <path class="cls-2" d="M66.31,268.96l-41.4.13c-5.62.02-10.29-2.14-12.62-7.39l.1-47.62c0-4.37,5.15-8.53,9.46-8.54l45.51-.07c4.05,0,9.31,3.58,9.33,7.44l.27,44.28c.03,5.42-3.51,11.75-10.66,11.77ZM19.9,236.53l-.57-21.52c1.65-2.76,5.72-3.96,9.51-4.54-3.63-1.21-9.41.13-12.1,3.64l-.1,40c0,2.7.49,5.05,2.14,7.19,1.19-8.48,1.35-16,1.12-24.78ZM63.79,263.82c1.37.11,4.19-.01,5.79-.43,1.4-.37,2.21-3.56,2.23-5.26l.5-42.19c.02-1.9-.98-5.2-2.49-5.69-1.35-.44-4.17-.59-5.94-.55l-32.13.71c9.39,2.18,27.72-1.59,36.83,2.59l.93,14.06.36,33.74-6.08,3.02ZM38.41,219.1l-3.27,6.43c-.39.77-2.08,1.85-2.83,2.27-.6.34-2.83-1.52-2.56-2.16.99-2.33,4.11-6.51,6.12-8.84.86-1-2.52-4.53-3.36-3.52-2.21,2.64-11.97,15.35-6.99,16.71l4.05,1.1c3.46.94,5.33.19,8.23-2,2.04-1.54,4.08-2.94,4.39-4.57.44-2.33.18-7.24-3.76-5.41ZM28.69,256.6c3.5-2.69,8.65-4.47,13.35-3.48l-.85,3.12c-.16.58.82,1.97,1.41,1.84,13.36-2.93,5.46-30.28,12.14-24.66l1.08,21.45c.03.68,1.33,2.28,1.78,1.97l1.33-.9c1.4,2.02,4.1,2.96,5.63,1.5,4.07-3.88-3.89-8.18-5.38-20.43-.15-1.26.24-3.33.85-4.03.49-.56,2.97-1.34,3.03-2.08.15-1.94-3.62-5.48-5.21-5.64-1.24,2.76-4.69,4.86-6.46,3.2-1.39-1.3-1.18-6.26-.03-7.32l13.05-1.53c-1.78-3.27-5.87-6.01-8.07-5.16l-10.29,4c-1.17,13.5,3.36,22.93-2.74,33.61-1.03-4.12-3.05-7.28-6.45-8.91,3.38-.09,6.64-.1,6.76-3.82-3.71-.28-5.57-.13-9.85-1.07l9.79-3.26c-6.7-2.88-12.93-2.24-19.63.77,2.91,3.77,1.99.16,8.38,1.38.73.14.8,3.01.08,3.21s-2.27.39-3.02.13l-4.78-1.66-.32,16.85c-.02.89,1.84,2.88,2.54,3.18s1.13-.96,1.89-2.26ZM33.84,263.03v1h28.5v-1h-28.5Z"/>
        <path class="cls-2" d="M36.27,249.17l-7.09,2.42-.07-8.3c3.63,2.6,3.75,2.73,7.16,5.88Z"/>
      </g>
    </g>
  </g>
</svg>