<?xml version="1.0" encoding="UTF-8"?>
<svg id="Layer_2" data-name="Layer 2" xmlns="http://www.w3.org/2000/svg" viewBox="0 0 293.21 292.99">
  <defs>
    <style>
      .cls-1 {
        fill: #e233b5;
      }

      .cls-2 {
        fill: #c7b299;
      }
    </style>
  </defs>
  <g id="Layer_1-2" data-name="Layer 1">
    <g>
      <g>
        <path class="cls-2" d="M73.11,290.92c-2.81,1.13-7.25,2.1-10.2,2.07l-40.41-.38c-4.91-.05-6.24-4.35-6.38-8.31l-.54-15.34.35-36.71c.08-8.52.74-16.58.13-25.05-.26-3.64,2.1-6.45,5.82-6.42l36.65.28,12.54.07c1.85.01,3.71,3.25,3.73,5.02l.41,31.08-.2,45.63c0,2.15,1.07,6.87-1.91,8.07ZM23.11,207.64l14.78-2.06-11.25-.84c-1.89-.14-6.35,1.63-6.47,3.54-.51,8.21-.72,15.01.94,23.86,2.3-7.94,2.43-14.69,2-24.5ZM70.5,231.26l.78-21.2c.11-2.91-2.29-5.46-5.31-5.26l-12.21.79,13.81,1.85c2.67,8.78-.51,19.66,2.92,23.83ZM38.48,239.65c.37,1.74,2.85,4.57,4.63,4.6,1.53.03,4.8-2.53,4.88-4.06l.61-11.53,15,.99c.65-10.09-14.85-1.45-15.77-6.1,1.7-7.15,12.63,2.36,13.42-2.73.14-.88-.1-3.02-.56-3.79s-2.25-.83-3.6-.71l-8.08.77c-.64.06-1.05-2.63-.44-2.8.46-.13,1.71-.49,2.22-.52l13.08-.72c-3.37-6.95-10.76,1.3-16.64-4.81-.57-.59-3.43-1.66-3.72-.9l-1.42,3.66-12.46.25c-1.41.03-2.99,1.48-2.81,3.27l14.09-.15c.68,0,1.73.74,1.82,1.29.06.37-.36,2-.73,1.97l-7.43-.56c-1.01-.08-3.42.7-3.71,1.65s.09,3.19.78,3.91c1.93,2.04,4.64-2.28,10.5-1.23.76.14.95,3.64.19,3.76l-3.36.51c-3.92.59-7.81-1.32-10.76,3.24l13.32-.07,1.13,8.92-4.14,1.89ZM41.65,231.05l-15.81-.95c.08,1.65.32,3.39,1.09,3.68.57.22,2.13.34,2.75.19l11.97-2.92ZM45.83,282.29c2.86-.06,5.74-.56,8.17.67,3.36,1.7,6.92.56,7.84-3.17,1.02-4.15,2.65-10.21,1.83-14.14-1.46-6.98-16.48-1.5-16.42-5.2,4.18-4.05,8.42-.21,11.43-5.5l-11.03-.43.23-2.76c.04-.48,1.85-1.01,2.45-1.03l18.39-.6c-.86-5.8-5.47-3.79-9.19-3.37-10.82,1.23-21.66,1.44-32.69,1.6-.8.01-2.74,1.62-2.19,2.19.41.43,2.01,1.68,2.71,1.64l14.28-.64.13,3.74c-3.54.53-6.51.96-10.45,2.09,2.59,1.56,6.98,1.88,9.27,1.98.52.03,1.7,1.76,1.3,2.12s-1.6,1.03-2.31,1.08l-11.62.73c0,7.9.73,14.14,3.14,20.62,5.83-3.01,9.76-1.51,14.71-1.61ZM22.4,282.94c.36-6.77,1.27-11.49-2.24-17.18l-.54,16.32,2.78.86ZM60.81,287.77c2.59,1.85,6.15,1.75,8.09-.07,2.69-2.52,3.87-15.6,1.39-15.66l-.96,10.18c-.36,3.8-5.51,4.67-8.52,5.55Z"/>
        <path class="cls-2" d="M48.75,277.3c-.69-.26-.87-3.74-.14-3.88l3.29-.6,2.42-.45c.44-.08.99-1.41.57-1.56-.64-.23-2.18-.68-2.91-.79l-3.88-.56c-.79-.11.04-3.11.8-3.37,1.83-.62,5.32-.42,7.73-.03l-1.67,11.42c-1.76.27-4.85.32-6.21-.2Z"/>
        <path class="cls-2" d="M41.56,273.99c.72.09,1.19,3.17.49,3.33l-4.18.93c-1.07.24-2.94.43-3.36-.26s-.3-3.55.49-3.73c1.45-.33,4.98-.46,6.56-.27Z"/>
        <rect class="cls-2" x="33.85" y="266.6" width="8.31" height="3.67" transform="translate(-16.8 2.92) rotate(-3.6)"/>
      </g>
      <g>
        <path class="cls-1" d="M207.22,260.82c1.3-.49,2.21-3.62,3.48-4.35,5.8-3.31,11.45-5.99,16.6-9.7l10.52-7.58c13.53-9.75,26.46-30.22,32.07-45.96,4.02-11.26,6.97-21.13,8.22-32.88l1.32-12.45c.54-5.12.2-11.71.21-16.93.02-6.78-8.45-32.46-11.88-40.72-1.25-3-4.22-5.52-4.75-9.06s-3.11-5.55-4.96-8.05c-16.32-22.09-39.14-40.06-64.57-50.88-31.55-13.43-66.94-12.48-98.48.9-2.66,1.13-4.61,2.67-6.88,4.13-20.34,13.02-49.59,34.46-58.91,57.29-1.48,3.63-2.57,6.93-4.55,10.41-1.15,2.01-2.82,5.37-3.37,7.44l-2.83,10.6c-3.66,13.71-1.33,21.22-4.09,29.16-.83,2.39-.12,5.55.4,7.66-1.77,4.58-.31,10.89,1.29,15.95l3.55,11.24,2.28,9.47-5.96,8.15,4.65,2.38-6.1,3.55-4.2-8.61c-1.82-3.72-3.21-9.11-4.52-13.02l2.89-2.54c.73-.64-.6-3.32-1.2-4.15-8.99-12.64-4.68-6.86-6.17-14.61-1.32-6.84-1.61-12.61-.75-19.59l3.11-25.34c1.2-9.77,5.95-18.08,9.81-26.96,3.64-8.37,7.23-16.03,12.65-23.34,8.38-11.29,16.8-22.11,28.02-30.8,2.48-1.93,5-4.85,7.57-6.48,9.96-6.29,20.34-11.33,31.38-15.46l7.28-2.72c5.72-2.14,25.42-5.39,32.65-6l7.95-.67c10.66-.9,21.29.42,31.9,2.16l11.77,1.93c21.77,3.56,47.43,21.74,63.6,37.45,1.65,1.61,5.83,3.05,6.03,5.39.38,4.48,2.58,6.27,6.15,7.76l-.57,3.47c-.1.63,2.55.31,3.13.69,2.14,1.39,3.99,5.73,5.68,8.16l6.64,9.49c2.3,3.29,4.19,6.1,5.53,9.61l2.72,7.15c2.78,7.31,4.7,14.59,6.66,22.27,2.75,10.76,3.58,17.38,2.77,28.45l-.74,10.06c-.64,8.62-1.92,17.74-4.13,25.93-.23.84-.16,3.3-.53,4.02-1.06,2.06-4.41,6.06-4.08,8.34.26,1.82,1.13,5.19.31,6.68l-7.16,12.91c-5.54,10-10.77,21.37-20.24,26.27-5,2.58-5.41,8.76-9.07,12.31-12.16,11.81-26.85,21.23-42.82,26.61l-6.24,2.1c-3.09,1.04-6.81,1.55-9.75,2.45-13.06,4.04-20.59,5.64-34.68,4.95-18.37-.89-9.16,1.35-28.56-1.8l-10.54-1.72c-6.54-1.06-26.58-9.2-33.67-12.56l-2.98-1.41c-.67-.32.81-2.87.85-3.68l.61-13.93,19.72,9.44c10.31,4.93,15.76,5.73,27.24,7.91l10.08,1.91c2.11.4,3.56.73,5.78.15,2.01-.52,6.2,2.73,8.35,2.51l18.04-1.91c1.85-.2,3.4-.76,5.16-1.22,9.54-2.51,14.31-2.18,20.4-5.69,2.76-1.59,9.9-2.92,12.98-4.08Z"/>
        <path class="cls-1" d="M127.87,141.43c4.93-2.45,19.04-7.87,22.36-6.23,6.09,3.02-13.89,5.42-19.92,18.73-5.96,13.14,32.76,13.39,57.69-1.24,5.76-3.38,14.76-11.29,12.58-18.25-.83-2.64-3.37-5.64-6.32-7-26.05-12.04-64.46,1.02-87.75,15.26-8.36,5.11-15.56,11.45-20.6,19.58-5.44,8.78-3.93,20.59,4.57,26.43,17.54,12.05,50.84,8.89,71.31,6.87.47.13,1.11,2.31.77,2.94-.43.79-1.9,1.84-3.05,2.18-13.89,4.14-28.07,4.91-42.35,3.22-8.24-.98-16.33-1.73-23.83-5.28s-14.64-9.16-16.7-17.89c-2-8.49.41-17.95,5.99-25.11,17.35-22.25,47.45-35.3,75.42-38.92,7.72-1,15.38-1.71,22.93-.48s14.98,2.81,21.29,7.48c6.64,4.92,8.71,12.86,5.11,20.6-10.12,21.72-54.78,32.94-77.09,24.29-8.28-3.21-9.19-10.7-6.71-19.15-7.76,2.7-13.76,9.25-14.49,16.95-.55,5.85,5.52,11.19,11.38,12.5,23.55,5.24,47.55.75,69.34-9.39,6.92-3.22,12.9-6.73,18.83-11.45,2.08-1.66,4.53-2.31,6.8-.65-6.92,10.82-32.25,21.01-43.8,24.02-19.64,5.12-41.21,7.86-59.27-.6-8.58-4.02-10.61-13.75-5.91-21.09,5.29-8.26,12.67-13.98,21.4-18.32Z"/>
        <path class="cls-1" d="M77.17,139.89c-15.61,11.96-32.18,35.12-21.57,55.29-8.6-.35-7.6-9.95-8.95-14.79,1.58-38.75,62.11-69.81,94.09-75.77l12.07-2.25c14.71-2.74,28.7-2.26,43.3.84,13.26,2.81,30.51,8.86,33.36,23.95,1.85,9.8-1.52,19.19-9.21,24.95-1.67-2.19-1.47-4.5-.21-6.67,6.4-11.08,3.05-24.98-8.46-31.01-12.93-6.78-26.98-8.62-41.86-8.07-33.56,1.25-65.51,12.82-92.54,33.53Z"/>
        <path class="cls-1" d="M107.11,88.93c-7.69-1.44-14.72-2.95-19.59-8.34-5.24-5.8-5.96-13.85-4.42-21.32-8.2,1.46-13.89,7.97-15.67,14.42-2.28,8.26.5,15.26,5.53,21.36,1.74,2.11,2.97,2.73,5.53,3.6,10.72,3.64,22.51.95,28.61-9.71Z"/>
        <path class="cls-1" d="M171.69,194.13c3-3.18,8.21-4.09,12.09-5.76,6.65-2.85,12.96-5.48,19.29-8.83,20.1-10.64,50.06-30.72,45.89-57.27-1.9-12.12-11.83-20.02-22.54-24.64-6.77-2.92-14.59-2.04-21.19-6.47,12.63-1.11,24.91,2.8,35.3,8.47,12.79,6.97,18.21,20.56,15.38,34.75-8.71,43.81-88.94,67.92-87.63,62.42.15-.63.55-2.37.54-2.32l1.52,1.49c.23.22.79-1.27,1.34-1.84Z"/>
        <path class="cls-1" d="M198.67,232.51c-2.72-7.59-6.39-11.7-14.37-13.49,10.52-5.81,9.01-1.32,14.07-14.11,1.87,7.43,6.06,12.35,13.99,13.92-7.72,2.08-11.04,6.27-13.69,13.69Z"/>
        <path class="cls-1" d="M92.75,238.89l-4.61-8.02-8.82-4.53c7.87-2.73,10.85-6.43,12.97-13.61,1.46,7.67,5.67,11.07,12.41,13.58-6.82,2.12-10.01,6-11.95,12.57Z"/>
        <path class="cls-1" d="M157.6,59.32c-1.26-2.43-2.53-7.61-4.7-8.82l-8.31-4.67c6.93-1.93,10.37-5.28,12.84-12.4,2.5,6.67,5.47,10.47,13.3,12.65-7.71,2.11-10.95,5.45-13.13,13.24Z"/>
        <path class="cls-1" d="M214.82,69.23c-2.03,1.13-2.96,6.28-4.56,9.41-1.39-7.31-5.2-11.18-12.35-13.36l7.96-4.4c2-1.11,3.1-6.17,4.36-8.64,1.08,2.13,2.5,7.34,4.75,8.67l7.16,4.24-7.32,4.07Z"/>
        <path class="cls-1" d="M57.68,134.54c-2.26-6.39-4.98-9.3-11.64-11.3,7.03-2.37,9.9-6,11.41-12.55,1.95,6.85,5.12,10.18,11.15,12.62-5.88,1.88-8.8,5.03-10.92,11.24Z"/>
        <path class="cls-1" d="M166.67,248.77c-2.1-5.94-4.96-8.96-10.71-10.55,6.02-2.77,9.81-5.84,10.45-12.45,1.99,6.81,4.58,9.9,11.37,12.16-6.69,2.05-9.1,5.18-11.11,10.83Z"/>
        <path class="cls-1" d="M139.27,84.85c-1.64-6.66-4.2-9.97-10.71-11.5,5.98-2.76,8.91-5.29,10.54-11.74,2.27,6.56,4.71,9.52,11.26,11.62-6.87,1.6-9.04,5.36-11.1,11.63Z"/>
        <path class="cls-1" d="M226.05,210.52c-1.93-4.64-4.13-7.65-9.99-9.33,5.75-2.27,8.46-4.66,9.93-10.51,2.05,5.77,4.62,8.6,10.4,10.44-5.17,1.76-7.35,3.72-10.34,9.39Z"/>
        <path class="cls-1" d="M122.02,240.08l-6.79-6.41c1.66-1.16,4.55-3.64,6.54-5.63l6.75,5.79-6.5,6.24Z"/>
        <polygon class="cls-1" points="173.03 89.8 166.96 84.13 172.92 78.44 178.11 83.82 173.03 89.8"/>
        <path class="cls-1" d="M182.08,144.31l-5.57-5.2,4.72-5.01c2.11.44,4.77,2.64,5.45,5.11l-4.59,5.1Z"/>
        <rect class="cls-1" x="249.26" y="174.83" width="7.73" height="7.98" transform="translate(-53.99 220.4) rotate(-42.95)"/>
        <circle class="cls-1" cx="143.4" cy="254.4" r="3.22"/>
      </g>
    </g>
  </g>
</svg>