<?xml version="1.0" encoding="UTF-8"?>
<svg id="Layer_2" data-name="Layer 2" xmlns="http://www.w3.org/2000/svg" viewBox="0 0 293.04 284.34">
  <defs>
    <style>
      .cls-1 {
        fill: #f4455f;
      }

      .cls-2 {
        fill: #c7b299;
      }
    </style>
  </defs>
  <g id="Layer_1-2" data-name="Layer 1">
    <g>
      <path class="cls-1" d="M255.83,173.65c4.85,14.55,3.63,27.64,1.6,43.33,3.11-2.13,12.07-20.26,13.64-24.72l2.08-5.92c1.3-3.72,3.42-8.01,5.34-11.37-.9-6.84-.11-12.74,1.83-19.42,1.26-4.33.25-9.88.31-14.23.09-6.25-2.9-4.67-3.74-14.23l3.1,1.78c-.67-3.42-1.32-5.75-2.34-8.7-3.42-9.95-5.12-20.26-9.7-29.82-2.4-5.02-5.21-10.82-8.52-15.17l-16.05-21.13c-6.63-8.72-16.45-14.48-25.66-20.47-11.1-7.21-23.67-12.62-36.5-14.94l-12.29-2.22c-1.73-.31-19.14-1.37-21.31-.69-3.23-.82-5.63-.52-8.9-.2l-12.74,1.28c-10.42,1.05-20.25,3.57-30.04,7.2l-12.43,4.61c-3.47,1.29-6.04,3.04-8.94,5.16l-8.12,5.96c-2.86,2.1-5.2,4.15-7.71,6.56l-4.57,4.39c-14.54,13.96-27.05,29.27-33.93,48.3-7.56,20.9-9.53,41.99-4.28,63.49l2.52,10.34c.11.43.1,1.95.03,2.34s-.9,1.08-1.17.79l-1.8-1.9c-.28,1.04-.32,4.66.15,6.62.35,1.46,2.97,1.61,5.01,1.88,2.14,2.15,3.77,12.15,4.12,11.84l-2.21,1.9,3.98,1.04,1.6,5.06c-2.42,1.24-6,.99-8.91-.11l-2.19,1.48-6.86-17.62c-.89-2.29-1.64-4.58-1.8-6.32-1.96-2.93-3.44-6.8-4.18-10.73l-2.63-14-1.57-9.14c-.41-2.39.76-6.24,1.4-8.39-.57-4.57-1.38-9.78-.34-14.78l2.46-11.85c1.09-5.23,2.52-10.52,4.6-15.15l6.68-14.9c1.5-3.35,5.06-7.45,6.78-10.79-1.72-8.67,5.17-14.23,9.71-18.24,2.81-2.48,5.38-6.08,7.82-8.87l-1.37-2.23,7.79-6.02-1.35,3.85c3.51-.49,3.68-4.56,5.51-6.5,2.3-2.45,7.82-3.9,9.55-6.86,2.31-3.96,5.44-5.9,10.23-5.6,6.57.41,5.92-3.25,14.8-5.03l-1.83-1.98C100.27,4.36,129.43-1.32,148.34.27s38.96,5.06,57.49,12.77c6.5,2.71,12.39,6.68,18.62,10.08,10.92,5.96,19.42,14.04,27.3,23.62l16.92,20.57c.98,1.19,2.16,4,3,5.6.68,1.3-1.44,3.93-2.94,4.68l3.22,5.21c1.25-1.81,2.56-3.4,3.23-3.21l3.82,4.84c.67.85,2.2,2.22,2.02,3.02l-.7,3.15c.18,2.01-.01,2.86-.8,5.67l5.01,1.01c-2.99,4.12,1.57,6.01,2.38,8.93,2.53,9.08,4.69,18.26,5.78,27.68.27,2.29-1.53,6.3-.75,8.95,1.53,5.25,1.25,9.93.5,15.17-1.2,8.48-.87,17.76-4.3,25.51-1.48,3.34-2.76,6.05-3.62,9.3-4.64,17.5-8.31,22.88-19.34,37.47-4.03-2.58-11.12,9.08-12.77,11.78-4.33,7.07-11.06,12.24-18.26,16.39-6.41,3.7-12.82,8.38-19.53,10.85-6.34,2.34-11.82,5.99-18.25,7.4l-10.58,2.33c-4.2.92-8.38,1.86-12.4,2.29-4.69.5-10.6,3.44-16.84,2.91l-18.91-1.62c-18.71-1.6-34.25-7.7-50.87-13.98,1.41-.92,3.17-1.5,2.75-1.87l-3.17-2.81,3.92-1.59-3.33-4.43c1.78-2.39,6.12-3.08,8.38-.98-1.61.15-5.93,3.03-4.8,4.35,3.19,3.69,8.75,2.4,11.3-1.57,2.86.63,5.83,1.76,9.61,3.37-.86-12.5,1.62-24.75,9.78-34.73l23.78-29.07c5.13-6.27,9.16-12.42,12.08-20.27,4.12-11.11,4.03-24.77-2.28-35.32-4.15-6.94-10.26-12.18-16.14-18.44-.74,12.5-3.96,22.38-11.55,31.44-15.64,18.65-32.28,29.85-43.62,51.38-2.96-2.6-5.73-3.54-9.98-4.54,5.49-10.02,12.04-18.92,19.7-26.91l21.09-21.99c10.77-11.23,19.96-28.61,12.4-43.79-4.07-8.17-8.57-16.29-9.35-25.48-1.41-16.74,3.58-32.89,13.96-45.71,5.5-6.8,12.87-12.96,20.29-16.01,8.52-3.51-3.13,12.42-2.66,27.85.83,27.55,31.35,52.69,52.58,67.47l29.48,20.53c11.76,8.19,20.17,20.12,24.82,34.09ZM192.63,196.59c8.42-16.1,8.71-34.66,2.97-51.61-5.08-15.01-14.99-26.93-25.95-38.09-18.65-20.05-32.87-36.77-27.22-67.16-17.27,15.92-20.77,40.85-8.8,60.85,4.82,8.04,9.93,15.09,16.58,21.68l18.82,20.97c13.63,15.18,22.47,31.86,23.59,53.37ZM194.12,262.94c3.25-1.01,6.65.59,8.53-3.21,1.01-2.04,5.13-2.36,7.93-2.89,2.36-.45,5.02-4.33,7.06-5.63,13.09-8.38,21.6-13.72,27.39-28.08,10.23-25.37,4.61-53.28-16.17-71.68-8.25-7.3-17.25-13.48-27.56-19.13,6.83,14.55,10.05,28.67,8.07,43.78-3.52,26.96-16.28,43.03-34.05,62.5-6.83,7.48-9.15,16.59-5.52,26.62l-6.52,1.56c.77,1.04,1.58,2.11,2.25,1.96.53-.13,2.2-.56,2.78-.62l10.59-1.08c5.38-.55,9.83-2.41,15.23-4.09ZM140.89,269.56l9.76,1.5,11.73-1.85c-7.58-11.85-4.37-27.05,5.57-36.92,20.16-20.03,17.76-49.73,2.64-71.49-.57,4.94-.39,9.65-1.19,14.34-1.96,11.62-8.45,21.88-16.04,30.68l-14.42,16.71c-11.48,13.3-21.69,25.07-16.05,44,6.1,1.12,11.6,2.05,18,3.03Z"/>
      <path class="cls-2" d="M81.08,262.42c0,4.88-7.72,5.89-10.69,7.37l-44.55-.37c-3.3-1.17-8.21-3.47-8.2-7.44l.19-47.95c.02-5.77,8.13-8.01,12.5-7.91l42.22.95c3.35.08,8.53,2,8.53,6v49.36ZM68.44,264.68c1.21.23,4.24.14,5.6-.54,1.26-.63,2.45-3.42,2.46-5.06l.38-43.16c.03-2.91-2.45-5.62-5.14-5.46l-16.38.98,14.42.66c1.79.08,3.86,1.89,3.95,3.7l.55,11.09.51,33.08c.03,2.22-3.05,3.37-6.36,4.71ZM65.69,229.97c.05-1.14-1.91-2.85-2.84-3.3-.75-.36-3.59.63-3.61,1.57l-.22,13.38-9.3-.31,1.3-7.16,7.42-2.12-6.24-2.28c-1.46-.53-1.51-4.31-1.05-6.31l18.77.03c-1.32-2.88-5.73-6.36-7.75-5.36-3.57,1.87-6,3.99-10.2,3.15l1.58-7.48-10.06-1.73,2.49,8.79-13.39.1c-.79,0-2.21.89-2.7,1.35-3.25,3.05,16.11-.82,17.89,3.05l-5.74,1.92c-1.16.39-1.09,4.07-.59,5.18s2.4,1.61,4.56,2.55l-.35,6.59-8.76,1.77,5.01,1.65c-2.78,7.25-8.96,10.69-14.95,15.85,9.28-.05,16.25-5.87,21.07-12.42l.48-3.78,16.55-1.01.62-13.67ZM24.55,259.65l-.03-41.94-2-1.86.03,46.17,2.01-2.38ZM28.17,244.09c3,.95,5.5.95,6.97.09,1.22-.72,2.19-3.28,2.78-5.09,1.84-5.66-.19-11.83-6.36-12.68l.6,15.78-3.99,1.9ZM67.84,251.55c-6.77,4.55-8.38-5.11-15.4-5.72.19,8.26,7.51,15.76,15.48,14.67,3.15-.43,1.84-8.47-.08-8.95ZM45.2,265.15c5.24.08,10-.25,14.41-.97l-32.73-.38c-1.99-1.22-2.71-1.16-1.24,1.06l19.56.3Z"/>
      <path class="cls-1" d="M49.77,202.65l-10.54-.11c3.74-35.67,18.2-48.26,42.61-70.3,6.37-5.75,12-12.35,14.68-20.59,6.93-21.33-2.13-35.1,6.37-45.52-.04,18.67,7.31,34.93.38,53.02-2.02,5.28-5.53,10.87-9.65,14.92l-24.69,24.25c-10.08,9.9-20.19,28.35-19.17,44.32Z"/>
    </g>
  </g>
</svg>