<?xml version="1.0" encoding="UTF-8"?>
<svg id="Layer_2" data-name="Layer 2" xmlns="http://www.w3.org/2000/svg" viewBox="0 0 292.61 290.48">
  <defs>
    <style>
      .cls-1 {
        fill: #6cc9f8;
      }

      .cls-2 {
        fill: #c7b299;
      }
    </style>
  </defs>
  <g id="Layer_1-2" data-name="Layer 1">
    <g>
      <path class="cls-2" d="M78.98,265.05c.24,5.99-3.35,12.02-9.97,12l-42.63-.07c-2.68,0-8.37-2.97-8.39-5.89l-.32-57.81c-.02-4.32,1.76-8.12,6.92-8.15l46.59-.32c4.8-.03,7.7,4.26,7.66,8.44l-.27,27.69c-.08,7.86.05,15.23.41,24.11ZM66.82,211.51c4.17-.01,5.66,5.73,7.33,8.35,2.2-2.72,1.37-8.13-1.56-10.49l-45.89-.05c-1.46,0-5.14,2.32-5.05,3.86l1.1,18.61c3.21-6.77,2.28-12.84,2.22-20.16l41.85-.12ZM75.25,253.55l-7.24-6.05c-5.77-3.47-10.74-8.1-14.38-14.01l15.5-5.15c-.05-3.38-5.11-7.66-7.48-5.13-3.04,3.23-3.04,7.96-8.88,8.27-.61-4.69-.65-9.49.06-14.28-1.51-1.98-5.51-3.23-8.79-3.08,2.13,9.47,1.14,17.58-3.41,25.72l-6.42,11.49c6.79-1.97,7.17-7.53,11.53-11.63l-.38,22.32c-.03,1.46,1.44,3.91,2.48,4.48s3.84-2.09,3.86-3.28l.33-24.99,7.96,13.37c3.17,5.32,9.05,3.53,15.28,1.94ZM38.36,230.38c.85.18,2.81-1.18,2.93-1.91s-.92-2.11-1.71-2.5c-3.78-1.89-8.55-.98-11.37,2.29l10.14,2.12ZM33.17,246.59c3.09-.89,3.69-5.79,2.96-8.16-.66-2.11-3.74-5.37-6.53-4.7-1.59,1.08-3.17,5.36-2.99,7.46s4.51,6,6.56,5.41ZM24.11,252.68l-1.38-10.26c-4.65,31.58,4.36,32.35,1.38,10.26ZM67.36,271.4l-40.36.34c12.34,3.79,26.29.29,38.04,1.92l2.32-2.26Z"/>
      <g>
        <path class="cls-1" d="M278.66,177.41c-1.61-4.87,1.73-8.45,1.81-12.05.11-4.98-.17-9.29.85-14.21.91-4.4-.72-9.48-1.14-13.88l-.95-9.73c-.47-4.83-.58-8.3-1.57-12.8-1.38-6.32-.48-13.43-4.18-19.56l-12.25-20.31c-.91-1.51-1.45-3.28-2.55-4.81l-12.39-17.3c-4.45-6.21-12.78-9.62-18.52-14.76-2.91-2.6-5.28-4.65-8.63-6.45-6.88-3.71-13.43-7.93-20.87-10.21-8.44-2.58-21.39-6.4-29.93-6.91l-13.79-.82c-2.88-.17-6.04,1.99-8.73-.88-13.25,1.98-5.49-.86-15.14.99-19.6,3.76-38.11,9.15-55.55,19.56-12.46,7.45-22.71,17.49-33.32,27.46-11.19,10.51-6.32,10.08-16.65,25.58-1.32,1.99-4.91,2.61-4.39,6.52.61,4.61-1.95,7.93-3.39,12.18-1.03,3.04-1.81,7.16-2.62,10.44l-3.05,12.43c-.76,3.08-.24,8.04-.7,11.34-1.63,11.64-.08,21.5,3.4,32.6,1.55,4.94,2.9,10.34,5.52,14.77.63,1.07,1.82,3.94,1.2,4.8l-3.88,5.39,2.55-2.47,5.01,7.54-7.08,2.79c-7.25,2.86-15.73-32.45-16.11-36.54l-1.23-13.02c-.5-5.32-.61-19.07.06-23.42l1.98-12.73,1.4-7.67c1.97-10.78,14.48-35.01,20.56-44.93l8.29-13.52c4.7-7.66,5.76.22,14.41-13.38,1.16-1.83,1.13-3.79,3.4-4.7s2.92-2.56,4.23-4.56c1.7-2.62,6.56-4,9.53-5.85C90.09,8.31,113.19-.35,144.35.01c14.58.17,29.07.38,42.65,5.72,10.74,4.22,28.03,9.65,37.81,17.36l10.29,8.11c18.08,14.25,21.7,17.89,35.68,38.65,3.08,4.58,5.59,9.26,7.09,13.99l-2.14-.41c-.47-.09-1.69,1.03-1.31,1.32,2.89,2.17,4.76,0,5.73,2.21,5.94,13.5,9.92,32.97,12.15,48.56.49,3.39.05,7.27.19,10.77.74,18.1-2.21,35.03-8.44,51.87-7.48,20.2-21.21,41.43-37.74,54.73-.83.67-3.08,1.08-3.33,1.94-.23.78-1,2.89-1.53,2.7l-2.45-.86c-1.94,4.84-10.72,3.02-6.7,5.06l3.43,1.74c-29.1,19.16-61.24,29.62-97.17,26.46-33.94-2.99-24.48-5.51-36.4-7.53-4.93-.84-9.98-3.64-14.83-5.23l-1.83-.6c-.43-.14,1.36-1.28,1.77-1.1,1.16.51,4.07,2.41,5.06,1.74l4.19-2.83-6.01-.86c-1.11-3.35-2.61-5.61-4.95-6.73.68-.6,1.78-1.22,1.63-1.75l-.67-2.4c1.75,1.71,3.81,3.2,6.4,4.45l4.59,2.22c.37.18,1.49.95,1.93,1.25s1.04-.2,2.35-1.01c13.58,6.18,28.19,8.88,43.47,9.02,2.57.02,6.66,1.35,8.74,1.03l10.16-1.59,21.2-4.3c3.31-.67,5.73-.21,8.46-1.64,6.7-3.51,13.1-5.82,19.34-10.01l22.84-15.32c.59-.4,2.46-.02,2.63-.47s.31-2.14.65-2.48l8.5-8.63c4.86-4.93,9.27-10.04,12.53-15.46,10.85-18.08,7.3-8.96,15.27-29.36.52-1.32.32-4.64,1.08-5.78,1.14-1.71,2.65-5.13,1.99-7.14Z"/>
        <g>
          <path class="cls-1" d="M149.63,258.89c-2.61-2.7-3.16-6.08-4.31-10.79l-2.94,10.58-.69-19.01-9.21,6.31c-1.57,1.08-4.62,1.57-5.96,1.13l9.53-6.86c.59-.43.53-2.13-.06-2.34-.73-.26-2.45.03-3.24.33l-1.82.69c-.51.19-.42-2.46.02-2.79l10.61-7.83c.77-3.68.52-8.77.07-13.23l-15.92,8.76c-3.65,2.01-6.99,6.53-10.99,7.28-3.29.62-6.66-1.65-7.11-3.82-.75-3.58,2.36-5.92,5.66-7.16,3.48-1.31,6.99-4.57,10.4-6.37,6.51-3.43,12.48-6.66,18.83-10.46l-.19-26.75-.28-22.69c-6.01,2.93-18.5,7.98-18.92,13.84l-4.07-.38c-1.09-.1-2.7,1.75-3.28,2.58-.47-.39-1.42-1.47-1.83-1.22l-1.99,1.22-12.55,7.69-2.17,20.74c-1.09,10.4,1.23,17.82-4.45,18.7l2.46-2.64c2.54-2.72-7.67-8.35-7.47-12.56l.87-17.8c-4.29,2.09-9.14,4.32-11.82,6.57l-2.89,12.17-8.27-.54-.71-4.52-10.26,4.52c-.64.28-3.6.42-3.78-.19l-.95-3.35c-.1-.36-2.23.03-2.25-.33-.03-.53.22,1.53.37,2.73s-3.08-.39-3.67-1.7c-2.09-4.6,12.52-7.47,17.08-11.91l-14.68-6.89c.01-1.95,1.87-4.81,3.81-6.19,7.26,1.75,13.86,3.8,21.18,7.11l11.23-6.26-17.53-10.17c-3.99-2.31-9.96-.33-11.93-5.76-.65-1.8.49-5.21,2.27-6.54,2.18-1.63,6.39-2.05,8.28-.57,5.94,4.65,11.61,8.14,18.2,11.35l11.59,5.64,21.95-12.43,20.65-11.99-18.31-11.21-8.31-5.65-16.09-9.16c-9.9,7.56-17.13,7.17-27.12,14.8-3.25,2.48-5.25,6-9.09,3.8-3.54-2.03-6.33-6.22-3.12-10.08,1.63-1.96,6.67-1.08,8.54-2.14l20.25-11.48-11.24-5.83c-6.84,2.86-14.17,5.71-21.4,7.74-1.91-.35-4.61-5.59-3.08-6.6l13.63-7.19-15.42-7.75c-.65-.33-1.98-1.74-2.13-2.43-.19-.86.81-2.59,1.51-3.16l4.68-3.81,15.72,8.49c1.05-5.52.67-8.22-.18-13.41.13-.74,2.35-1.95,1.64-.33.75,3.65,1.04,5.11,2.25,7.74,2.3-3.19,1.6-7.1-.94-10.26,1.43-.75,3.47-1.63,4.01-.85s.87,3.02,1.09,4.33l3.05,18.1,11.73,7.13c1.92-5.93-5.34-33.18-1.96-33.99,2.72-.65,8.39-1.3,10.27,1.08.88,1.11.46,3.9.17,5.85-1.72,11.33,2.59,19.98,2.48,32.8l17.08,10.28,10.33,5.49,15.3,8.72.39-19.91c.01-.62-1.7-2.32-1.44-2.67l1.62-2.17-.13-24.95c-7.22-4.62-14.73-9-22.39-13.3-6.1-3.43-10.47-4.46-11.34-7.23-.59-1.89.1-5.38,1.37-6.24,4.54-3.09,8.55-.3,11.78,2.58,5.99,5.34,12.44,8.78,20.21,12.29l.31-12.94-19.47-13.77,6.38-6.36,12.48,8.07.64-17.19c.04-1.07,2.12-2.57,3.54-2.6s2.22,1.17,1.99,3.72l5.46-2.72-.53,19.32,12.22-8.35c2.18-1.49,7.44,4.45,5.2,6.42-5.78,5.08-11.6,9.01-17.93,13.61-.16,3.96.16,8.07.83,12.29,9.29-4.98,16.44-9.46,24.5-15.2,2.03-1.45,6.6-.16,7.96,1.87,1.22,1.82.29,6.31-2.37,7.79l-31,17.33.21,50.3,15.81-9.06c.45-.26,1.19-2.33,1.35-2.78.23-.6,2.24.31,2.89.17,2.34-1.11,6.28-2.84,8.46-4.16l14.15-8.56,1.84-16.72c.51-4.61.2-9.51-.36-14.4-.52-4.56,1.69-10.3,6.93-10.61,4.08-.25,6.24,4.81,5.49,8.21-2.01,9.09-2.72,17.52-2.92,27.08l10.91-6.09c2.38-8.03,3.64-14.69,4.02-23.38,2.54-.1,6.48,1.17,8.33,2.64l-.78,14.47,12.76-7.12c.68-.38,2.9-1.34,3.42-.82l2.83,2.78c7.4,7.29-7.18,8.3-14.32,14.19l7.59,4.62c-1.54,1.97-2.48,3.26-3.86,5.48l5.96-2.56c.91-.39,2.78-.73,3.72-.64,2.36.21-.86,6.59-1.94,6.68-2.33.18-17.61-5.07-22.14-7.4l-11.83,5.48,13.27,8.39c4.31,2.73,10.69,3.48,15.18,5.87,2.99,1.59,1.54,7.23-.93,8.98-5.89,4.17-8.81-2.78-23.14-9.79l-14.83-7.25-23.02,13.49-.28,1.93c.26-1.73-17.03,7.99-18.87,9.99l17.43,10.11,4.89-1.64-2.47,2.52c-.56.57,1.78,2.17,2.48,2.54l9.73,5.06,11.13,6.1c5.59-4.53,11.84-4.68,17.52-7.44,4.79-2.33,7.21-9.93,13.89-10.66,3.45-.38,6.96,1.33,7.61,4.54,1.67,8.13-7.01,6.92-13.51,10.57l-15.86,8.9,12.6,6.33c6.92-3.28,13.27-5.49,20.82-7.92l3.64,5.91-14.31,8.43,17.5,9.47c-.29,3.13-2.73,6.71-5.86,8.65l-16.34-8.17.22,14.32c-.33,2.25-7.85,1.97-8.09-.31-.8-7.55-1.68-14.03-2.97-21.38l-11.81-6.06c.43,9.5,1.37,18.03,2.99,27.75.22,1.32-.33,4.25-1.36,4.93s-3.68.9-5.27.76c-3.39-.29-5.7-2.58-5.4-5.89s.93-6.96.74-9.9l-1.5-23.37-16.6-10.56c-3.27-2.08-6.22-3.56-9.85-5.09-5.77-2.43-10.67-5.76-16.82-9.04l-1.56,4.79c-.53-.01-2.09-.55-2.38-.03l-1.81,3.27c-.27.49,2.11,1.11,2.36.61l1.48-2.96c.83,5.35.99,10.72.96,16.44l-.15,26.58,15.99,9.63,14.95,9.03c1.82,1.1,3.37,4.03,2.83,5.64-.86,2.55-3.5,4.78-6.5,4.28-5.98-.99-5.89-6.39-13.07-10.49l3.31.03c.49,0,.02-1.05-.36-2.19l-4.52,2.73-12.16-6.15c-.21,3.25-.37,8.53-.2,12.55l16.59,12.39c.38.28,1.44,1.79,1.24,2.16-.26.5-1.19,1.05-1.36.78-1.07-1.11-2.72-2.01-3.62-1.85-1.05.19-2.65,2.14-3.65,3.49-3.64-.17-6.58-3.34-9.76-7.32l.6,13.76c.07,1.6-1.4,4.54-2.69,7.36Z"/>
          <path class="cls-1" d="M90.04,217.12l-3.25.5c-2.71.42-1.42-8.98.59-12.96,1.06.96,2.67,3.31,2.51,4.34s-1.08,2.5-1.75,3.78c-.16.35-.51,2.08-.23,2.34l2.12,2Z"/>
        </g>
      </g>
    </g>
  </g>
</svg>