<?xml version="1.0" encoding="UTF-8"?>
<svg id="Layer_2" data-name="Layer 2" xmlns="http://www.w3.org/2000/svg" viewBox="0 0 293.48 292.62">
  <defs>
    <style>
      .cls-1 {
        fill: #56ef56;
      }

      .cls-2 {
        fill: #c7b299;
      }
    </style>
  </defs>
  <g id="Layer_1-2" data-name="Layer 1">
    <g>
      <g>
        <path class="cls-1" d="M293.48,146.06c-.31-5.23-1.16-13.67-1.77-18.93-.88.67-2.13,2.27-2.37,1.77-.23-.49-.83-1.27-.58-1.54l1.2-1.34,1.42-1.59-1.99.06c-.31,0-.56-.4-.39-.62.19-.24,1.13-1.54,1.37-1.84.32-9.55-2.61-16.33-6.03-25.73l-2.93-8.08c-4.17-11.47-11.3-21.27-19.27-30.34-15.18-17.25-18.78-24.71-40.38-36.71-10.77-5.98-22.93-11.7-35.04-14.41-9-2.02-5.88-2.07-17.09-4.11C158.41.58,147.7-.33,136.35.11c-30.15,1.15-53.06,9.06-77.41,27.06-3.82,2.82-9.37,4.78-12.42,8.13.44,4.94-3.71,3.05-5.9,6.42-.44.67.13,3.12-.45,3.72l-8.18,8.51c-6.42,6.68-11.44,11.04-13.59,22.15-.55,2.85-3.54,6-4.66,8.56l-7.24,16.62c-1.28,2.93-1.95,7.07-2.98,10.29C.73,120.38.34,133.12.06,142.35c-.32,10.65.63,18.19,2.86,28.84,3.58,17.1,5.59,10.42,8.24,14.87.41.68-.01,1.5-.49,3,.67,2.71,1.75,6.47,3.15,9,8.4.75,2.79-2.55,9.41-2.85.25-.01.63-.47.43-.63l-1.26-1.01-2.38-1.91c-.39-.31,1.28-1.8,1.68-2.32.55-.71-1.98-1.1-2.82-.78-1.39.54.09,1.3-.64,4.48-.08.33-.76-.84-.99-1.19l-3.67-5.61c-1.05-1.61-.38-5.87.55-7.29l2.82,2.38c.32.27.42.06,2.15-.64l-3.46-11.22c-2.69-8.71-2.26-18.01-2.43-27.28-.44-23.55,6.02-46.18,18.06-65.97-.61-1.37-1.28-2.48-.68-2.98.48-.4,2.69-1.47,3.33-2.19,19.59-22.13,26.85-30.77,54.5-44.78,3.38-1.71,6.71-3.47,10.51-4.5,33.64-9.07,51.45-11.34,86.57-2.5,9.05,2.28,17.19,6.51,25.53,10.76,13.91,7.1,26.41,16.83,35.89,29.21,6.67,8.71,13.82,16.61,17.84,26.82,4.97,12.6,7.66,6.39,7.87,18.63.76,2.01,2.56,6.1,3.88,7.65l4.98,5.86c.44.52,1.54,1.5,1.92,1.87.38.37.45,1.72-.06,1.84l-3.28.75c1.9,18.65,2.49,34.71-.72,53.23l3.35-1.78c.43-.23,1.03.31,2.59,1.55l-7.17,3.35-3.55,9.46c-1.62,4.33-2.98,8.81-5.17,12.93-10,18.82-12.77,24.48-30.21,37.44l-56.59.34c5.62-7.38,11.49-12.03,18.31-16.17l14.09.14c28.63.29,39.53-28.59,39.17-53.46-14.25-.74-28.13,1.89-40.52,8.29-11.11,5.73-16.99,17.72-17.55,29.9-.26,5.61-2.14,8.8-6.57,11.89-6.53,4.55-11.66,9.65-17.91,15.87.2-10.46.72-19.82,1.55-29.49l2.14-24.96c.82-9.54,15.01-25.13,22.82-28.6,8.64-.91,16.9-.5,24.97-3.84,8.98-3.71,16.43-10.96,20.4-19.94,4.19-9.49,4.26-19.47,4.58-29.81.06-2.06-.57-5.92-2.35-6.56-9.19,1.72-18.12,3.65-26.79,6.67-17.48,6.08-28.11,22.54-27.05,40.81.51,8.71-10.1,12.41-15.86,19.99l-.95-40.82,7.53-8.32c12.91-14.25,15.74-33.15,8.25-51.04-3.56-8.49-13.53-22.79-19.78-29.87-.96-1.09-4.77.56-5.57,1.7l-9.48,13.45c-2.6,3.69-4.76,7.64-6.45,11.76,2.61.99,5.18,2.07,7.69,3.3,2.75-6.21,6.81-12.26,11.78-17.79,16.29,19.7,26.89,44.86,5.13,65.83-.1-.34-.2-.67-.29-1.01-2.83,1.33-7.31-.13-7.71-4.31-.32-3.34-1.33-6.54-2.24-9.76.03,3.29.13,6.25.14,8.27-9.7-9.3-12.21-20.46-9.92-31.62-2.46-1.29-4.98-2.4-7.55-3.39-.98,4.46-1.43,9.05-1.3,13.67.43,15.2,9.19,26.51,19.59,36.4,4.11,14.67,1.84,31.14,1.28,46.53l-.91,25.14-1.29,25.32c-7.59-5.97-14.16-10.52-22.76-14.93-1.16-4.42-2.21-10.31-2.31-14.97,5.29-7.12,10.29-13.51,10.86-22.45.68-10.73-2.34-21.4-8.93-30.73-7.72,4.47-13.47,11.39-17.36,18.82-6.31,12.03-3.34,25.01,6.47,34.05l.95,12.07-16.92-4.73c-1.17-1.17-3.12-4.42-3.81-5.9-10.68-23.14-34.93-20.88-55.63-14.85l-11.38,3.31c2.4,8.54,7.53,16.42,13.92,22.63l14.4,1.56c4.22.46,5.83,5.22,5.77,8.45,41.24,5.98,12.05-20.81,70.49,7.16,13.58,6.5,17.04,24.34,9.64,36.55l-12.27-7.45c-20.11-12.21-42.23-19.73-66.32-15.98l-.19,9.12c17.27-3.37,32.88-.22,48.07,6.96,8.62,4.07,16.6,8.2,23.82,14.97-7.24,6.67-15.13,10.26-23.58,14.34-1.79.87-3.42,1.43-5.35.85l-21-6.38-6.9,3.44-2.83-1.93c-.49-.34.46-1.67,1.04-1.85l3.1-.95-8.94-4.81c-.55-.29-2.84-.44-2.78.14l.25,2.32c.42,3.78.87,6.74,2.07,10.11,3.5-.28,2.32.28,0,1.45,2.46,1.63,4.92,2.71,8.3,3.34,2.64.49,5.23,2.51,7.58,3.38,20.42,7.6,37.45,8.68,59.02,8.83,3.56.03,7.88-1.37,11.58-1.97,12.54-2.05,18.03-3.82,29.16-8.17l10.81-4.23c7.96-3.12,25.1-14.23,31.58-19.73,22.05-18.75,35.33-40.28,43.7-67.85,3-9.87,8.18-30.07,4.03-38.69-.26-.53,2.2-1.88,2.16-2.54ZM245.05,178.84c-1,18.38-13.76,39.47-34.58,35.12l1.7-1.61c-.81-.14-1.65-.4-2.5-.82-2.55-1.26-2.97-3.65-2.17-5.67-1.27,1.04-2.18,1.85-2.48,2.22-.33-21,22.29-29.56,40.04-29.24ZM239.11,103.13c.26,21.03-9.09,40.92-33.49,39.97l1.84-1.94c-1.91-1.1-3.22-3.54-2.43-5.7.76-2.05,1.72-3.93,2.93-5.67l-7.12,5.8c.91-20.06,17.3-31.5,38.25-32.48ZM93.77,187.16c.8,2.01.06,4.63-1.72,6.09,1.46.46,2.89.91,4.28,1.35-14.82,10.43-33.54-1.83-40.55-16.19,15.52-4.12,34.8-9.79,45.14,7.66l-6.95-.89c.05.67-.02,1.34-.2,1.98ZM128.79,162.07c.03-7.53,3.56-13.65,9.45-17.92,4.63,13.72,5.18,18.45-3.67,30.1-3.46-3.05-5.79-7.45-5.77-12.18ZM222.3,252.58c-4.89,4.31-20.53,11.63-27.34,14.62-3.79,1.67-15.27,4.5-19.47,5.2l-11,1.83-11.53,1.92c-2.07.35-6.13-1.1-9.6-1.58,10.4-6.79,19.59-13.76,24.86-25.27l24.79-1.37c11.5-.64,21.82-.26,34.55,0l-5.27,4.64Z"/>
        <path class="cls-1" d="M217.52,198.68c-1.81,1.11-3.69,2.4-5.45,3.67.37-.02.75-.02,1.15.05.2-.18.3-.13.68-.44,1.06-.85,2.01-1.85,3.03-2.76.2-.18.4-.35.6-.52Z"/>
      </g>
      <path class="cls-2" d="M63.95,292.62l-41.83-.24c-2.22-.01-6.75-3.17-6.84-5.31-.25-5.72.25-11.65-.37-16.89-.49-4.15-1.23-8.01-1.07-12.18.66-17.53,1.28-34.21,1.06-51.68-.03-2.7,1.96-5.45,5.4-5.8,10.46-1.06,20.78-.67,31.32-.86l15.27-.27c2.35-.04,6.45,2.05,7.26,3.98l.26,23.61.05,37.06c0,6-1.12,11.92-.68,17.87.19,2.62.86,6.58-1.81,8.04-1.95,1.06-5.93,2.67-8.03,2.66ZM21.78,208.93c-.21-4.67,12.41-1.45,18.31-4.46-6.04-1.13-16.86-2.74-21.22,2.07l.18,45.64c4.43-6.77,3.16-33.72,2.72-43.25ZM38.06,287.83l27.96.27c3.49.03,4-5.42,4.01-7.98l.08-41.1v-34.82c-9.01-1.71-16.47-1.3-24.33.3l20.74,2.16,1.04,32.4c.47,14.64.45,29.16.22,43.89-6.35,8.67-16.86-.75-29.72,4.91ZM39.22,231.09l8.66-.69c.78-.06,2.92-1.27,2.52-1.85s-1.78-1.56-2.59-1.57l-7.66-.15c-.77-.01-1.61-2.85-.96-3.14,6.74-2.93,13.14.56,15.64-4.38-4.58-.75-9.31-.7-14.27-.28-1.17.13-.94-4.5.14-4.85,5.42-1.42,12.84-2.06,19.68-2.94-3.46-5.37-10.04,1.34-17.47-3.26-7.66,6.17-16.71,1.57-17.77,6.35-.19.86,1.66,2.38,2.5,2.13l6.72-2c.22,9.84-3.82,23.58,2.15,28.66.68.58,2.37-2.4,3.27-2.55,9.77-1.64,17.37,2.41,20.11-1.25s.29-12.02-2.92-10.55l-3.58,8.52-13.65,1.12-.53-7.33ZM62.45,251.69c-3.38-2.42-5.4-2.3-8.2-3.03-.54-1.83-4.32-4.66-5.08-3.09-.68,1.41-.52,4-1.34,4.14s-2.7.3-3.84.31l-3.57.03c-.43,0-.38.82-.63,2.51l22.65-.88ZM31.83,257.35c2.63-2.11,3.82-5.05,2.71-7.16-1.18-2.25-3.52-3.36-6.52-3.16l3.81,10.32ZM58.45,280.33c1.78,1.64,2.88,2.91,3.63,2.42.8-.51,2.3-1.75,2.13-2.46s-1.14-2.16-1.9-2.86c-2.36-2.18-4.24-1.22-8.24.64-.09-.33-.33-2.86-.4-4.2-.05-1.02,2.79-1.34,3.85-1.28l3.56.21c.57.03,1.31-2.89.73-2.92l-6.94-.32c-.55-.03-1.43-1.76-.88-1.83l2.17-.29c.76-.1,3.28-.95,2.95-1.64-3.03-6.19-9.83,2.08-11.73-4.22l10.33.22c.74.02,3.42-.56,3.15-1.24l-1.23-3.1,1.33-3.73-19.42.97c-2.35.12-1.08,4.77-.43,4.3,5.51-3.97,6.53-2.44,14.98-2.65.02,1,.12,2.05-.32,2.07l-1.88.11-11.78.56c.8,2.27,2.02,4.18,1.43,4.8l-2.89,3.05,8.7,1.07c-.06,3.72-6.61.62-7.08,3.36-.09.52.46,2.18.98,2.17l2.13-.02c1.4-.01,2.31-.15,2.95.24.48.29.37,3-.05,3.38-3.18,2.84-10.22.63-10.04,2.67l.2,2.32c.04.43,2.02.29,2.47.23l17.54-2.06ZM37.98,260.27c1.12-.34.49-3.77-.41-3.43l-3.65,1.39-9.57-2.09,4.76,9.33c3.17-2.98,5.25-4.1,8.87-5.2ZM21.19,284.37l.42-2.98c.85-6,.33-12.43-2.09-18.88-1.17,5.03-3.46,25.91,5.1,25.54l8.55-.38c-2.54-2.77-12.35-.72-11.98-3.29ZM34.3,264.42c-4.23.92-6.76,20.35-2.07,17.68s2.92-12.56,2.07-17.68Z"/>
    </g>
  </g>
</svg>