<?xml version="1.0" encoding="UTF-8"?>
<svg id="Layer_2" data-name="Layer 2" xmlns="http://www.w3.org/2000/svg" viewBox="0 0 287.02 279.79">
  <defs>
    <style>
      .cls-1 {
        fill: #10a3a0;
      }

      .cls-2 {
        fill: #c7b299;
      }
    </style>
  </defs>
  <g id="Layer_1-2" data-name="Layer 1">
    <g>
      <path class="cls-2" d="M26.08,267.67c-3.25,0-9.69-2.13-9.7-5.82l-.05-49.67c0-2.21,3.43-6.5,5.73-6.75,7.87-.87,17.15.27,24.95.21,11.11-.09,30.18-4.09,30.11,4.74l-.38,49.78c-.03,3.38-4.59,7.38-8.28,7.39l-42.39.13ZM72.38,220.06c.85-2.88,2-7.57-.02-10.67-1.32-2.03-6.32-1.12-7.51.06,2.26.95,5.3,1.72,5.71,3.36l1.82,7.24ZM65.31,216.63l-11.33-4.99c-.97-.78-4.04-1.06-4.04.06l.02,3.39c.01,2.16-8.6-1.4-8.13,5.4,8.35-.71,15.59-1.77,23.49-3.85ZM27.96,213.76l6.91,9.24c.73.85,3.85-1.72,3.84-2.86-.02-4.79-6.29-7.44-10.75-6.38ZM22.15,260.23c1.05-7.84.6-14.76-.02-22.22-.66-7.91.08-15.6-.96-23.06-.67,15.33-.52,29.77-.16,45.11.07,3.11,6.2,4.86,8.73,3.53l-7.59-3.36ZM50.53,258.79c.45,1.47,4.3.86,4.67-.17l1.49-4.09c.47-1.29.19-3.71,1.12-4.16,4.06-1.96,11.57,2.66,13.92-3.21-4.75-3.44-16.93-.02-15.11-3.72.32-.66,1.79-1.7,2.58-1.77l9.49-.82c1.05-1.01-1.5-4.33-2.92-4.11l-6.91,1.06c-1.01.16-2.98-.39-3.08-1.15-.54-3.9,3.25-1.26,8.69-2.89l1.68-9.94c.21-1.25-2.9-3.16-4.3-2.99l-21.88,2.67c-1.23.15.87,3.81,2.03,4.42l.89,9.21,6.03-1.74c.62-.18,2.46-.34,2.45.22l-.05,2.58c-.01.56-1.45.27-2.53.39l-7.43.85c-.89.1-.48,4.21.43,4.15s2.36-.2,3.86-.38l4.17-.52c.85-.11,1.28,1.39,1.36,2.74l-15.73,2.16c1.61,4.83,5.85,3.35,9.48,3.7.78.08,2.32,1.62,3.03,1.3l3.08-1.36c.03,1.96-1.03,5.86-.52,7.56ZM32.26,234.84c1.21.67,3.76-3.45,2.88-4.26l-3.07-2.83c-2.29-2.12-5.32-4.45-8.26-.38,2.04,2.41,6.02,6.12,8.45,7.47ZM31.21,257.56l4.4-14.25c.65-2.09.88-3.77-1.02-6.38-2.56,3.69-8.65,15.23-7.46,17.11.58.91,2.5,2.41,4.08,3.53ZM66.64,264.25c9.33.47,7.09-15.49,6.82-20.3-1.08,4.98,0,10.31-2.54,14.15-3.58,5.42-9.79,4.21-15.14,5.6l10.86.55Z"/>
      <path class="cls-2" d="M49.95,232.33c-.82.11-2.31-.38-2.71-.84s1.12-2.03,1.78-2.14l10.4-1.66c-4.74-2.07-7.74-.63-12.71-1.32l12.85-2.21.15,6.83-9.77,1.33Z"/>
    </g>
    <g>
      <path class="cls-1" d="M205.72,187.96l1.62,1.24c.24.18.13.2-.18.36l-2.36,1.22c2.42.92,5.58.2,8.48-1.53l-3.77-2.25c-.81-.48-.55-2.74-.74-3.68-1.47.74-4.26,1.72-5.42,1.69l-.91-5.83c2.79-1.89,6.18-2.61,10.3-1.69l-3.07,5.19,3.4-.3c.69-.06.56,2.13.7,2.8l3.47.23c1.9.13,2.77,5.87,4.16,4.13-1.4-4-1.97-5.59-2.61-9.63l-3.79.59c-.31-1.2-.04-3.95,1.01-4.77,1.27-.99,3.75-.37,5.3,1.25.65.67.83,2.88.71,4.4-.16.26,1.84,1.11,2.04.56l1.47-3.97c.78,1.79.56,5.63.12,7.59-.21.94,2.49,2.14,3.14,1.55l3.14-2.86.63,3.29c.13.69,2.97.64,3.15-.04.23-.81-.06-2.55-.57-3.23l-1.33-1.79c-.19-.25,1.26-.72,1.45-.44l1.09,1.65,3.24-3.79c9.86,5.03,7.23-7.68,14.98.52l-4.59.14c-1.18.04-.82,3.19-.59,5.24l6.51,1.93c2.11-2.08,3.78-3.3,5.1-3.13.28,1.33.25,2.69.88,2.73s2.78.22,2.3.18l-1.38-5.27,5.67,3.5,3.29-12.51c-19.17-15.04-49.55-16-71.42-7.73-13.48,5.1-24.54,13.13-35.09,22.94-22.8,21.2-52.23,32.41-83.55,30.9l-.87-9.45c27.31,1.39,52.55-8.27,72.62-26.2,7.83-7,15.07-13.1,23.58-19.64-49.96-9.83-46.86,32.25-104.37,29.71-20.11-.89-37.87-8.85-53.55-22.43,1.75,6,4.16,12.6,8.37,15.95l12.84,10.24c-12.74-.16-.42-1.13-15.36-.13l-5.06.34-3.21,3.19C6.21,184.58.41,157.62,0,138.44l2.49-2.07c.52-.43-.69-2.4-1.08-3.21-1.41-2.87-.52-5.4-.2-8.32,1.52-13.78,5.04-26.24,10.54-38.91,2.04-4.71,4.98-9.15,7.27-13.73,4.7-9.39,10.01-17.07,17.03-24.86l6.68-7.41c2.23-2.48,4.64-4.67,6.96-6.26l1.63,2.3c.28.4,1.47-1.36,1.86-1.7,8.39-7.41,8.66-3.78,8.37-9.84C87,8.8,112.71-.4,143.01.01c15.22.21,30.19,2.02,44.48,7.49l9.59,3.67c29.11,11.15,52.61,32.01,69.19,58.39,4.8,7.63,2.37,5.86,7.75,15.33,4.65,8.18,7.05,16.51,9.34,25.53,6.16,24.25,3.73,43.14-1.3,66.99-3.71,17.6-11.51,34-22.49,48.62-4.67,6.22-20.98,21.88-27.6,26.29l-1.79-.95c-1.66-.88.63,3.03-5.47,6.64-15.33,9.05-24.07,12.47-41.51,16.61-4.3,1.02-8.85,3.23-14.35,3.69l-15.62,1.29c-7.55.62-14.72-.39-22.28-1.25-2.45-.28-6.05.11-8.35-.44l-8.61-2.05c-10.43-2.48-21.29-6.08-30.44-11.24-.05-2.15-.49-3.94-1.39-5.37l6.6-2.72c-.83-1.11-1.59-2.49-1.98-2.18l-1.75,1.37c-1.37-2.65-2.41-4.67-2.18-7.2,32.13,17.75,69.54,23.2,104.88,11.77,21.69-7.02,47.72-23.85,61.49-41.88l9.24-12.09c-22.81-11.25-52.79-5.4-74.27,7.96-9.53,5.92-18.02,12.32-28.63,16.46-21.66,8.45-45.32,10.01-68.29,6.82l-.29-8.14-3.15,1.6c-.35.18-.68-.48-.94-.77s1.44-1.42,2.08-1.36c18.64,1.79,21.44-.9,40-1.1l-4.48-1.3,7.97-2.85.8,2.09c.2.51,2.71.49,2.7-.06l-.09-2.69,13.51-5.54-.09,4.47,3.36-1.14-1.28-1.79c-.34-.47-.83-2.31-.24-2.35l3.97-.28c9.72-12.26,10.58-5.57,15-7.59,1.64-.75,2.47-3.65,2.11-5.65l3.42-2.99-.61,4.29c-.13.91,2.69,1.39,3.63,1.3,1.46-.13,4.43-1.71,4.18-2.99-.29-1.48-1.99-3.02-4.15-4.7,1.15-1.8,4.79-4.76,7.44-6.56l3.73,4.7c.96-1.55,1.71-3.65,2.41-3.51l2.9.62.75-4.22,1.35,7.15,5.44-2.88c.73-.39.69-3.81-.13-3.77l-3.96.17c-.13-.02-.81-1.63-.36-1.81l2.85-1.14c.61-.24,2.5.27,2.75-.34l1.24-3.13c1.24,1.57,2.86,3.32,4.61,4.67ZM93.46,94.08c-11.93-19.67-41.7-18.12-56.18-7.51-22.27,16.31-20.09,22.82-24.12,43.61l-1.31,6.77c-.3,1.57.31,5.32.5,7.19,11.44,16.76,23.86,30.03,44.16,34.48,13.2,2.9,26.09,2.99,39.42-.38,11.32-2.86,19.88-10.05,29.14-17.01,13.52-10.17,30.8-13.3,47.67-10.91,6.85.97,13.81,3.85,20.34,5.16,29.34-9.48,53.92-9.77,80.64,7.7,3.02-9.04,1.8-15.88,1.28-22.43-.48-6.03,1.01-12.87-.5-19l-5.23-21.13c-6.81-27.54-25.71-49.78-48.74-66.12C164.98-4.92,87.61,5.1,43.71,57.24c-6.85,8.13-12.65,16.84-17.66,25.96,18.74-12.51,39.89-16.48,60.18-7.58,13.86-11.11,32-11.55,47.7-3.61,15.7,7.94,28.01,27.71,21.69,45.2-5.31,14.69-22.56,21.49-36.26,14.19-4.78-2.55-7.91-7.75-7.81-12.89.09-4.6,1.85-11.06,7.53-12.01-3.21,7.38-2.64,15.48,4.37,18.67,6.32,2.87,13.06.89,18.37-3.39,4.15-3.35,7.27-9.22,6.71-15.85-1.45-17.22-15.87-29.46-32.93-30.57-7.4-.48-14.37,1.54-20.1,7.06,13.36,12.71,13.63,38.46-3.04,48.27-10.21,6.01-23.65,5.12-32.84-2.4-4.37-3.57-5.84-9.71-4.11-14.86,1.46-4.34,4.51-9.26,10.62-10.29,1.03,2.89-7.55,7.81-4.42,15.17,1.73,4.07,4.61,6.8,9.11,7.93,8.77,2.19,18.06-.4,22.65-8.82,3.69-6.76,4.34-16.18,0-23.33Z"/>
      <path class="cls-1" d="M172.82,247.18c-4.83,1.7-6.43,2.53-10.65-.16-.31.22-.15,2.87.56,3.22l2.8,1.38,3.01,5.49c-5,1.15-3.43-4.46-8.81-4.4-1.15.01-4.08-.51-3.8-1.39l1.28-4,2.25,3.64c.65-1.31,1.31-2.78,1.29-3.55-.03-.96-2.42-1.25-4.17-1.79l16.22-7.75c1.28.36,5.29,2.06,2.87-.63,5.05-4.99,10.97-8.63,17.57-12.32l5.87.59,3.92-6.14,3.18,7.73.02-7.2c3.94-3.16,10.82-4.03,15.71-3.63l2.62,4.12,3.8,9.52,5,1.19c-13.87,9.78-17.97,13.69-34.18,19.42l-9.08,3.21c-.33.12-2.28-.63-2.46-.33l-1.06,1.7-8.02-.27c.68-1.03,1.86-1.32,3.3-1.23l3.08-8.33-6.15,1.27,2.04,1.15c.45.25.93,1.26.83,1.77s-1.66.23-2.44.23l-3.39-.03c-.9,0-.65,2.82-.46,3.71l.51,2.37c.09.43-1.38.81-1.65.46l-1.23-1.57c-.66-.83-1.81-2.44-2.31-3.21-.57-.9,1.67-2.98,2.12-4.22ZM187.9,247l6.39-.67c.81-4.87,1.71-6.89,3.38-10.26-.1-1.4-.29-3.49.96-4.04,1.86-.8,4.05-.36,4.99.85.87,1.11,1.03,1.55,1.44,1.4.46-.17,1.7-.65,1.62-.62l-4.97-4.79-6.61.95c.42,1.03,2,3.18,1.25,3.36-6.75,1.62-4.14-2.52-5.42,1.85l-.76,2.59c-.14.49-1.65-.11-3.15-.38l.87,9.76Z"/>
      <path class="cls-1" d="M229.12,225.01l7.46.1,7.62-6.01c-2.84,3.8-5.99,7.2-9.27,10.76l-5.81-4.84Z"/>
      <path class="cls-1" d="M141.59,255.69c-1.01-2.72-.57-3.97.27-5.3q-.85-.93,1.66-2.32c1.13.87,2.63,2.93,2.55,4.31-.11,1.93-3.72,5.38-4.49,3.31Z"/>
    </g>
  </g>
</svg>