<?xml version="1.0" encoding="UTF-8"?>
<svg id="Layer_2" data-name="Layer 2" xmlns="http://www.w3.org/2000/svg" viewBox="0 0 294.33 289.5">
  <defs>
    <style>
      .cls-1 {
        fill: #c7b299;
      }

      .cls-2 {
        fill: #a544ea;
      }
    </style>
  </defs>
  <g id="Layer_1-2" data-name="Layer 1">
    <g>
      <g>
        <path class="cls-2" d="M224.56,173.21c-44.29,31.82-102.06,33.6-147.91,5.18-12.99-8.05-23.61-17.96-33.94-29.2l-20.62-1.22c-1.51-.09-3.99-1.45-4.58-2.56-.67-1.27-.61-5.14.79-5.44l7.83-1.63c20.22-29.31,46.5-53.03,81.13-63.64,6.52-2,12.57-3.79,19.38-4.79,18.09-2.65,36.37-1.67,54.2,2.6,24.19,5.79,44.14,18.05,62.26,34.89,9.39,8.73,17.17,19.19,25.31,29.39,2.48,3.1,5.86.07,10.15,5.21.86,1.03-.18,4.9-1.54,5.13-15.54,2.51-22.05-1.49-28.06,5.05-7.43,8.08-15.23,14.45-24.41,21.05ZM245.85,135.44c3.21,3.48,6.64,5.25,11.67,2.75-4.23-5.54-8.23-10.87-13.22-16.38-36.64-40.52-94.02-55.55-145.19-33.69-19,8.12-35.96,19.15-49.06,35.14l-12.68,15.47c3.01.31,6.41.39,8.75-.04,13.14-13.44,27.09-24.28,43.69-32.45,52.83-26.01,115.79-14.4,156.04,29.21ZM159.26,122.42c7.31,4.93,11.82,12.93,11.38,21.23-1.13,21.12-19.91,34.8-40.26,32.1-9.72-1.29-17.98-4.92-23.75-13.12-3.97-4.24-6.29-9.64-7.53-15.53-2.16-11.38.94-21.99,6.53-32.68-19.77,6.03-36.05,16.99-50.25,31.94,21.09,22.72,50.24,38.98,81.98,40.72,20.85,1.15,39.78-12.85,45.84-31.4,6.54-20.03-2.52-38.83-21.16-46.84-19.44-8.35-41.79-.17-49.88,19.86-4.83,11.95-1.39,26.77,9.61,33.64s24.06,4.84,32.91-3.38c5.16-4.8,7.21-11.88,6.36-18.64-.77-6.12-5.18-10.14-10.24-11.75-5.4-1.73-11.61-.57-15,4.54-1.85,2.78-1.53,7.03.41,9.29,4.74,5.54,11.52-1.36,12.41,1.69.24.82.36,3.36-.06,4.25-1.69,3.51-6.71,6.22-10.61,6.05-3.68-.16-8.41-1.81-10.89-5.22-7.17-9.82-2.49-23.17,8.85-28.24,6.95-3.1,16.64-3.05,23.36,1.49ZM240.45,145.61c-4.59-4.99-8.27-7.99-12.63-11.32-12.73-9.99-26.11-18.46-42.53-22.7,17.95,20.97,12.83,50.9-4.87,70.34,23.43-5.96,43.69-18.33,60.02-36.32Z"/>
        <path class="cls-2" d="M274.94,187.9c7.55-28.57,9.2-45.84,1.94-74.26-4.31-16.86-11.76-31.41-21.51-45.54-4.49-6.52-9.61-11.48-15.45-16.86l-6.73-6.19-10.77-8.18c-11.84-8.98-24.82-13.99-38.88-18.54-11.18-3.62-22.75-3.74-34.38-3.52l-9.79.19c-2.42.05-4.84.31-7.13.73l-12.97,2.39c-3.32.61-6.8,1.13-9.91,2.24l-16.79,5.95c-10.04,3.56-18.53,8.59-27.35,14.91-23.91,17.14-44.59,43.76-50.23,73.11-3.27,17.01-4.38,32.71-1.12,49.9l3.49,18.44-4.91-3.6-.4,6.6c-.05.82.89,3.49,1.69,3.49h3.48c.91,0,2.84.39,3.54.89.84.6.16,2.84-.6,4.26l4.36,5.97-6.07.83c-1.47.2-4.5-1.48-5.87-2.08l-2.59-7.9c-.17-.52,1.23-1.89,1.55-2.33,2.06-2.77-3.88.77-6.1-7.96-1.79-7.07-4.13-13.86-4.62-21.24-.9-13.56-1.89-32.67,1.77-44.92,7.72-11.23-.54-2.77,7.91-19.42.52-1.03.18-3.42.16-4.61-.06-5.09,3.49-9.36,5.64-14.29,3.69-8.46,10.58-16.39,15.19-23.67,1.1-1.73.57-6.49,5.22-6.39.8.02,2.46-.2,3.08-.71.75-.61.8-2.8,1.15-4.06,1.55-5.63,16.28-10.56,21.48-16.66,4-4.7,7.03-6.54,13.41-8.04,4.85-1.14,10.09-4.68,14.84-6.46C120.71-.91,147.42-2.7,178.86,3.61c10.57,2.12,27.69,9.02,36.45,14.33l7.01,4.25c22.35,13.56,40.37,33.88,52.86,56.54,2.3,4.17,3.41,8.21,5.02,12.34,2.33,6,5.2,11.6,7.12,17.78,7.92,25.47,8.06,33.52,5.66,60.75-1.59,17.99-8.62,35.55-17.23,51.52-1.13,2.09-2.36,5.77-3.54,7.36-2.61,3.51-5.17,8.13-7.96,10.92l-12.55,12.53c-1.86,1.86-4.83,4.63-6.5,6.12-3.04.19-4.71.67-7.21,1.94l-7.08,3.59c-.23.6.94,3.18.32,3.52l-3.51,1.94c-4.38,2.41-8.78,4.33-13.26,6.24l-12.58,5.36c-8.73,3.72-29.9,7.65-40.4,8.35-30.71,2.05-46.3-1.75-74.91-13.67l6.1-4.07-4.39-1.2c.21-1.27.68-3.62.34-4.68-.39-1.24-2.33-2.67-3.51-3.55l1.51-1.49c.73-.73,10.79,3.86,10.4,9.6l8.38,1.06-2.71-4.12c36.73,11.79,61.89,10.17,98.87-2.64,2.95-1.02,5.52-1.61,8.1-3.15,12.44-7.4,14.82-6.71,24.41-13.76,7.7-5.66,7.44-10.91,20.46-22.24,1.92-1.67,6.27-2.51,5.88-6.74-.11-1.14,2.73-2.61,3.36-3.67,4.49-7.54,8.77-17.59,11.19-26.74Z"/>
        <path class="cls-2" d="M233.43,188.61c-3.31,3.26-6.16,6.4-9.98,9.01-7.08,4.84-13.71,10.17-22.11,12.68-31.73,15.78-70.67,16.23-103.64,3.14-19.52-7.75-43.11-26.64-55.35-43-.38-.51-.53-2.38-.38-2.88.2-.66,2.61-.39,3.29.2,7.06,6.02,14.78,14.02,22.77,19.46,31.15,21.21,61.57,31.35,99.5,24.64,29.54-5.22,55.69-19.18,76.85-40.07,1.71-1.68,3.98-2.91,6.19-3.52-3.2,9.61-10.88,14.18-17.13,20.34Z"/>
      </g>
      <g>
        <path class="cls-1" d="M76.59,269.83c-.68,4.76-6.69,5.99-10.29,7.63l-42.31-.43c-6.06-.06-10.06-4.67-10.05-10.26l.08-53.78c0-3.84,3.74-9.2,7.43-9.18l47.09.25c3.86.02,8.28,2.99,8.28,7.16l-.06,40.54c0,5.86.7,11.95-.17,18.06ZM66.97,210.77c2.64,2.35,4.33,6.66,5.11,9.89,1.31-2.84,1.34-9.24-2.11-11.74l-41.46-.4c-3.47-.03-7.19-.17-9.02,2.9-1.31,2.19-1.22,5.9-.43,8.83,1.95-6.88,5.18-9.6,11.43-9.58l36.48.1ZM58.08,253.85c-2.26,1.03-5.75,1.18-7.47-.07l.5-16.63,12.98-2.63c.89-.18,2.92-1.35,2.56-2.03l-1.35-2.55c-.61-1.14-2.02-4.12-1.55-5.34.4-1.04,1.57-2.11,3.01-3.82-1.71-1.77-4.76-4.13-6.77-5.16-6.4,6.85-9.16-.13-14.17.38-.28,19.71,1.88,28.14-6.24,45.95-.32.71-.55,3.11.19,3.14,5.26.25,7.32-8.82,9.32-13.17-.66,2.91-1.06,7.57.76,10.68,5.33.22,12.49-4.48,11.88-9.96-.21-1.87-.93-4.71-.88-6.77.08-3.26-.07-5.47-1.41-8.57-3.44,5.4-3.85,10.41-1.37,16.54ZM23.62,249.4c-.11,2.35-3.2,3.8-.99,5.7,2.57,2.21,4.22,2.55,6.78.42,5.05-4.2,8.02,2.23,11.11-2.25.64-.93.53-2.85.49-4.57l-.37-17.05c-.07-3.43.26-7.27.48-10.64-.84-1.7-5.52-4.64-7.56-4.1-3.54.95-8,3.88-10.64,6.5,1.66,4.7,9.35-2.66,12.25-.06.84.76.7,2.91.59,4.54-.07,1.13-2.25,1.47-4.61,1.95-4.21.87-2.27-2.46-5.94-4.39-.33-.17-1.7,1.34-1.69,1.93l.11,22ZM63.64,243.37l1.03,13.84c.08,1.06,2.62,3.52,3.41,2.82,3.89-3.42-.49-14.03-4.44-16.66ZM72.23,261.01c-1.89,4.72-4,8.28-7.19,9.04l-40.63-.54c-3.48-.05-4.42-5.91-5.46-8.74-1.07,1.57-.95,6.18.54,8.09,1.27,1.63,4.9,3.9,7.4,3.92l34.74.2c2.14.01,6.31-1,8.35-1.53,3.16-2.82,3.85-7.78,2.26-10.43Z"/>
        <path class="cls-1" d="M57.6,231.64c-.98,1.21-4.71,1.62-6.27,1.54l.31-10.54c1.78-.75,6.62-1.64,7.84-.15,1.3,2.13.11,6.71-1.88,9.14Z"/>
        <path class="cls-1" d="M35.04,244.34c.02,2.21.14,4.66-.31,5.33-.55.84-2.45.76-4.99,1.04-1.76.19-2.15-4.47-.94-6.14,1.01-1.39,6.22-1.92,6.23-.23Z"/>
        <path class="cls-1" d="M34.88,233.89c.37,1.33.74,5.28-.25,5.35l-5.29.41c-1.17.09-1.28-3.38-.91-4.7.48-1.73,5.98-2.75,6.45-1.06Z"/>
      </g>
    </g>
  </g>
</svg>