<?xml version="1.0" encoding="UTF-8"?>
<svg id="Layer_2" data-name="Layer 2" xmlns="http://www.w3.org/2000/svg" viewBox="0 0 201.48 207.2">
  <defs>
    <style>
      .cls-1 {
        fill: #975399;
      }
    </style>
  </defs>
  <g id="Layer_1-2" data-name="Layer 1">
    <g id="PZLDQC">
      <g>
        <g>
          <path class="cls-1" d="M150.1,175.46c18.93-6.93,30.37-21.9,35.58-41.03l4.75-17.45c.47-1.73.96-2.96.88-4.83-.16-3.77-.22-7.58-.01-11.34.16-2.88-.16-5.21-1-7.92-2.33-7.52-2.58-16.82-6.77-24.94-3.92-7.61-12.16-21.32-19.45-25.78l-10.94-6.68c-2.15-1.31-2.56-3.64-1.5-5.76,1.21-2.43,3.84-3.85,6.67-2.6,12.4,5.49,22.58,14.97,29.57,26.67,10.31,17.26,14.49,37.68,13.46,57.76-.34,6.54-1.81,12.75-3.37,19.09-2.64,10.74-6.85,20.7-12.59,30.1-4.07,6.68-9.25,12.12-15.73,16.51-5.15,3.49-10.52,6.41-16.32,8.64-1.97.76-4.44.35-5.89-.87s-2.57-3.61-1.9-5.61,2.58-3.23,4.57-3.96Z"/>
          <path class="cls-1" d="M144.05,155.14c-.75-1.41-1.06-2.91-.5-4.37.42-1.08,1.49-2.29,2.88-2.79,4.99-1.79,9.17-4.9,11.94-9.59,2.99-5.05,5.55-10.33,7.22-16.09,4.94-17.03,1.92-37.59-9.75-51.3-7.61-8.93-13.6-8.07-16.44-12.93-1.07-1.82-.57-3.86.51-5.35,1.17-1.63,3.24-2.04,5.32-1.51,6.08,1.53,11.52,4.81,15.83,9.51,9.9,10.8,15.49,24.51,17.04,39.02.45,4.24.42,7.89-.16,12.05-1.01,7.27-2.14,14.28-4.78,21.17-3.94,10.29-11.79,21.34-22.64,24.88-2.59.85-5.16-.23-6.48-2.71Z"/>
          <path class="cls-1" d="M136.1,129.86c-2.45-1.97-1.63-5.56-.07-7.66,7.29-9.79,9.01-23.09,2.68-30.21l-3.58-4.02c-2.01-2.26-.94-5.58,1.82-7.03,5.84-3.07,11.68,5.96,13.64,10.76,1.46,3.58,1.92,7.19,2.31,11.08.14,9.22-2.7,18.04-8.25,25.49-1.86,2.49-5.97,3.67-8.56,1.59Z"/>
        </g>
        <g>
          <path class="cls-1" d="M58.71,170.99c-5.99-4.68-11.03-10.09-17.24-14.76-1.04-1.68-1.35-3.71-1.2-5.76.39-5.33.45-10.47.16-15.79-.48-8.7.92-15.27-.74-24.1l-.29-12.28c-.17-7.03-.26-13.85,0-20.94.2-5.5-.13-10.71-.8-16.13s4.21-10.72,8.12-13.84c4.27-3.4,8.2-6.85,12.09-10.69s7.43-7.24,11.45-10.71l13.26-11.45c4.74-4.09,9.52-7.76,14.88-10.99,6.29-3.79,18.04-6.2,22.71,1.57,3.58,5.94,3.74,15.2,3.92,22.22l.36,13.92c.1,3.83-.5,7.6.08,11.38.42,2.72.8,5.16.89,7.98l1.73,52.74.22,56.07c.04,9.48-.88,18.63-2.18,27.86-.73,5.23-4.41,8.18-9.27,9.23-9.08,1.95-18.12-.36-24.56-7.16-5.74-6.05-11.89-11.42-18.48-16.57l-15.11-11.81ZM81.64,174.82c6.78,5.08,12.6,10.6,18.19,16.75,3.37,3.71,8.29,5.32,13.21,5.1,2.11-.09,3.56-1.75,3.76-3.89,1.01-10.41,1.2-20.67,1.13-31.21l-.15-21.57c-.12-17.4.16-34.45-.58-51.87l-1.69-39.89-1.1-30.68c-.06-1.79-.39-3.5-.96-5.08-1.62-4.45-7.57-.98-10.21.63-4,2.43-7.58,5.07-11.19,8.11-7.37,6.23-14.27,12.56-21.38,19.12l-18.74,17.3c-1.75,1.62-2.74,3.97-2.7,6.47l1.47,82.81c.04,2.13.98,3.64,2.46,4.9l8.89,7.57c3.63,3.1,7.14,6.08,10.95,8.93l8.64,6.47Z"/>
          <path class="cls-1" d="M29.99,156.86l-22.63.08c-2.68,0-4.58-1.82-4.95-4.46-.89-6.2-1.1-12.32-1.22-18.66-.16-8.17-.45-15.99-1.18-24.17.89-9.5,1.07-18.66.92-28.17l-.22-13.31.48-8.34c.12-2.11,1.59-3.54,3.72-3.67l15.42-.95c3.64-.22,7.16-.2,10.75-.03,2.25.11,3.83,1.45,4.97,3.36,1.11,8.11-1.68,15.62.07,24.31l.51,29.01c.11,6.37-.46,12.38.67,18.69v19.79c0,1.99-.77,4.12-2.36,5.26-1.31.94-3.1,1.26-4.94,1.26ZM24.43,146.5c1.66-.13,2.49-1.57,2.49-3.05l-.02-36.87-1.17-.55-.03-37.4c0-1.88-1.46-3.08-3.05-3.13-2.65-.07-5.06-.05-7.74.15-2.22.16-4.22,1.91-4.2,4.43l.26,44.62c.06,9.54.63,18.72,1.42,28.11.18,2.15,1.7,3.59,3.69,3.71,2.76.18,5.5.22,8.36,0Z"/>
        </g>
      </g>
    </g>
  </g>
</svg>