<?xml version="1.0" encoding="UTF-8"?>
<svg id="Layer_2" data-name="Layer 2" xmlns="http://www.w3.org/2000/svg" viewBox="0 0 238.55 291.56">
  <defs>
    <style>
      .cls-1 {
        fill: #975399;
      }
    </style>
  </defs>
  <g id="Layer_1-2" data-name="Layer 1">
    <g id="E82X7A">
      <g>
        <path class="cls-1" d="M229.94,263l2.82.74c-3.76,2.24-7.38,2.3-11.41,1.25l5.86-3.84c-4.62-.67-8.78,2.7-12.11,4.34-8.04-4.81-3,3.09-23.97,3.67-3.08.08-11.97,1.72-15.91,3.27l-.77-2.13c-.24-.67-2.95-.11-3.64.29-.63.36-.28.95-.29,2.45-1.31.02-1.56.06-1.94-.51-15.09,3.59-27.09,4.11-43.62,7.98-1.68.39-3.1,0-4.85-.98-5.36.05-11.77,4.78-17.45,3.82-4.21-.71-8.98-3.77-12.87-3.91-3.51,2.5-6.38,7.51-10.34,8.14l-19.42,3.09c-4.5.72-8.84,1.77-12.79-.45s-5.42-6.83-6.17-11.49l-8.89-55.77-11.71-63.86-3.09-18.33-2.16-12.28-2.54-14.79c-.47-2.74-1.18-5.95-1.98-8.8-2.06-7.3-2.36-14.26-3.84-21.72l-2.26-11.34c-.68-3.4-.15-7.15-.13-10.85-1.58-6.25-5.89-13.79-4-20.75,3.12-11.49,15.48-16.19,26.29-12.41,19.03,6.66,11-4.31,30.32-7.34l33.95-5.33c8.56-1.34,16.67-2.35,25.01-4.39s15.99-3.5,24.21-4.55l21.86-2.8c6.6-.85,13.36-1.81,19.57-3.12,9.01-1.9,13.54,5.7,14.6,13.19,1.42,10.1,3.19,19.66,5.23,29.59,2.08,10.06,3.09,19.64,4.46,29.75l1.6,11.83c.71,5.25,2.59,11,3.91,15.73,4.3-.98,7.85-1.08,10.33,1.08,2.6,2.26,3.04,6.68,1.33,9.93-4.33,8.24,3.54,6.17,6.02,19.23l3.04,16.01c.52,2.76-.4,6.67-2.34,8.32-2.34,1.99-5.36,2.52-9.52,3.42,1.18,8.33.71,14.2,5.16,21.16l-1.38,1.94c-.4.56,1.24,2.65,1.38,3.39,1.37,7.3,1.01,17.36,3.68,24.7l3.75,10.3c1.08,2.96,1.21,4.95-1.08,7.47l1.49,9.15,3.13-1.15,1.95,12.21c.5,3.12-.44,5.14-1.9,7.02l-6.58,8.43ZM33.82,109.89c-.75-4.41-.2-9.66-1.51-13.58-1.51-4.53-3.1-8.78-2.31-13.64.25-1.53,3.62-3.02,5-2.55,5.36,1.82,5.23,15.04,4.64,20.97-.34,3.42,2.26,6.6,2.87,9.17,2.59,10.85,4.35,21.06,4.73,31.86.7,20.02,6.42,14.3,6.38,38.91,0,2.73,1.31,7.28,2.1,10.04,1.96,6.87,2.61,13.14,3.73,20.15l3.64,22.8,8.35,47.54c9.32,3.37,11.32-10.74,24.05-7.13l10.1,2.86,92.26-14.79,8.24-2.08c6.59-1.66,13.64-1.14,20.33-3.21,4.67-1.44,7.05-6.82,5.45-11.48-9.96-28.99-6.87-36.6-11.53-62.84l-4.27-24.09-41.98,7.01c-1.88.31-5.33-1.22-6.99-2.32l-24.15-15.99c-9.54-6.32,3.17-17.73,8.46-27.03,1.52-2.66,2.57-5.18,4.44-7.14,5.19-5.43,10.86-6.5,17.9-7.21,11.24-1.12,21.57-3.11,33.11-5.07l-3.35-19.96-10.05-60.8c-.32-1.95-3.56-5.52-2.92-7.25.71-1.93,1.01-2.66,1.14-3.61.36-2.49-6.71-4.6-8.09-4.39-11.18,1.75-25.82,2.99-37.27,6-5.22,1.37-9.54,3.41-14.66,4.34l-13.85,2.51,1.81-2.72-17.25,2.92,2.23,3.27c-5.69.5-12.08,1.47-18.25,2.45l-10.74,1.71c.51-4.01-18.68,2-19.08,3.34l6.42-.2-16.46,4.85,6.84-6.75c-6.3-.66-12.74,14.11-17.79,10.88-2.73-1.75-4.76-2.89-7.22-3.46,6.45,17.63,4.33,15.82,6.26,31.5l.98,7.92c.19,1.52-2.22,3.22-4.1,2.74-1.47-.37-3.12-2.71-3.17-4.4-.22-8.19-4.42-12.27-2.25-12.51l2.41-.27-1.7-7.75c-1.88,1.82-2.71,2.61-1.6,1.45l-1.15-3.41c-.12-.35-.07-.31.37.01l1.88,1.37c-1.03-3.43-2.29-6.39-2.81-9.07l-1.54-7.98c-4.23.77-9.08,1.74-12.8,2.96-.99,1.86-1.72,5.81-1.37,7.79l5.19,28.59,2.26,9.64-2.57-2.84,2.23,13.17c.43.69,3.37.71,4.3.45,2.35-.66,4.62.13,4.93,2.35.74,5.28-6.75,1.34-5.68,8.44.9,5.97,1.29,11.3,1.52,17.43.31,8.35,7.55.65,9.25,5.84,1.48,4.51-6.37,3.16-6,5.95l3.16,23.59c1.24.34,3.08.44,4.98.29,1.71-.14,3.6,1.85,3.64,3.52.09,4.02-7.24,1.4-6.63,4.83l4.29,24.23,5.78-.19c1.07-.03,2.59,2.57,2.09,3.54s-2.56,2.19-3.67,2.53l-3.07.93c-.43.13.04,1.94.13,2.46l3.54,20.87c.15.89.59,2.62,1.24,2.54l2.79-.37c1.2-.16,3.23.77,3.63,2.16,1.14,3.88-7.11,2.2-6.54,5.35l9.18,51.14c1.49,8.31,12.75,3.6,17.75,2.61l-1.67-8.28-10.9-59.42-3.76-23.23-2.99-16.69-4.62-26.59-2.23-12.76-3-12.26-2.47-14.5ZM173.18,161.61c11.42-1.78,21.32-3.77,31.91-6.15l16.46-3.7c1.64-.37,4.25-.72,4.76-1.83.78-1.7.63-2.91.36-4.43l-2.43-13.68c-2.01-11.29-10.15-13.04-4.19-21.95.87-1.31,1.16-4.79.02-5.79-1.25-1.09-3.82-1.17-5.57-.87l-41.43,6.94c-5.28.88-12,1.82-13.49,8.32l-.71,3.1c-.14.63-3-.3-2.87.33l.8,3.71c.39,1.82-5.59,2.13-4.52,3.34l1.55,1.77c.39.44-1.11,1.66-1.43,1.19l-2.1-3.06c-1.05,5.01-2.82,9.57-7.29,11.86l10.53,8.37c-.39-.31,16.8,10.98,19.64,12.53Z"/>
        <path class="cls-1" d="M96.8,105.6c-.54-.09-1.44,2.4-.95,2.59l3.15,1.25,1.05,5.81c.21,1.15-.05,4.15-.99,4.84s-3.31,1.69-3.45,1.62l-4.11-8.03-2.72,1c.11-2-.12-3.63.46-3.85l2.73-1.05c-.05-.95-2.64-3.86-3.75-3.43-9.28,6.86-9.96.83-21.7,5.6-.49-6.59-3.67,1.09-9.31.45-1.26-.14-2.72-2.8-2.51-4.05.29-1.7,2.9-3.1,4.95-3.36l18.31-2.34c2.72-.35,7.94.63,10.25-2.9,1.86-2.84,1.53-10.1-1.76-11.93-3.64-2.03-9.72.65-12.98,1.74l.99,6.73c.17,1.14-2.02,3.28-3.16,3.3s-2.96-1.92-3.14-3.09l-.97-6.48-10.97,1.28c-.95.11-3.08-.5-3.78-1.07-.85-.68.94-3.34,2.05-3.58l11.85-2.58-2.57-14.6-11.31,2.4c-1.72.37-4.36-.73-4.71-2.18-.67-2.82,1.25-4.5,4.03-4.83,3.4-.41,6.48-1,9.8-1.87l-1.56-12.14c-.23-1.77,1.59-4.43,3.23-4.58,2.22-.2,4.87,1.79,5.09,4.01l.99,10.14,9.41.92c4.25-3.72,3.82-10.24,1.45-15.11-.5-1.02,1.7-3.65,2.81-3.56s2.93.79,4.31,1.61c1.1.66-.5,3.75-.11,5.08l2.71,9.15,14.37-2.7-1.84-12.23c-.18-1.22,1.23-3.53,2.36-3.64s3.53,1.58,3.7,2.78l1.84,13.11,11.45-1.1c.46-.04,1.57.71,1.63,1.07.09.53-.72,2.36-1.26,2.47l-11.34,2.15.62,7.94c.04.56-.75,2.73-1.14,2.39s-1.5-1.43-1.59-1.9l-1.71-8.12-17.91,3.09,1.71,16.11,13.13-1.27,15.75-2.35c2.71-.4,5.6-2.08,7.74,1.81l-34.94,6.61c-1.14,2.98.36,7.92,2.53,9.88l-.78,2.86c-.72,2.62,7.33-.51,10.09.67,1.28.55,2.39,3.65,1.79,5.06-1.1,2.58-6.77,2.82-9.31,2.39ZM85.2,65.57c-3.26,1.73-3.72,2.18-4.47,2.24l-10.61.85c-.33,4.83,1.18,10.37,3.49,13.24,5.19-.57,8.38-.78,14.39-.85l-2.79-15.48Z"/>
        <path class="cls-1" d="M119.58,248.78c.11.74-2.57,1.37-2.79.4l-1.9-8.72-14.71,2.96c-2.67,3.46.72,2.75-.69,8.77-.18.77-2.47,1.17-3.07.66-2.33-1.98-1.71-7.09-3.15-6.68l-4.41,1.27-2.21-1.85c-.61-.51-1.5,1.74-1.99,3.26l-4.99.38c-1.44.11-3.67-4.19-2.57-5.08l5.31-3.4c-8.23-8.96,3.9,1.76,8.3-1.97,1.25-1.06.35-4.18-.78-5.83l2.04-1.05c.59-.31-.35-1.64-.98-2.6l-1.99-3.02c-.96-1.46-4.86,1.89-13.96-.57-.9-.24-.8-2.64-.5-3.52.98-2.89,7.11-.34,14.51-3.45l-2.24-12.47c-.22-1.23,2-3.38,3.23-3.34,1.45.04,2.63,1.78,2.87,3.39l1.76,11.73,8.02-.5c.62.65,1.53,3.85.74,4.57-.96.87-3.47,1.31-5.86,1.89-.78,3.88.55,10.21,2.1,13.82,10.21-4.1,6.35,0,13.51-3.64-4.47-3.31-1.66-6.61-2.45-9.83-.94-3.86-5.19-17.24.11-17.9,7.84-.97,4.81,26.27,8.21,29.35,7.54.76,13.99-4.03,21.74-.95-7.59,3.65-14.99,3.19-22.52,5.19l1.3,8.7Z"/>
        <path class="cls-1" d="M173.08,254.72l42.6-7.55c1.1-.2,3.56-1.84,3.47-2.75s-1.32-2-2.71-3.36l1.72-2.95-3.37-1.93c-.81-.46.35-2.14.97-4.04l-1.71.33c-.42.08-1.75.19-1.64-.19.12-.42.51-1.96.8-2.22l1.88-1.72c.49-.45-1.42-1.93-1.52-2.73l-2.45-19.42-.76-6.35c-.1-.79,1-2.82,1.51-3.45,4.52-5.5,6.58,17.8,6.47,17.26l6.92,33.04c.27,2.7-4.07,5.32-6.29,5.63l-26.81,3.8-18.2,1.39c-.45.03-1.74-.11-2.11-.16-.57-.07.51-2.51,1.25-2.64Z"/>
        <path class="cls-1" d="M178.91,20.48l-11.68,1.02-14.91,2.1-17.95,1.16c-.54.03-1.71-.03-2.09-.05-.57-.02.41-2.45,1.05-2.57l36.57-6.79c.47-.09,2.17-1.86,2.01-2.24-.22-.53,1.07,1.07,1.82,1.96l2.43-3.76c.73.34,2.01,1.47,2.44,1.06l2.11-2.02c.3-.29,1.69.77,1.41,1.08l-2.05,2.24,5.85,2.38,3.5,26.59c.12.88-.01,2.71-.39,3.43-.45.87-2.89,1.2-3.76.76s-1.31-2.1-1.5-3.46c-1.08-7.69-2.95-15.6-4.87-22.87Z"/>
        <path class="cls-1" d="M192.09,61.66c.95,2.71-.12,5.18-3.17,5.41-1.12-3.22-2.33-8.49-2.6-11.8-.07-.8,3.03-1.47,3.28-.75l2.5,7.14Z"/>
        <path class="cls-1" d="M191.28,130.61c1.28,1.6,1.99,5.53,2.58,7.77-2.45,4.08-4.9,7.15-8.11,8.63-7.66,3.53-17.89-1.32-20.08-8.3-.8-2.55.23-7.69,2.24-10.11,6.14-7.41,17.18-5.73,23.37,2.01ZM179.91,143.49c2.32.42,6.19-2.28,6.75-4.33.9-3.32-3.29-10.05-7.25-10.59-1.46-.2-5.01,1.27-5.54,2.66-1.71,4.42.35,11.22,6.05,12.26Z"/>
      </g>
    </g>
  </g>
</svg>