<?xml version="1.0" encoding="UTF-8"?>
<svg id="Layer_2" data-name="Layer 2" xmlns="http://www.w3.org/2000/svg" viewBox="0 0 540.46 449.68">
  <defs>
    <style>
      .cls-1 {
        fill: #6de09e;
      }
    </style>
  </defs>
  <g id="Layer_1-2" data-name="Layer 1">
    <g id="fkn3ze">
      <path class="cls-1" d="M38.95,272.55c-3.85-6.04-11.82-4.98-14.71-10.31L0,217.67l9.37-.64c.9-6.97,5.19-12.5,12.71-11.44,9.02,1.28,8.75-12.34,24.91-12.43,13.91-.08,26.7.22,34.47,13.29l23.06,38.84c13.87,23.36,16.86,21.11,25.67,33.39l33.32,46.47c6.73-5.35,12.07-9.96,17.8-15.11l14.72-13.22c5.17-4.65,8.74-10.26,9.8-17.19,16.06-15.12,9.73-15.62,28.6-32.66,6.04-5.45,11.27-12.01,16.07-18.68,7.94-11.05,16.8-20.09,26.06-30.04l35.67-38.33,40.58-43.33c4.77-5.09,8.52-10.32,11.38-16.61,15.59-6.59,17.49-16.66,31.83-24.1,3.91-13.92,16.61-15.38,24.01-22.19,5.02-4.62,9.13-10.18,13.43-15.5,2.64-3.26,6.61-2.99,9.85-4.86,6.35-3.65,30.29-28.13,43.83-28.61l13.59-.48c10.52-.37,26.68-10.29,37.02,1.45,4.07,4.62,3.43,11.05-1.1,14.71-3.66,2.96-6.04,6.83-7.31,11.46-5.88,21.41-18,20.09-16.09,26.43,4.5,14.96-11.76,12.18-27.18,36.33-6.89,10.78-15.88,18.73-25.64,26.57-5.26,4.23-7.96,12.59-14.16,15.68-9.1,4.54-16.05,10.1-20.39,19.8-8.23,18.39-14.41,10.97-23.68,26.11-5.18,8.46-11.41,15.71-18.71,22.51-7.87,7.32-15.44,14.3-23.7,21.16-6.92,5.75-12.66,11.88-17.33,19.62-12.56,20.83-32.94,36.53-40.86,50.01l-15.25,25.94c-9.7,16.49-25.57,28.67-35.29,45.37l-15.14,26.03c-7.73,13.29-15.35,26.13-22.29,39.65-4.74,9.23-13.79,13.17-23.75,13.01-3.55-.06-7.86,1.3-11.26,2.27-17.05,4.89-24.99-5.12-35.68-14.64-6.97-6.21-14.26-12.12-18.35-20.85-14.69-31.38-31.33-40.5-49.98-74.03-5.48-9.84-12.65-18.41-17.4-28.62-5.99-12.88-10.56-25.64-18.26-37.71Z"/>
    </g>
  </g>
</svg>