<?xml version="1.0" encoding="UTF-8"?>
<svg id="Layer_2" data-name="Layer 2" xmlns="http://www.w3.org/2000/svg" viewBox="0 0 215.13 129.08">
  <defs>
    <style>
      .cls-1 {
        fill: #975399;
      }
    </style>
  </defs>
  <g id="Layer_1-2" data-name="Layer 1">
    <g id="mBMeKP">
      <g>
        <path class="cls-1" d="M31.01,75.25l-3.78,9.64c-3.69,9.41-2.96,17.8-4.91,27.9-.63,3.26-2.62,5.71-5.81,6.72-2.01.64-4.12.65-6.25.61-6.95-.12-9.43-5.84-9.92-11.9-.21-2.57-.46-5.09-.26-7.71,1.5-19.5,6.98-38.9,17.48-55.52C49.07-4.84,116.42-12.49,164.31,18.14c20.96,13.41,36.58,33.45,44.48,57.07,4.05,12.11,6.3,24.83,6.34,37.53,0,3.29-2.75,5.73-5.52,6.36-2.05.46-3.9.58-5.93.41l-7.81-.66c-2.9-.25-5.12-2.28-5.67-5.19l-2.65-14.1c-1.99-10.59-5.11-20.74-9.67-30.52-19.07-40.93-70.25-54.5-109.54-35.32-17.47,8.53-30.22,23.4-37.34,41.55ZM71.68,26.9c8.6-3.37,17.15-5.47,26.18-7.13-.72-4.36-.67-8.52.09-12.95-4.7.14-9.06.55-13.65,1.32-12.72,2.16-24.51,7.15-34.94,14.72-4.66,3.4-8.79,7.05-12.91,11.28l8.43,8.95c7.91-7,16.82-12.28,26.81-16.19ZM105.36,19.34l-.56-12.05-2.32.02v12.17s2.88-.14,2.88-.14ZM164.59,41.12l7.7-9.18c-6.86-5.29-13.92-9.8-21.59-13.61-12.79-6.34-26.47-10.09-40.72-11.04l.02,12.26c12.51.89,24.24,4.17,35.32,9.59,6.92,3.35,13.17,7.47,19.28,11.99ZM170.43,45.42l8.16-7.44-2.41-2.11-7.78,8.86c.34.37,1.61,1.06,2.02.68ZM37.8,44.96c1.29.91,2.29,2.12,4.23,1.55l-8.3-9.21-2.22,3.21,6.28,4.45ZM209.91,109.01c.07-1.73-.22-3.25-.52-4.82-2.9-15.06-6.65-28.46-13.65-42.19-3.82-7.33-8.2-14.02-13.8-20.38l-8.8,7.72c7.52,10.09,13.1,21.17,17.01,33.13,3.25,9.95,5.26,19.96,6.51,30.46,4,.59,13,2.62,13.25-3.91ZM17.14,109.78c.71-14.57,4.1-26.04,9.84-39.14,2.91-6.4,6.07-12.4,9.59-18.5l-7.67-8.56c-7.81,10.4-13.72,21.7-17.59,34.01-3.24,10.64-4.81,21.52-4.05,32.59.1,1.46.72,3.06,1.96,3.69,1.89.96,4.46.89,6.24-.32,1.05-.71,1.6-2.36,1.67-3.78Z"/>
        <path class="cls-1" d="M121.55,122.12c-6.63,7.73-17.65,9.07-26.08,3.78-5.67-3.56-8.57-9.74-7.24-16.44.96-4.92,3.84-9.26,8.33-11.6,4.25-2.22,9.05-1.93,13.48-.03l13.37-17.13c5.89-7.55,12.37-14.33,19.25-21.09,1.12,1.16,1.43,2.74.77,4.13l-7.97,16.91c-3.35,7.11-7.25,13.7-11.34,20.37-1.03,1.67-.89,3.33-.17,5.07,2.22,5.4,1.52,11.47-2.4,16.03ZM116.58,107.91c-.79-1.64-1.48-3.24-2.16-4.98-5.85,3.74-10.91-5.37-16.48,2.97-2.42,3.63-2.13,8.13.76,11.37,3.13,3.5,7.77,4.38,12.2,3.01,5.28-1.63,8.15-7.24,5.68-12.37Z"/>
      </g>
    </g>
  </g>
</svg>