<?xml version="1.0" encoding="UTF-8"?>
<svg id="Layer_2" data-name="Layer 2" xmlns="http://www.w3.org/2000/svg" viewBox="0 0 315.07 284.02">
  <defs>
    <style>
      .cls-1 {
        fill: #180d49;
      }
    </style>
  </defs>
  <g id="Layer_1-2" data-name="Layer 1">
    <g id="XNF7Z4">
      <g>
        <path class="cls-1" d="M204.75,271.34l-48.46,12.68-46.46-12.87c-18.8-5.21-31.07-22.35-30.88-41.73.18-17.51-3.62-33.47-10.45-49.38-11.72-27.3-16.22-56.34-11.32-85.77l7.28-43.74c5.63,6.62,8.87,12.82,14.95,17.67,11.63,9.28,28.3,6.7,36.59-4.64,8.76-11.98,6.2-27.91-6.29-36.97.03-.87,2.46-2.44,3.78-2.44l93.33.29c-14.45,11.41-17.49,27.47-7.12,40.25,9.75,12.02,28.45,12.2,39.3.31,4.34-5.13,7.54-9.85,11.56-15.89,1.08,1.75,2.51,4.44,2.8,6.25l6.41,40.93c4.55,29.06-.34,57.61-11.81,84.49-6.53,15.31-10.3,30.9-10.12,47.51.22,20.84-12.72,37.72-33.1,43.05ZM147.32,129.48c-.49-3.88-5.02-5.01-8.17-3.91-2.47.86-3.68,3.92-3.99,7.66l-32.03-.03-8.23-18.96,50.61,5.08c3.02.3,6.45-1.8,6.91-4.84l2.52-16.56c.57-3.73-1.84-7-5.05-7.39-3.9-.47-6.56,1.95-7.19,5.88l-1.6,10.02-56.64-5.43c-3.95-.38-6.72,5.01-5.42,7.94l14.69,33.18c.72,1.62,3.8,3.39,5.59,3.38l42.25-.03c7.76,0,6.41-10.85,5.76-16ZM180.27,145.47h43.29c1.54.01,4.51-2.23,5.14-3.66l14.38-32.57c.72-1.63-.03-5.02-.96-6.11s-3.87-2.27-5.61-2.1l-55.25,5.49-2.45-12.85c-.51-2.69-5.59-3.72-7.64-2.93-2.79,1.08-4.28,4.34-3.8,7.55l2.41,16.09c.41,2.71,3.66,5.23,6.58,4.94l50.85-4.99-8.29,19.01-31.83-.23c-.44-4.45-1.93-7.45-5.22-7.97-2.43-.39-6.77,1.34-7,4.25-.37,4.63-2.1,16.08,5.4,16.08ZM190.09,257.54c8.04-.03,14.21-7.92,14.26-14.96l.16-19.37c.02-2.92-3.13-5.82-5.87-5.83l-15.84-.03-.17-8.01c-.12-5.74-4.55-9.82-10.18-9.82l-27.05-.04c-6.48,0-10.45,4.53-10.66,10.93l-.23,6.95-15.28.05c-2.68,0-5.75,3.03-5.7,5.84l.32,20.19c.14,8.67,8.37,14.34,16.54,14.31l59.7-.2Z"/>
        <path class="cls-1" d="M59.63,192.85c-25.27-10.73-43.09-31.5-52.06-56.74C1.57,118.6-.29,101,.04,82.34c.57-18.6,3.21-36.53,7.78-54.16,9.93,22.79,22.68,42.27,37.79,60.98-5.14,29.7-2.37,59.13,8.15,86.86,2.15,5.41,4.04,9.65,5.87,16.83Z"/>
        <path class="cls-1" d="M257.13,192.18l4.38-12.59c12.1-29.28,14.99-60.7,9.41-92.26,14.73-18.2,26.35-37.12,36.36-58.72,5.01,18.69,7.22,36.3,7.79,54.74.14,16.99-1.33,33.04-6.37,49.16-8.26,26.46-26.19,48.12-51.56,59.67Z"/>
        <path class="cls-1" d="M229.11,57.53c-5.71,5.36-13.83,5.28-18.91.48s-6.18-13.97-.34-19.2c13.22-11.84,25.16-23.99,35.65-38.81,2.84,19.58-2.05,43.54-16.39,57.53Z"/>
        <path class="cls-1" d="M85.77,57.47c-14.44-14.28-19.47-37.7-16.28-56.8,10.81,14.16,21.17,25.43,33.38,36.17,6.66,4.68,7.95,13.26,3.15,19.57-4.6,6.03-13.98,7.25-20.25,1.06Z"/>
        <path class="cls-1" d="M192.35,242.02l-.2-12.48-15.88-.14c-3.05-.03-5.72-2.74-5.77-5.88l-.21-11.8-22.95.03-.36,12.62c-.09,3.06-3.46,5.19-6.37,5.18h-14.71s.67,15.79.67,15.79l61.88.15c1.3,0,3.91-2.19,3.89-3.47Z"/>
        <path class="cls-1" d="M192.35,242.02c.02,1.28-2.59,3.48-3.89,3.47l-61.88-.15-.67-15.8h14.71c2.91.01,6.28-2.12,6.37-5.18l.36-12.62,22.95-.03.21,11.8c.05,3.13,2.72,5.85,5.77,5.88l15.88.14.2,12.48Z"/>
      </g>
    </g>
  </g>
</svg>