<?xml version="1.0" encoding="UTF-8"?>
<svg id="Layer_1" xmlns="http://www.w3.org/2000/svg" xmlns:xlink="http://www.w3.org/1999/xlink" version="1.1" viewBox="0 0 512 512">
  <!-- Generator: Adobe Illustrator 30.1.0, SVG Export Plug-In . SVG Version: 2.1.1 Build 136)  -->
  <defs>
    <style>
      .st0 {
        fill: url(#linear-gradient);
      }

      .st1 {
        fill: #cabdf0;
      }
    </style>
    <linearGradient id="linear-gradient" x1="256" y1="512" x2="256" y2="0" gradientUnits="userSpaceOnUse">
      <stop offset="0" stop-color="#3a1044"/>
      <stop offset="1" stop-color="#000"/>
    </linearGradient>
  </defs>
  <rect class="st0" width="512" height="512" rx="80" ry="80"/>
  <g>
    <path class="st1" d="M97.7,224.6c0,.9,0,2,0,3.1,0,1.1,0,2.2,0,3.3s0,2.1.1,3c0,.9.3,1.8.8,2.4-.3.6-.4,1.2-.5,2,0,.8-.2,1.5-.4,2.2-.2.7-.5,1.2-1,1.5-.5.4-1.3.4-2.3.2-.3-.6-.5-1.2-.8-1.8-.2-.6-.5-1.2-.8-1.8-.3-.6-.6-1-1-1.5-.4-.4-1-.7-1.6-.9-.2-1.6-.8-2.6-2-3.3-1.2-.6-2.5-.9-4.1-1-1.6,0-3.2,0-5,.3-1.7.2-3.3.4-4.6.5-.4.7-.9,1.4-1.3,2.1-.4.8-.8,1.5-1.2,2.2-.4.7-.9,1.4-1.3,2-.5.6-1,1.2-1.7,1.7.9.6,1.6,1.3,2,2.3.4,1,.9,2,1.5,2.9.5.9,1.2,1.7,2.1,2.3.9.6,2.1.8,3.8.6,2.8,2.7,6.8,4.4,11.8,5,0,.4.2.8.5,1s.5.5.8.7c.3.2.5.5.8.7.3.3.4.6.5,1,1.2-.2,2,0,2.6.4.6.4,1,1,1.4,1.6.4.6.7,1.2,1.1,1.8.4.6.9,1,1.7,1.3,0,.9,0,1.8.2,2.4.2.7.4,1.3.8,1.9.3.6.6,1.2.9,1.8.3.6.5,1.2.7,2,0,.6,0,1.1-.1,1.4-.1.3-.3.6-.4.8-.1.2-.2.4-.1.7,0,.2.2.5.6.9-.4,0-.7.2-.8.5-.1.3-.2.7-.1,1.1,0,.4,0,.9.1,1.4,0,.5,0,.9,0,1.2-1.3,1-2.3,2.2-3.2,3.6-.9,1.4-1.8,2.7-2.7,4-1.3.2-2.5.4-3.6.6-1.1.2-1.9.9-2.3,2-.2-.2-.6-.3-1.1-.4-.5,0-1.1,0-1.7,0-.6,0-1.2.2-1.8.4-.6.2-1,.4-1.4.7-1.5-.2-3.2-.3-5.2-.4-2-.1-4-.2-6.2-.2-2.2,0-4.4,0-6.6,0-2.3,0-4.4.3-6.5.5-.3-1.4-.4-2.9-.4-4.5s0-3.1,0-4.8c0-1.6,0-3.3,0-5,0-1.7-.2-3.4-.5-5.2.5-.5,1.2-.8,2.1-.8.9,0,1.9,0,3,0-.1,1.1.1,1.8.7,2.2.6.4,1.2.8,1.8,1.1.2,2.3.9,4.1,2.2,5.4,1.2,1.3,2.8,2.3,4.6,2.9,1.8.6,3.9.9,6.2.8,2.3,0,4.6-.2,6.9-.6,1.3-1.1,2.5-2.2,3.7-3.3,1.2-1.1,2.1-2.6,2.6-4.3.1-.3.1-.5,0-.6-.1,0-.3-.1-.4-.2-.2,0-.3,0-.4-.2-.1-.1-.1-.3,0-.7-.1-.3-.1-.5,0-.6.1,0,.2-.2.4-.2.2,0,.3-.1.4-.2.1,0,.1-.3,0-.6-.7-2.6-2-4.5-4-5.8-1.9-1.3-4.3-2.2-7-2.7,0-.4,0-.7-.2-.8-.2-.2-.4-.3-.6-.5-.2-.1-.4-.3-.6-.5s-.3-.4-.3-.8c-3.4-.6-6.6-1.5-9.5-2.7-2.9-1.2-5.4-2.8-7.4-4.9.2-.6.2-1.2,0-1.7-.2-.5-.5-1-.8-1.5-.3-.5-.7-1-1-1.5-.4-.5-.6-1.1-.7-1.7-.2-1.1-.3-2.2-.2-3.3,0-1.1.3-2.2.6-3.3.3-1,.7-2,1.3-2.8.5-.8,1.1-1.5,1.8-2.1-.2-.8-.2-1.3-.1-1.7,0-.4.3-.7.5-.9.3-.2.6-.4,1-.6.4-.2.9-.5,1.5-1,.6-.4,1.1-.9,1.7-1.5.6-.5,1.2-1,1.8-1.5.7-.4,1.4-.8,2.3-1,.9-.3,1.9-.3,3-.3,1.9-.3,3.7-.5,5.5-.6,1.8,0,3.6,0,5.4,0,1.8,0,3.7,0,5.7,0s4,0,6.3-.3Z"/>
    <path class="st1" d="M152,222c.6-.2.9,0,.8.4,0,.5,0,.9,0,1.3,4,.1,7.4.8,10.1,2,2.8,1.2,4.7,3.2,6,6,2.5,1.4,4.5,3.3,6.1,5.7,1.6,2.4,2.7,5.1,3.5,8.2.8,3.1,1.2,6.4,1.2,10,0,3.6-.2,7.3-.7,11.1-.3-.1-.5-.1-.6,0,0,.1-.1.3-.2.5,0,.2,0,.3-.2.5s-.3.1-.7,0c.2,1.8,0,3.2-.5,4.3-.5,1.1-1.1,2.1-1.8,3-.7.9-1.4,1.8-2.1,2.8-.7.9-1.2,2-1.5,3.4-2,1-4.1,2.1-6.3,3.4-2.2,1.3-4.6,2.3-7,3.3-2.5.9-5.1,1.5-7.9,1.9-2.8.3-5.8,0-9-.9-.3-.1-.6-.1-.7,0-.1.1-.2.3-.2.4,0,.2,0,.3-.2.4-.1.1-.3.1-.7,0-.9-.5-1.9-1-2.8-1.4-.9-.4-2.3-.5-3.9-.2-1.3-.6-2.5-1.3-3.5-2.2-1.1-.8-2.1-1.7-3.2-2.5-1-.9-2.1-1.7-3.2-2.5-1.1-.8-2.3-1.5-3.6-2.1,0-.8,0-1.5-.4-2-.3-.5-.7-.9-1-1.4-.4-.4-.7-.9-.9-1.5-.3-.6-.3-1.3-.1-2.3-1.4-.7-2.3-1.8-2.8-3.1s-.8-2.8-.9-4.4c0-1.6-.1-3.2,0-4.9,0-1.7-.1-3.2-.5-4.5.6-6.8,2.3-12.5,5-17,2.7-4.6,6.8-7.8,12.3-9.7.5-1.3,1.3-2.2,2.5-2.7,1.1-.5,2.4-.8,3.8-.9,1.4-.1,2.8-.2,4.3-.2,1.4,0,2.7,0,3.8-.4.5.2,1.1.4,1.9.4.8,0,1.6,0,2.4,0,.8-.1,1.6-.3,2.3-.7.7-.3,1.2-.8,1.5-1.4ZM130.1,234.7c.2.7.1,1.2-.1,1.5-.3.3-.6.6-1,.8-.4.2-.8.4-1.3.5-.4.2-.8.4-1,.7-.3.3-.4.7-.5,1.2,0,.4-.1.9-.2,1.3-.1.4-.3.8-.5,1.2-.2.3-.7.5-1.2.6-.5,1.9-.9,4.1-1.3,6.6-.3,2.5-.5,5-.5,7.5s.3,4.9.8,7.1c.5,2.2,1.4,4,2.7,5.3,0,.3-.2.5-.5.5-.3,0-.4.3-.3.7,1.3,1.4,2.6,2.8,3.9,4.2,1.3,1.3,2.5,2.8,3.7,4.3.7.2,1.5.4,2.3.5.8,0,1.7.2,2.5.3.8.1,1.5.3,2.2.6.6.3,1.2.7,1.5,1.2h13.5c.4-.8,1-1.3,1.9-1.5.9-.3,1.9-.3,3.1-.2.3-.4.7-.8,1-1.3.3-.5.7-.9,1-1.3.4-.4.8-.8,1.3-1,.5-.3,1.1-.4,1.8-.5.2-2.1,1.3-3.3,3.4-3.4-.1-1.5,0-3,.3-4.6.3-1.6.6-3.1.9-4.7.3-1.6.4-3.1.5-4.6,0-1.5-.3-2.9-.9-4.3,0-.2.2-.3.3-.3.1,0,.3-.1.4-.2.1,0,.2-.2.2-.4,0-.2,0-.4,0-.8-.8-1.8-1.5-3.7-2.1-5.7-.6-2-1.3-3.9-2.1-5.8-.3,0-.6,0-1,0-.4,0-.6,0-.7-.4-.3-1-.7-1.8-1.4-2.3-.6-.6-1.3-1.1-2.1-1.5-.8-.5-1.5-.9-2.3-1.4-.8-.5-1.3-1.1-1.8-1.9-1.2.2-2.3.1-3.2-.3-.9-.4-1.8-.8-2.6-1.3-.8-.4-1.7-.8-2.5-.9-.8-.2-1.7.1-2.8.8-.3-.7-.8-1-1.5-1s-1.4,0-2.1.3c-.7.2-1.4.3-2,.4-.6.1-1,0-1.2-.5-.7.4-1.3.8-1.9,1.3-.6.5-1.2.9-1.8,1.3-.6.4-1.3.8-2.1,1.1-.8.3-1.7.5-2.7.5ZM128.4,232.2v-1.7h-1.8c-.3,1.4.2,2,1.8,1.7ZM173.2,273.5v-1.7h-1.8c.2.9.8,1.5,1.8,1.7Z"/>
    <path class="st1" d="M221,225.9c1.8.5,3.7.8,5.7.9,1.9.1,3.9.2,5.8.2s3.7,0,5.5,0c1.8,0,3.5.2,5,.6.1,1.1.1,2,0,2.9,0,.9-.4,1.6-.9,2.1-.7,0-1.3,0-2,.1-.7,0-1.3.1-1.8.3-.6.1-1,.4-1.4.7-.4.3-.6.8-.7,1.5-.4.2-.8.3-1.3.3-.5,0-1,.1-1.4.3-.4.1-.8.3-1.1.6-.3.3-.4.7-.3,1.3-.4.1-.7,0-.7-.3,0-.3-.2-.5-.5-.5-.4.7-.9,1.6-1.3,2.6-.4.1-.7,0-.7-.3,0-.3-.2-.5-.5-.6-1.8,2.3-3.9,4.3-6.3,6-2.4,1.7-4.7,3.5-6.8,5.4,0,.4,0,.8.1,1,.1.2.3.4.5.6.2.2.3.4.4.7,0,.3,0,.7-.1,1.2.8.1,1.4.4,1.8.8.4.4.8.9,1.2,1.4.4.5.8,1,1.2,1.4.4.4,1,.8,1.7.9.2,1.6.7,2.8,1.5,3.8.8.9,1.7,1.8,2.6,2.6.9.8,1.8,1.6,2.7,2.5.8.9,1.4,2,1.7,3.5,1.1.3,1.9.8,2.5,1.6.6.8,1.1,1.7,1.5,2.6.5.9,1,1.8,1.6,2.5.6.8,1.6,1.2,2.8,1.4.3.7.7,1.2,1.3,1.7.6.4,1.2.8,1.8,1.2.6.3,1.3.7,2,1,.7.3,1.3.7,1.8,1.2v4.3c-.4-.2-.8-.2-1-.1-.2,0-.4.2-.5.3-.1.1-.3.3-.4.4-.1.1-.4.2-.7.2-1.2-.3-2.5-.6-3.8-.7-1.3-.1-2.7-.2-4-.1-1.3,0-2.6.1-3.9.3-1.3.1-2.4.3-3.5.5-.3-.3-.8-.6-1.4-.7s-1.2-.2-1.9-.2-1.4,0-2.2,0c-.8,0-1.5,0-2.1,0-.2-.9-.2-1.6,0-2.3.1-.6.4-1.1.8-1.5.4-.4.8-.6,1.3-.8.5-.2,1.1-.4,1.7-.5.3,0,.4,0,.5-.3,0-.2,0-.5,0-.8s0-.5,0-.6c0-.2.3-.2.8,0-.8-1.8-1.6-3.6-2.5-5.2-.9-1.6-2-3-3.4-4.1v-2.2c-1-.5-1.8-1.2-2.3-2-.6-.9-1.1-1.8-1.7-2.7-.6-.9-1.2-1.8-1.8-2.5-.6-.8-1.5-1.3-2.7-1.6.2-.7.1-1.1,0-1.4-.2-.3-.5-.5-.8-.7-.3-.2-.5-.4-.8-.7-.2-.3-.2-.8,0-1.4h-2.1c-.6,1.5-.9,3.3-1.1,5.3-.2,2-.3,4-.3,6.1,0,2.1.1,4.2.3,6.3.2,2.1.4,4,.6,5.6.7.4,1.3.9,2,1.3.7.4,1.3.9,1.8,1.5.5.6.9,1.3,1.2,2.1.2.8.3,1.9.1,3.2-.4-.1-1-.1-1.6,0-.6,0-1.3.1-1.9.2-.6,0-1.1,0-1.6,0-.4-.1-.7-.4-.8-.8-1.2.7-2.4,1-3.8,1-1.4,0-2.8-.3-4.3-.5-1.4-.2-2.9-.4-4.3-.5-1.4-.1-2.6.2-3.8.9-.6-.6-.9-1.4-.9-2.5,0-1.1,0-2.3,0-3.4,1.8,0,3.2-.3,4.2-1,1-.7,1.7-1.7,2.1-2.8.4-1.1.7-2.4.8-3.9,0-1.5,0-3,0-4.5s0-2.9.2-4.3c.1-1.3.5-2.5,1-3.4-.3-.2-.6-.4-.7-.8-.1-.4-.4-.5-1-.5.1-.4.1-1,0-1.6,0-.6-.1-1.3-.2-1.9,0-.6,0-1.1,0-1.6.1-.4.4-.7.8-.8-.5-2-.7-3.9-.6-5.6,0-1.7.2-3.4.3-5.1.1-1.7.1-3.4,0-5.1-.1-1.8-.6-3.7-1.3-5.7,0-.5-.4-.7-1-.5-.6.1-1.1.2-1.5,0,.2-.5.2-.9,0-1.1-.1-.2-.3-.4-.5-.5-.2,0-.5-.2-.8-.2-.3,0-.5-.2-.6-.3.2-.5.4-.9.4-1.1,0-.3,0-.5,0-.6,0-.2,0-.4-.2-.7-.1-.3-.2-.7-.2-1.3.7.1,1.4.1,2.2,0,.8,0,1.6-.1,2.3-.2.8,0,1.4,0,2.1.1.6.1,1.1.4,1.5.8,1-.6,2.1-.9,3.4-.9,1.3,0,2.5,0,3.8,0,1.3.1,2.5.2,3.7.3,1.2,0,2.2,0,3-.3v3.3c-1.2-.1-2.3,0-3.2.2-.9.3-1.3,1-1.1,2.3h-1.7c-.3.9-.6,2.1-.8,3.5-.2,1.4-.2,2.8-.2,4.2s0,2.8.2,4.2c.2,1.4.4,2.5.8,3.5,1.7-.4,3.2-1,4.5-1.9,1.3-.9,2.5-1.8,3.7-2.8,1.2-1,2.4-2,3.6-3,1.2-1,2.6-1.8,4.2-2.4-.1-.7,0-1.2,0-1.7.1-.4.3-.8.5-1.2.2-.4.4-.7.6-1,.2-.3.4-.7.6-1.2-.2-.6-.4-1-.8-1.3-.4-.3-1-.4-1.8-.3.1-.8,0-1.4-.3-1.8-.3-.4-.8-.6-1.3-.8,0-.3,0-.6.2-.7.1-.1.3-.3.4-.4s.3-.3.3-.5c0-.2,0-.5-.1-1ZM198.2,235.2c.8.1,1.4,0,1.8-.3.4-.3.6-.8.8-1.3h-2.6v1.7ZM201.6,247.9v-1.7h-1.7c-.3,1.4.2,2,1.7,1.7ZM202.5,262.3c-.1-.6-.4-1-.8-1.3-.4-.3-1-.4-1.8-.3.1.6.4,1,.8,1.3.4.3,1,.4,1.8.3ZM202.5,235.2h1.7c0-.2,0-.5,0-.8,0-.3,0-.6,0-.9s0-.5-.2-.7c-.1-.2-.4-.2-.8-.2,0,.3,0,.6-.2.7-.1.1-.3.3-.4.4s-.3.3-.3.5c0,.2,0,.5.1,1ZM202.5,282.5c.3,0,.6,0,.9-.3.3-.2.5-.5.7-.8.2-.3.2-.6.1-.9,0-.3-.4-.4-.9-.5,0,.3,0,.5-.2.6-.1.1-.3.3-.4.4s-.3.3-.3.5c0,.2,0,.5.1.9ZM205,251.3v-1.7h-1.8c-.3,1.4.2,2,1.8,1.7ZM230.3,283.8c0,.2.3.3.6.4.4.1.7.2,1.1.1.4,0,.7-.2.9-.4.2-.2.2-.6,0-1,0-.2-.3-.3-.6-.4-.4-.1-.7-.1-1.1,0-.4,0-.7.2-.9.4-.2.2-.2.5,0,1ZM231.2,280.9h.8v-1.7h-.8v1.7Z"/>
    <path class="st1" d="M314.2,226.2c.3,0,.5,0,.6.2.1.1.3.3.4.4.1.1.3.2.5.3.2,0,.5,0,1-.1,0,1-.1,1.9-.5,2.6-.4.8-.9,1.4-1.5,2.1-.6.6-1.2,1.3-1.8,1.8-.6.6-1.2,1.2-1.5,1.9-.4.7-.6,1.4-.6,2.2,0,.8.3,1.8,1,2.9-.3.3-.6.7-.7,1.3-.1.6-.2,1.1-.2,1.8s0,1.2.2,1.7c.1.5.4.9.7,1.2-.5,1.2-.8,2.6-1,4.3-.1,1.6-.2,3.3,0,5,0,1.7.2,3.4.5,5,.2,1.6.4,3.1.6,4.3-.6.7-1,1.3-1.2,2-.2.7-.3,1.4-.3,2.2s0,1.6.2,2.4c.1.8.3,1.8.4,2.8-1.1.5-1.9,1.3-2.4,2.4-.5,1.1-1,2.2-1.4,3.3-.4,1.1-1,2.1-1.7,3-.7.9-1.8,1.3-3.3,1.5-1.1,1.2-2.5,2.1-4.1,2.7-1.6.6-3.7.9-6,.8-.1.3-.3.5-.5.6-.2.1-.5.2-.7.3-.2,0-.5.2-.8.3-.2.1-.4.3-.5.5h-2.1c-.7,0-1.1-.3-1.3-.8-.3-.1-.6-.1-.8,0-.2,0-.3.1-.4.2,0,.1-.2.2-.2.4,0,.1-.2.2-.4.3-.8-.3-1.5-.5-2-.7-.5-.2-1.1,0-1.8.7-.8-.2-1.6-.5-2.3-.9-.7-.4-1.4-.7-2.1-1.1-.7-.4-1.4-.7-2.2-1-.8-.3-1.7-.4-2.7-.5v-1.7c-1.1,0-1.9-.4-2.4-1-.5-.6-.9-1.3-1.3-2.1-.3-.8-.7-1.5-1.1-2.2-.4-.7-1.1-1.2-2-1.5-.2-2.7-.5-5.1-1-7.4-.5-2.3-1-4.6-1.5-6.9.6-.6.9-1.4,1-2.5,0-1.1,0-2.3-.1-3.6-.1-1.3-.2-2.4-.1-3.6,0-1.1.3-2,1-2.5-.3-.2-.6-.7-.8-1.5-.2-.8-.3-1.6-.3-2.5,0-.9,0-1.7.2-2.5.2-.8.4-1.3.8-1.5-.3-2.9-1.1-5.4-2.3-7.5-1.2-2-3-3.5-5.3-4.4-.2-1.8,0-3.2.8-4.3.9-.2,1.7-.2,2.5,0,.8.2,1.5.3,2.2.5.7.2,1.3.3,1.9.3s1.2-.3,1.8-.8c1.2.6,2.3.8,3.3.9,1,0,1.9,0,2.9-.2.9-.2,1.9-.3,3-.5,1-.2,2.2-.2,3.5-.2-.1.9,0,1.8,0,2.5.2.7.4,1.3.8,1.8-.3.8-.7,1.4-1.4,1.8-.6.4-1.3.8-2,1.2-.7.4-1.3.8-2,1.2-.6.4-1.1,1-1.4,1.8.1,1.3.1,2.6,0,4,0,1.4-.1,2.8-.2,4.3,0,1.4,0,2.8,0,4,.1,1.3.4,2.4.8,3.3-.6,1.7-.9,3.3-.8,5,0,1.7.3,3.4.6,5.2.3,1.8.6,3.5.9,5.4.3,1.8.4,3.7.2,5.6.6,1.2,1.3,2.2,2.2,3,.9.9,1.5,2,2,3.3h2.6c0,.4,0,.8.3,1,.3.2.5.3.8.4.3,0,.6.2.9.3.3.1.4.4.5.8h6.8c1.6-.2,3-.6,4-1.3,1.1-.7,2-1.5,2.9-2.4.8-.9,1.6-1.9,2.4-2.9.8-1,1.6-2,2.5-2.8-.1-1.1,0-2.1.2-3.1.3-1,.6-2,.8-3,.3-1,.4-1.9.5-2.8,0-.9-.2-1.7-.8-2.5.4-.8.7-1.7.8-2.8.2-1.1-.1-2-.8-2.7.3-.6.6-1.2.9-2,.3-.8.5-1.6.7-2.5.2-.9.2-1.8.1-2.6,0-.8-.4-1.6-.9-2.3.7,0,1,0,.9-.3,0-.2-.2-.3-.4-.5-.2-.2-.3-.4-.4-.6,0-.2.2-.3.8-.3-.5-1-.8-2.2-.9-3.7,0-1.5-.2-2.9-.5-4.2-.2-1.3-.7-2.4-1.5-3.2-.8-.8-2-1.1-3.9-.8-.2-.9-.7-1.5-1.7-1.7,0-1.1,0-2,0-3,0-.9.3-1.6.8-2.1,1.7-.2,3.3-.1,4.9,0,1.6.2,3.2.4,4.7.6,1.5.2,3,.2,4.3,0,1.4-.1,2.6-.7,3.8-1.5Z"/>
    <path class="st1" d="M343.5,225.9c.4.6.8,1.2,1.2,1.8.4.6,1.1.8,2.2.8,0,1,.3,1.8.7,2.5.4.7.8,1.3,1.3,1.9.5.6.9,1.2,1.4,1.8.4.6.8,1.4.9,2.2.8,0,1.4.1,1.9.4.5.3,1,.6,1.4,1,.4.4.8.7,1.3,1.1.4.4.9.7,1.4.9.1,1.4.5,2.5,1.2,3.3.7.8,1.4,1.6,2.3,2.3.8.7,1.7,1.4,2.5,2.1.8.7,1.4,1.6,1.7,2.8,1.5.8,2.8,1.8,4,3,1.1,1.2,2.2,2.4,3.3,3.7,1.1,1.3,2.1,2.5,3.2,3.8,1.1,1.3,2.2,2.4,3.5,3.4.4-.1.8-.4,1-1,.2-.5.3-1.1.3-1.8s0-1.3-.2-1.8c-.2-.6-.4-1-.7-1.3.4.2.7.1.8-.1,0-.3.1-.5,0-.8,0-.3,0-.5,0-.8,0-.2.3-.2.8,0-.5-.3-.8-.8-.8-1.5,0-.7,0-1.5,0-2.3,0-.8,0-1.6,0-2.3,0-.7-.4-1.2-.9-1.5.4-1.8.7-3.7.8-5.6,0-2-.1-3.8-.7-5.5-.5-1.7-1.4-3.2-2.6-4.4-1.2-1.2-2.9-1.9-5.1-2.2-.2-1.6-.1-2.8.3-3.7s1-1.7,1.9-2.2c3,.6,6.1.8,9.4.6,3.3-.1,6.8-.3,10.4-.6.7,1.1,1.1,2.1,1.4,3.2.2,1.1,0,2.3-.5,3.5-1.7-.2-3,.1-4,1-1,.9-1.7,2-2.1,3.4-.4,1.4-.6,2.8-.5,4.3,0,1.5.3,2.8.7,4-.3.8-.4,1.9-.3,3.4.1,1.5.2,3,.3,4.7.1,1.7.2,3.3.1,4.9,0,1.6-.3,2.9-1,3.9.1.9.2,1.9.4,2.9.1,1.1.2,2.2.3,3.3,0,1.1,0,2.3,0,3.3s-.3,2.1-.6,3.1c.3,1.3.5,2.6.7,4,.2,1.4.3,2.7.4,4,0,1.3.1,2.5,0,3.6,0,1.1-.2,2-.4,2.8h-7.6c-.5-1.2-1.4-2-2.6-2.5.2-.7.2-1.4.1-1.9,0-.6-.2-1.1-.3-1.5-.1-.4-.2-.9-.4-1.3-.2-.4-.2-1-.2-1.6-.8-.5-1.4-1.1-2-1.8-.5-.7-1.1-1.4-1.6-2.1-.5-.7-1.1-1.4-1.8-2-.6-.6-1.4-1-2.3-1.4-.7-.9-1.3-1.8-1.8-2.8-.6-1-1.1-2-1.7-2.9-.6-.9-1.3-1.8-2-2.6-.8-.8-1.7-1.4-2.8-1.8-.5-1.5-1.3-2.7-2.3-3.7-1-1-2-1.9-3.1-2.8-1.1-.9-2-1.9-3-2.9-.9-1.1-1.5-2.4-1.9-4.1-.7-.2-1.4-.5-1.9-.9-.6-.4-1.1-.8-1.6-1.3-.5-.5-1-1-1.4-1.5-.4-.5-.9-1-1.4-1.4-.9.7-1.5,1.6-1.5,2.6,0,1,0,2.1,0,3.2.1,1.1.2,2.2.3,3.3,0,1.1-.2,2.2-.8,3.2.5.7.8,1.8.8,3.1,0,1.3,0,2.8,0,4.4,0,1.6-.2,3.2-.2,4.8,0,1.6,0,3,.3,4.3.2,1.1.4,2,.8,2.7.4.7.9,1.3,1.5,1.8.6.5,1.3.9,2.2,1.3.9.3,1.9.7,3,1,.3.8.6,1.6.7,2.6.1.9.2,1.9,0,2.8,0,.9-.2,1.8-.5,2.7-.2.8-.6,1.5-1.1,2-1.8-.8-3.6-1.2-5.5-1.3-1.9-.1-3.8-.1-5.8,0-2,.1-4,.2-6.1.3-2.1,0-4.2-.1-6.3-.6v-6.8c.7,0,1.3-.2,1.8-.5.4-.3.9-.6,1.3-1,.4-.3.8-.6,1.3-.9.5-.2,1.2-.3,2-.2,1.2-1.6,1.9-3.4,2.1-5.5.3-2.1.3-4.3.3-6.6,0-2.3-.1-4.5-.2-6.8,0-2.3.2-4.3.8-6-.3-.6-.5-1.3-.7-2.4-.2-1-.3-2.1-.3-3.2,0-1.1,0-2.1.2-3.1.2-1,.4-1.8.8-2.3-.4-.2-.7-.6-.8-1.1-.1-.5-.2-1.1-.1-1.8,0-.6,0-1.3.1-2,0-.7,0-1.3,0-1.9-.4-.6-.9-1.1-1.5-1.5-.6-.4-1.3-.7-1.9-1s-1.3-.7-1.9-1.1c-.6-.4-1.1-.9-1.5-1.5,0-1.1.3-2.1.6-2.9.4-.8.7-1.7,1-2.6h13.5Z"/>
    <path class="st1" d="M444.2,222c.6-.2.9,0,.8.4,0,.5,0,.9,0,1.3,4,.1,7.4.8,10.1,2,2.8,1.2,4.7,3.2,6,6,2.5,1.4,4.5,3.3,6.1,5.7,1.6,2.4,2.7,5.1,3.5,8.2.8,3.1,1.2,6.4,1.2,10,0,3.6-.2,7.3-.7,11.1-.3-.1-.5-.1-.6,0,0,.1-.1.3-.2.5,0,.2,0,.3-.2.5-.1.1-.3.1-.7,0,.2,1.8,0,3.2-.5,4.3-.5,1.1-1.1,2.1-1.8,3-.7.9-1.4,1.8-2.1,2.8-.7.9-1.2,2-1.5,3.4-2,1-4.1,2.1-6.3,3.4-2.2,1.3-4.6,2.3-7,3.3s-5.1,1.5-7.9,1.9c-2.8.3-5.8,0-9-.9-.3-.1-.6-.1-.7,0-.1.1-.2.3-.2.4,0,.2,0,.3-.2.4-.1.1-.3.1-.7,0-.9-.5-1.9-1-2.8-1.4-.9-.4-2.3-.5-3.9-.2-1.3-.6-2.5-1.3-3.5-2.2-1.1-.8-2.1-1.7-3.2-2.5-1-.9-2.1-1.7-3.2-2.5-1.1-.8-2.3-1.5-3.6-2.1,0-.8,0-1.5-.4-2-.3-.5-.7-.9-1-1.4-.4-.4-.7-.9-.9-1.5-.2-.6-.3-1.3-.1-2.3-1.4-.7-2.3-1.8-2.8-3.1-.5-1.3-.8-2.8-.9-4.4,0-1.6-.1-3.2,0-4.9,0-1.7-.1-3.2-.5-4.5.6-6.8,2.3-12.5,5-17,2.7-4.6,6.8-7.8,12.3-9.7.5-1.3,1.3-2.2,2.5-2.7,1.1-.5,2.4-.8,3.8-.9,1.4-.1,2.8-.2,4.3-.2,1.4,0,2.7,0,3.8-.4.5.2,1.1.4,1.9.4.8,0,1.6,0,2.4,0,.8-.1,1.6-.3,2.3-.7.7-.3,1.2-.8,1.5-1.4ZM422.3,234.7c.2.7.1,1.2-.1,1.5-.3.3-.6.6-1,.8-.4.2-.8.4-1.3.5-.4.2-.8.4-1,.7-.3.3-.4.7-.5,1.2,0,.4-.1.9-.2,1.3-.1.4-.3.8-.5,1.2s-.7.5-1.2.6c-.5,1.9-.9,4.1-1.3,6.6-.3,2.5-.5,5-.5,7.5s.2,4.9.8,7.1c.5,2.2,1.4,4,2.7,5.3,0,.3-.2.5-.5.5-.3,0-.4.3-.3.7,1.3,1.4,2.6,2.8,3.9,4.2,1.3,1.3,2.5,2.8,3.7,4.3.7.2,1.5.4,2.3.5.8,0,1.7.2,2.5.3.8.1,1.5.3,2.2.6.6.3,1.2.7,1.5,1.2h13.5c.4-.8,1-1.3,1.9-1.5.9-.3,1.9-.3,3.1-.2.3-.4.7-.8,1-1.3.3-.5.7-.9,1-1.3.4-.4.8-.8,1.3-1,.5-.3,1.1-.4,1.8-.5.2-2.1,1.3-3.3,3.4-3.4-.1-1.5,0-3,.3-4.6.3-1.6.6-3.1.9-4.7.3-1.6.4-3.1.5-4.6,0-1.5-.3-2.9-.9-4.3,0-.2.2-.3.3-.3.1,0,.3-.1.4-.2.1,0,.2-.2.3-.4,0-.2,0-.4,0-.8-.8-1.8-1.5-3.7-2.1-5.7-.6-2-1.3-3.9-2.1-5.8-.3,0-.6,0-1,0-.4,0-.6,0-.7-.4-.3-1-.7-1.8-1.4-2.3-.6-.6-1.3-1.1-2.1-1.5-.8-.5-1.5-.9-2.3-1.4-.8-.5-1.3-1.1-1.8-1.9-1.2.2-2.3.1-3.2-.3-.9-.4-1.8-.8-2.6-1.3-.8-.4-1.7-.8-2.5-.9-.8-.2-1.7.1-2.8.8-.3-.7-.8-1-1.5-1s-1.4,0-2.1.3c-.7.2-1.4.3-2,.4-.6.1-1,0-1.2-.5-.7.4-1.3.8-1.9,1.3-.6.5-1.2.9-1.8,1.3-.6.4-1.3.8-2.1,1.1-.8.3-1.7.5-2.7.5ZM420.6,232.2v-1.7h-1.8c-.3,1.4.2,2,1.8,1.7ZM465.4,273.5v-1.7h-1.8c.2.9.8,1.5,1.8,1.7Z"/>
  </g>
</svg>