<?xml version="1.0" encoding="UTF-8"?>
<svg id="Layer_2" data-name="Layer 2" xmlns="http://www.w3.org/2000/svg" viewBox="0 0 332.97 512.61">
  <g id="Layer_1-2" data-name="Layer 1">
    <path d="M177.89,327.82l-6.25-28.16c-.19-.85-1.55-2.25-2.28-2.55-4.31-1.79-10.74,33.54-11.33,37.29-.76,4.76.33,10.04-.83,14.51-2.02,7.78-6.41,15.21-6.21,23.33.35,13.93-3.14,16.93-4.13,30.95-.97,13.74-2.08,22.85-6.08,35.75-3.9,1.43-8.39,3.12-11.13,5.24-1.2,6.84-2.39,12.71-4.02,19.15-2.39,9.43,1.88,16.48-.52,21.44l-5.54,11.43c-1.15,2.37-14.74-2.62-16.53-6.86-5.77-13.65,7.78-29.21,6.69-44.72-1.91-1.28-5.61-3.22-6.5-4.82l-2.41-14.15c4.12-6.93,1.86-14.22,2.45-21.19.81-9.65,2.84-18.4,2.35-28.34s7.19-9.28,5.77-26.99c-.34-4.3,2.8-9.66,2.97-14.16l.52-13.75,4.67-48.26c-4.12-1.05-8.3-2.71-10-5.66l6.59-24.71c4.08-15.32,4.94-30.47,6.18-46.16l2.49-31.6c-13.35,4.87-20.09,17.18-25.68,20.65-9.23,5.74-17.56,11.43-26.1,18.11-3.98,3.12-24.18,15.46-29.76,17.7l-7.7-7.53c-7.92,4.29-12.27,12.74-16.63,14.41s3.49-9.52,1.82-10.42c-4.25-.95-10.01-.53-12.56,2.85l-7.57,10.03c-5.96-31.35,32.7-21.02,29.4-36.08l32.96-23.78c9.01-6.5,17.41-11.95,25.28-19.92l30.32-30.7c3.31-3.35,6.13-7.53,10.39-9.36,5.49-2.36,12.15-4.05,16.57-7.63,3.68-2.98,6.16-6.74,11.42-7.9,1.23-1.78.86-7.54-.92-9.23-3.82-3.63-7.2-8.13-10.98-11.04-4-3.08-8.55-2.9-10.47-7.51-2.05-4.92-2.91-9.7-.36-14.6-.38-2.86-2.25-7.56-2.2-10.42l.16-10.25c.05-2.97,3.63-7.37,4.6-10.48,3.98-12.72,7.19-10.6,17.72-16.81,9.8-5.78,11.93-5.51,24.38-4.11,8.8.99,20.16,5.18,26.89,12.69l7.27,8.11-2.93.23,4.26,16.21c-.72,1.66-1.66,3.9-2.23,5.54l-3.3,9.49c.72,5.87.05,10.94-3.98,15.54-7.65,8.76-.32,14.99-20.05,25.82,13.16,15.68,16.82,9.46,31.97,18.09,3.58,2.04,5.99,6.63,8.51,10.06,16.2,22.05,27.46,40.09,47.89,59.16,10.2,9.52,21.85,17.28,31.38,27.51l.68,6.35c14.9,6.48,20.23,8.01,27.71,23.7-3.43-.54-4.77-2.23-7.98-4.54l1.92,8.35c-5.27,4.46-2.12-14.69-17.38-11.87l3.47,8.55c.26.64.15,2.3-.29,2.71s-1.84-.51-2.26-1.01c-4.69-5.65-9.99-10.76-15.51-15.45l-7.52,7.31c-17.7-10.72-32.5-24.47-48.02-37.77-13.13-11.25-7.66-13.14-22.12-26.6-.64,2.03-1.1,4.97-.87,7.21l3.4,32.11,3.1,18.49,5.08,39.07c.18,1.37.6,4.14-.24,4.9-.98.89-3.58,1.81-5.2,2.65s-1.13,5.61-.88,7.84l6.28,55.89c.69,6.12,1.1,13.12,2.53,18.66s-.31,8-.72,13.04l-1.9,23.43-5.74,42.9c-.99,7.41-2.73,14.47-4.7,21.63l-8.49,2.83c-4.49,10.69,5.25,33.6,10.17,43.99.63,1.32.63,5.53-.51,6.51s-3.25,1.31-5.15,1.83c-5.32,1.45-7.69.45-10.7-4.06-1.52-2.28-5.61-5.7-5.72-8.58-.29-7.52-3.43-11.32-8.97-15.58-3.48-2.67-7.25-8.06-5.45-12.54l5.5-13.75-8.1-2.85c.19-3.74-2.32-7.91-2.72-11.42-1.55-13.65,2.12-26.78,4.28-40,2.97-18.12-1.11-19.09,3.86-33.04-.35-20.68-3.27-23.06-7.55-42.35Z"/>
  </g>
</svg>