<?xml version="1.0" encoding="UTF-8"?>
<svg id="Layer_2" data-name="Layer 2" xmlns="http://www.w3.org/2000/svg" viewBox="0 0 460.29 442.47">
  <defs>
    <style>
      .cls-1 {
        fill: #975399;
      }
    </style>
  </defs>
  <g id="Layer_1-2" data-name="Layer 1">
    <g id="uniUot">
      <path class="cls-1" d="M261.33,440c-77.62,11.74-149.22-18.97-196.66-80.52-17.07-22.15-31.14-45.53-42.94-70.91C-.76,240.16-8.99,186.38,12.55,136.25c9.47-22.04,23.21-40.86,40.77-57.2C89.04,45.81,152.51,2.37,202.33.27c65.07-2.75,137.52,15.72,187.99,58.46,19.25,16.3,35.19,35.2,46.19,58.02,14.39,29.87,22.46,61.81,23.65,95.19,4.12,115.82-88.04,211.31-198.83,228.07ZM226.69,16.72l3.37-4.54c-4.25-.7-7.3-1.15-11.42,1.55l8.05,2.98ZM359.97,292.62c-4.19-13.12-4.15-25-2.07-37.75,8.68-53.28,56.5-48.17,86.57-78.6l-4.95-19.66c-16.03,5.82-27.17,13.7-40.39-.68-1.7-1.85-2.87-3.54-4.21-6.4-9.84,16.29-29.54,37.1-48.85,29.26-5.38-2.19-10.92-7.67-13.28-14.53-3.9-11.37-2.28-23.2,2.71-34.26,1.27-2.82,2.2-7.18,2.96-9.61,5.47-3.55,7.87-11.58,12.05-9.33,1.06.57,1.71,3.16,2.03,5.01l10.62.96c.94.09,3.58-.55,4.03.13l1.97,3,14.56.79c-.77-21.89-6.88-42.22-17.71-61.06-.91-1.59-1.28-3.9-1.44-6.03-7.63-5.08-15.93-9.79-24.58-14.19-22.5,10.94-36.53,18.46-62.19,16.74-6.35-.43-11.87-3.97-14.52-9.51-2.57-5.38-6.69-7.79-11.8-10.33l-20.72-10.33c-24.95-12.44-43.9,2.25-33.68-13.62-15.57,1.46-30.2,6.34-44.36,13.01,12.1.09,20.8,5.49,22.93,16.76,4.3,22.78-.76,26.92,9.42,51.82.63,1.55.87,4.94.34,6.35s-3.17,3.27-4.99,3.74c-17.33,4.46-31.77,16.34-39.07,32.57-4.07,9.04-1.8,18.17,5.28,24.65l12.52,11.46c7.63,6.99,8.24,20.44-.18,26.92-14.65-8.85-27.04-4.87-41.57.72l5.22,12.97c6.49,16.12,18.32,21.85,29.3,35.74,3.88.5,9.06-.27,13.24-1.28,20.1-4.86,39.67-2.46,57.9,7.03,10.6,5.52,20.49,10.96,30.7,17.1,4.98,2.99,9.75,7.55,12.34,12.67,6.39,12.61,3.34,26.98-5.75,37.23l-9.9,11.16c-7.52,8.48,4.72,14.05,2.83,17.91-1.76,3.58-12.78,9.04-18.14,9.96.35,25.98-10.91,43.4-16.85,69.26,63.29,3.88,127.37-23.91,170.78-68.47-9.66-25.53-20.56-42.56-29.1-69.29ZM237.17,21.09l6.9-7.81c-5.28-1.74-10.07-.38-13.82,4.37l6.92,3.44ZM244.57,23.91l12.35-8.9c-7.43-3.82-12.27,2.57-16.59,7.42,1.46,1.09,3.35,2.12,4.24,1.48ZM253.63,29.68c5.15-5.64,8.37-8.52,13.77-13.24-3.79-2.92-15.47,6.24-20.21,9.64l6.45,3.6ZM263.5,34.74c5.31-6.38,10.1-10.56,16.62-15.46-7.98-5.62-16.86,5.19-22.83,11.39l6.22,4.07ZM268.88,41.42c7.75-7.9,15.94-12.95,25.6-18.53-10.04-7.26-22.36,6.9-28.35,14.22l2.75,4.3ZM280.21,47.82l31.21-19.92-11.08-3.78c-10.94,5.35-21.64,11.29-29.48,20.65,1.87,3.69,6.24,5.03,9.35,3.04ZM306.36,45.73l19.14-12.39c-3.81-1.77-6.69-2.86-10.19-3.86l-30.27,19.33c7.06.2,15.13.92,21.32-3.09ZM73.21,215.82l29.96-58.93,27.2-51.86c11.93-22.74,20.24-45.87,26.93-71.03-2.53-.76-6.43-.77-10.04-.04-4.66,16.89-9.92,32.24-17.18,48.05l-32.09,69.89-18.57,37.17c-4.09,8.18-8.24,17.3-6.2,26.75ZM56.18,208.24c3.37,4.34,7.67,6.15,12.36,6.13,1.34-11.14,4.67-21.23,9.78-31.35l19.09-37.75,32.82-72.16c5.79-12.73,9.69-25.45,13.29-38.82-6.04-1.67-11.03.44-14.73,4.3-7.19,40.27-31.19,73.79-47.11,111.97l-22.91,54.97-2.59,2.72ZM129.92,134.62c1.57-6.75,3.68-12.22,6.71-17.46l21.13-36.49c4.54-7.84,13.19-25.66,8.5-33.83-.03-.65,1.36-2.82,1.52-3.6.73-3.75-4.27-9.21-7.66-8.8-4.09,19.57-11.03,37.53-19.1,55.57-19.6,43.83-44.01,81.46-63.71,125.96l11.05,4.68,19.75-40.07c6.16-12.49,12.67-24.47,21.38-35.31,1.12-1.39,2.96-3.72,3.59-5.13.6-1.34-2.07-3.58-3.15-5.5ZM55.52,204.17l17.29-40.59c7.58-19.35,16.1-37.5,25.75-55.96,9.71-18.58,23.36-46.62,26.13-67.26-8.7,5.07-15.68,9.59-23.37,14.79-1,17.17-5.35,32.91-12.79,48.22l-22.54,46.42c-6.89,14.19-12.46,28.01-15.61,43.38,1.68,4.01,3.08,7.24,5.15,11ZM47.53,189.47c4.29-16.91,10.3-30.71,17.56-45.5,12-24.46,31.31-58.49,32.31-85.62l-12.71,9.11c-3.7,28.44-19.29,52.91-29.65,80.32-4.88,12.91-8.31,25.61-12.35,38.93l4.84,2.76ZM159.55,104.97c5.57-9.87,6.78-18.86,12.32-27.18l-1.76-16.14c-3.71,9.16-7.21,17.46-12.2,25.95l-17.44,29.64c-3.1,5.26-5.89,10.65-6.21,16.92,5.9-12.14,14.08-21.2,25.3-29.19ZM384.87,69.12c-2.86-2.41-5.58-4.52-8.57-6.39l5.23,11.81c2-1.63,3.78-4.08,3.34-5.42ZM31.22,183.64l8.46,1.79c6.37-25.33,15.33-48.18,26.25-71.61,6.45-13.83,12.49-27.28,14.19-42.19-6.98,5.02-12.34,9.7-17.41,14.61-1.19,9.82-3.18,18.86-7.3,27.86l-12.91,28.17c-6.04,13.18-7.74,27.16-11.28,41.37ZM384.67,82.69l7.78-6.25c-1.54-1.75-2.88-3.18-3.85-3.57-.42-.17-8.37,5.57-3.94,9.82ZM387.03,89.52l10.98-7.69c-.81-1.25-3.39-2.48-4.27-1.82l-7.35,5.51c-.4,1.1.1,4.85.64,4ZM178.33,97.04l-5.46-14.56-7.91,19.56,13.37-5ZM389.5,101.91l15.04-12.3c-.66-1.41-2.75-3.75-4.39-4.6-4.7,2.21-8.34,5.26-12.2,9.17l1.55,7.73ZM24.56,182.05l3.31.57c3.14-12.76,5.88-25.52,10.13-38.01,6.04-17.74,19.26-35.31,20.49-54.04-4.17,3.86-7.37,7.24-10.73,11.05-7.05,24.68-18.17,34.11-19.99,61.13-.44,6.55-1.72,12.67-3.21,19.32ZM391.39,120.11l24.36-15.75c-1.62-2.74-3.33-5.11-5.16-6.69-8.17,3.67-14.19,8.33-20.08,14.27l.89,8.18ZM419.23,109.74l-1.51-1.85c-.24-.3-1.61.28-1.95.51l-15.79,10.51c7.09-2.73,13.06-5.86,19.25-9.17ZM31.64,132.31c3.07-6.85,6.67-13,8.5-20.56-15.65,20.37-24.41,43.86-27.66,68.91l8.43.95c6.06-20.43,1.19-27.99,10.74-49.3ZM386.48,147.82c6.43-13.96,21.44-25.85,34.64-31.31,1.07-.44.97-3.06.28-3.06-2.8.01-10.71,4.24-13.88,6.87-19.41,16.11-37.69,32.46-53.64,52.53,12.32,1.55,28.09-15.22,32.61-25.04ZM401.39,144.97c8.32-8.94,16-14.61,26.71-18.98l-3.47-6.94c-10.98,3.64-19.58,10.07-27.27,18.62l4.03,7.3ZM350.37,171.28c12.39-14.95,29.38-31.76,42.96-43.65,1.15-1-1.64-4.93-1.25-2.76l-2.76,4.45c-.58.94-4.18-.56-5.09.06-15.15,10.17-28.25,25.01-39.63,39.22.18,1.63,4.07,4.73,5.77,2.68ZM343.03,148.2c-3.5,6.48-8.77-4.49,15.2-19.98-3.67-1.15-6.7.18-9.47,2.23l-7.73,5.72c-2.79,6.49-3.99,14.08-2.25,21.3,8.09-12.06,17.56-21.01,29.29-29.52-10.09,3.19-19.46,9.93-25.04,20.25ZM342.36,165.85c11.72-14.49,22.9-26.35,36.72-37.49-2.64-.74-5.1-.1-7.19,1.31-12.99,8.74-23.67,18.88-31.84,32.38.43,1.39,1.27,2.9,2.31,3.81ZM407.43,153.15c6.37-8.32,13.58-14.37,21.96-19.08,1-.56,1.57-2.22,1.25-3.05-2.19-5.59-24.51,12.03-27.28,17.12.4,1.84,2.27,4.15,4.08,5.01ZM421.67,154.33c8.09-12.69,16.27-11.5,10.33-17.57-8.44,4.43-16.33,10.32-21.6,18.71,3.21,1.84,9.12,2.24,11.27-1.13ZM437.38,149.33l-2.26-4.99-8.03,8.67c4.32-1.22,6.62-2.14,10.29-3.68ZM109.22,203.17c-.23-6.87,3.94-6.18,6.3-10.71l15.16-29.08c-.51-1.47-1.34-3.91-.34-3.87l3.92.15c3.85.15-13.05,27.16-13.32,31.03,2.63,0,5.42-.89,6.54-2.16,2.12-9.19,6.4-16.68,12.71-23.09-5.23-5.07-7.41-10.8-8.82-17.45-9.2,12.26-15.89,25.06-22.48,38.5l-17.48,35.67,17.81,8.55,4.24-11.89c1.44-4.03,2.43-7.7-2.02-10.82l-5.67,15.26c-.34.91-2.75,2.14-2.86,1.41-.91-6.34,6.46-16.74,6.3-21.5ZM146.03,178.59l-5.26,7.87,16.31,3.72c3.76-9.13-7.61-15.85-14.3-22.09-6.08,5.48-9.4,11.71-11.56,19.85,2.02-.19,4.44-.59,5.85-1.08,4.05-11.82,11.56-12.16,10.2-10.14l-1.25,1.86ZM125.65,271.96c1.05-2.06,2-4.92,1.91-6.4-.25-.6-2.8-1.57-2.51-2.22l1.36-3.08c.53-1.2,2.28-4.27,1.41-5.22l-3.13-3.41c-2.25-2.46-4.42-5.07-7.27-7.02-11.23-7.68-23.16-13.01-35.58-18.58-5.25-2.35-10.6-4.08-16.21-4.59-19.98-1.83-17.04-23.17-24.08-26.5-9.42-4.45-19.27-5.9-29.61-6.49-3.17,51.95,19.4,100.17,46.44,142.09,11.97,18.56,24.91,35.14,41.31,50.02,23.83,21.61,51.75,37.16,83.5,44.75.82-27.36-13.65-68.77-25.21-92.32-8.51-17.32-45.22-35.78-32.33-61.03ZM398.55,244.34c16.45-15.93,32.61-25.22,46.06-44.12,2.53-3.56,3.88-7.46,1.1-11.69l-47.51,51.25c-7.98,8.61-13.59,18.43-20.62,27.63l-10.88,14.23c-1.31,1.71-1.19,4.46.22,6.26,11.98-12.82,19.6-31.9,31.64-43.56ZM364.96,277.91c16.97-20.63,20.5-29.59,38.29-48.88l32.12-34.82c-6.32,3.22-14.52,5.53-19.2,10.4l-18.78,19.54c-8.91,9.27-16.98,18.31-23.54,29.35l-9.5,15.99c-1.13,1.91-.52,6.38.61,8.42ZM369.76,299.3c2.75-1.52,4.75-2.44,5.55-3.28,8.73-9.18,17.4-17.65,26.42-26.53l27.71-27.26c7.64-7.51,13.49-15.89,19.42-24.71l-.93-15.61c-14.22,19.33-31.02,29.05-46.41,44.4-13.62,13.59-20.12,31.53-33.58,45.68l1.83,7.31ZM364.9,261.55c2.22-3.22,3.85-5.73,5.38-8.6,12.37-23.28,21.66-25.99,37.77-44.83-4.73,1.59-8.71,3.66-12.75,5.99-1.6,2.99-3.38,4.88-5.81,7.22-9.25,8.93-15.35,20.11-21.8,31.23-1.78,3.07-2.93,5.85-2.8,9ZM117.83,235.8l3.83-8.58-4.87-7.84-4.38,13.32,5.42,3.11ZM375.82,311.02c28.68-24.46,45.23-51.1,72.1-75.34.39-3.57.49-7.11.26-10.76-19.8,26.91-43.91,45.16-67.05,70.05-2.78,2.98-5.28,4.99-8.89,7.44-.68,2.38,1.13,7.32,3.58,8.61ZM126.92,242.82l2.43-6.38-5.49-5.84-3.15,7.23,6.2,5ZM135.45,242.76l-2.78-2.83-3.02,5.46,3.51,3.96,2.3-6.59ZM426.87,281.66c6.37-7.6,12.37-15.07,17.49-23.59,2.55-4.26,2.31-11,2.6-16.69-25.88,23.92-43.16,51.15-70.54,73.58l4.64,10.24c12.51-18.99,34.24-29.72,45.81-43.53ZM137.51,260.96l4.6-9.79c.84-1.79-2.71-5.77-4.38-4.91-3.18,9.99-3.22,3.56-.22,14.69ZM151.7,314.42c8.97-20.93,14.44-41.49,27.53-60.76-3.53-.22-8.44.2-11.29,1.77-5.51,7.42-7.71,15.84-9.47,24.74l-6.77,34.25ZM160.95,322.48c14.54-21.7,27.72-43.63,33.52-68.95-3.94-.44-7.16-.57-11.12-.29-13.18,20.56-20.46,40.4-27.92,63.59,1.69,2.38,3.52,4.38,5.52,5.65ZM171.15,343.13l21.61-41.85c6.56-14.58,12.21-28.32,15.42-44.31l-10.09-2.92c-6.73,26.93-19.91,48.97-35.26,71.86l8.32,17.23ZM139.04,299.8l13.83-42.69c-3.93-.34-6.18-.75-8.96-1.62l-8.17,17.26c-10.19,4.47-4.11,21.29,3.31,27.05ZM148.49,309.78c6.44-21.08,5.25-35.42,14.18-53.39l-6.26.89-14.9,45.85,6.97,6.65ZM178.82,364.14c18.05-29.86,40.44-67.18,41.22-102.1l-8.34-3.87c-4.23,16.79-9.61,32.27-17.59,47.81l-21.51,41.89,6.22,16.27ZM193.38,360.55l22.28-41.87c8.35-15.69,14.36-30.99,18.79-48.79l-10.91-6.08c-2.55,38.69-24.58,72.74-43.33,105.03l4.3,14.21c2.98-7.42,4.84-14.93,8.87-22.5ZM385.63,333.66l23.87-19.44,23.54-17.54c3.68-9.66,7.27-18.34,9.2-29.17-9.43,14.01-19.85,24.78-33.17,34.41-9.35,6.77-17.35,14.75-24.2,23.85-2.11,2.64-1.96,5.95.75,7.88ZM227.25,343.38c10.74-15.92,19.66-31.79,26.37-49.18l.98-2.53c.18-.47,1.4-.33,1.89-.28s1.14,2.43.76,3.38c-6.06,15.31-16.07,34.28-26.08,48.83-9.57,13.91-15.99,27.71-22.4,43.06l-16.05,38.43c.17.99,2.16,2.54,3.45,2.69,5.84-8.2,11.31-17.12,15.43-26.61l15.95-36.77c.94-2.16-2.41-11.05,2.88-10.91s9.73-1.09,13.84-4.38c-8.91-12.86.93-21.59,9.58-30.49,4.2-4.32,6.7-9.32,7.79-15.24,3.32-18.05-10.62-25.23-24.32-32.01-3.41,15.32-8.24,29.43-15.7,43.25l-19.63,36.36c-5.61,10.39-10.46,21.25-13.4,32.21.99.99,2.73,2.89,1.92,3.06l-4.97,1.05,3.58,16c3.73-7.58,6.52-14.88,9.32-23.06,13.35-38.92,36.29-60.39,46.32-99.25.16-.63,2.3-1.34,2.43-.85,1.68,6.18-8.63,28.76-12.09,35.33-13.51,25.64-24.54,39.64-33.76,66.78-3.28,9.67-7,18.22-11.16,27.8-.99,2.28.18,7.24.98,9.87l16-38.03c5.69-13.51,11.6-25.97,20.07-38.52ZM389.53,340.6c9.11-8.15,20.32-15.33,31.36-20.79,3.47-5.07,6.06-9.89,8.11-15.63-7.95,5.77-39.5,27.92-41.9,34.26-.26.69,1.79,2.54,2.43,2.16ZM410.69,335.65c2.25-2.11,4.42-5.68,5.52-9.13-10.03,5.32-19.35,10.37-26.18,19.69l20.66-10.56ZM394.79,355.95l11.35-13.9c-5.56,2.14-9.23,4.54-13.89,7.78l2.54,6.12ZM206.38,429.53c2-3.09,5.36-6.59,6.49-9.56,5.3-14.02,10.49-27.23,13.3-42.35l-11.45,25.07c-4.41,9.21-9.07,17.3-14.58,25.91l6.24.94Z"/>
    </g>
  </g>
</svg>