<?xml version="1.0" encoding="UTF-8"?>
<svg id="Layer_2" data-name="Layer 2" xmlns="http://www.w3.org/2000/svg" viewBox="0 0 139.58 177.23">
  <defs>
    <style>
      .cls-1 {
        fill: #af7c37;
      }
    </style>
  </defs>
  <g id="Layer_1-2" data-name="Layer 1">
    <g id="tbBZ9M">
      <g>
        <path class="cls-1" d="M123.14,169.69c-10.19,8.28-31.4,8-45.16,7.09l-37.59-2.48c-20.99-1.38-35.33-7.6-37.37-26.09l-3.02-27.3,1-23.79c.46-10.96,5.27-19.93,18.41-24.48l-3.97-12.96c-4.17-13.61-.85-26.01,5.83-38.37C27.22,10.28,37.17,1.98,52.62.5c12.54-1.21,25.43-.26,37.45,3.34,17.92,5.36,18.36,16.71,23.77,27.37,12.31,24.26-2.9,35.41,6.4,36.5,7.9.92,14.62,5.65,15.36,12.31l3.21,29.01c1.42,12.79.94,25.3-1.75,37.89-1.86,8.71-6.26,16.56-13.91,22.78ZM99.36,51.33l.14,14.67c4.61.86,8.94.92,13.67.31.66-10.03-.94-18.97-2.1-28.55-1.23-10.14-5.97-18.27-15.21-24.9C80.04,1.5,58.76.07,40.52,8.68c-7.24,3.42-12.13,7.55-15.04,14.29-6.66,15.45-7.1,32.15-1.1,47.96,3.42.73,8.37-.31,10.14-2.6-5.64-17.28-2.31-49.74,23.22-54.07,10.67-1.81,22.3-.63,28.94,6.7,7.55,8.33,12.57,19.54,12.68,30.38ZM90.98,66.12c1.76.02,4.23-1.28,4.29-2.39.64-11.72-.7-22.87-6.24-33.49-4.41-8.46-13.72-14.39-25.04-13.49-12.45.99-21.34,8.71-24.53,18.22-3.74,11.14-4.96,22.41-.31,33.45,17.51-1.36,33.92-2.49,51.84-2.3ZM109.9,170.36c9.77-1.61,16.08-7.5,17.66-15.08,3.15-15.05,3.44-29.98,3.02-45.37-.28-10.27-2.35-19.72-7.55-29.03-1.52-2.72-5.17-4.97-8.82-5.44-15.75-2.04-30.82-1.14-46.64-1.14-16.23,0-31.62-.31-46.91,4.26-9.14,2.72-14.72,8.64-14.95,16.93l-.5,18.66c-.29,10.96,2.17,21.48,3.6,32.31,2.92,22.16,24.64,23.84,44.95,25.14,18.74,1.2,37.14,1.91,56.14-1.22Z"/>
        <path class="cls-1" d="M97.67,143.95l-7.87-21.48c-4.62-12.61,7.5-18.91,3.45-26.72-2.8-5.41-9-9.57-15.95-10.87-7.29-1.36-14.79,2.68-18.24,6.77-4.68,5.54-3.95,11.89.24,17.35,13.21,17.24-12.56,33.64-7.44,43.32,3.32,6.28,12.13,8.12,19.81,7.95,6.04-.13,12.29.55,18.26-1.28,6.67-2.05,9.69-9.76,7.75-15.04ZM83.35,152.85c-4.4,2.37-11.42,3.45-15.63,2.91-3.4-.43-7.21-2.88-6.84-5.86,3.07-24.3,14.87-28.93,4.84-42.74-1.72-2.37-2.33-5.34-1.63-7.96-2.01-2.8-.63-7.64,4.14-7.64,1.39,0,2.48.41,3.3,1.06,1.74-.5,3.58-.63,5.39-.27,2.98.6,7.16,3.18,7.2,6.4.17,11.58-8.06,15.13-3.57,28.42l5.79,17.16c3.08,2.44,2.08,8.29-2.99,8.51ZM92.72,150.82l-4.02-14.14c-.63-2.23-1.37-4.04-.85-6.55,1.34,3.55,9.57,18.08,4.87,20.69Z"/>
        <ellipse class="cls-1" cx="22.17" cy="92.49" rx="4.81" ry="3.92"/>
        <ellipse class="cls-1" cx="115.6" cy="85.48" rx="4.62" ry="3.76"/>
        <path class="cls-1" d="M30.59,161.61c-1.81,2.3-5.41,1.82-6.77.36s-1.55-5,1.31-5.68c1.13-.27,3.59.55,4.45,1.2s1.65,3.3,1,4.13Z"/>
        <ellipse class="cls-1" cx="115.27" cy="158.94" rx="3.89" ry="3.17"/>
      </g>
    </g>
  </g>
</svg>