<?xml version="1.0" encoding="UTF-8"?>
<svg id="Layer_2" data-name="Layer 2" xmlns="http://www.w3.org/2000/svg" viewBox="0 0 356.76 244.03">
  <defs>
    <style>
      .cls-1 {
        fill: #fff;
      }

      .cls-2 {
        fill: #975399;
      }
    </style>
  </defs>
  <g id="Layer_1-2" data-name="Layer 1">
    <g>
      <rect class="cls-2" x="322.62" y="177.76" width="37.3" height="3" transform="translate(-37.11 252.95) rotate(-38.73)"/>
      <path class="cls-2" d="M4.11,82.97c-.65.73-1.29,1.1-2.08.99-.53-.08-1.02-1.45-.59-1.94l23.18-25.91c.55-.62,1.66-.72,2.06-.26.65.76.45,1.45-.19,2.16l-22.37,24.95Z"/>
      <rect class="cls-2" x="-2.3" y="63.04" width="19.14" height="2.76" transform="translate(-46.45 28.12) rotate(-49.51)"/>
      <rect class="cls-2" x="336.64" y="184.97" width="19.08" height="2.95" transform="translate(-42.15 248.12) rotate(-37.33)"/>
      <g>
        <path class="cls-2" d="M72.75,242.88c-4.46,1.29-8.06-1.02-9.28-5.14l-2.2-7.44-7.58-26.58-30.21-104.72-4.34-15.46c-1.15-4.1,1.25-7.47,5.05-8.56l27.25-7.83,5.22-1.51,34.28-9.83,5.35-1.54,14.94-4.37,9.38-2.71L249.53,10.03l5.79-1.71L283.49.27c4.14-1.18,7.84,1.75,8.6,5.62.1.49.48,1.27.7,1.66,2.04-.55,3.88-1.14,5.81-1.52,1.79-.35,3.76,1.1,4.28,2.9l44.31,153.62c.47,1.61.94,2.63.16,4.21-.47.96-1.59,1.99-3.06,2.42l-29.37,8.47-4.9,1.42-41.97,12.06-4.39,1.24-15.82,4.63-3.09.89-159.19,45.9c-2.68.77-4.91-.27-5.89-2.9l-6.92,2ZM116.81,197.65l2.62-12.42,6.62-2.25,13.16-3.85,24.19-7.13,9.28-2.75,23.22-6.94,61.91-17.28c1.16-.24,2.05-.33,2.82.44l29.6,29.27,28.62-8.28,10.94-3.13c1.18-.21,1.97-1.08,1.56-2.52L286.56,5.58c-2.27-.34-4.07.38-6.25,1.01l-59.12,17.06-3.37.97-117.77,33.94-15.63,4.52-58.64,16.89c-1.03.3-2.02,1.01-1.66,2.28l16.85,58.57,2.66,9.17,25,86.59c.33,1.14,1.13,1.72,2.3,1.39l39.89-11.49,3.76-17.95,2.23-10.87ZM122.27,223.16l119.64-34.49,9.58-2.68c1.37-.77,2.92-.91,4.41-1.34l29.97-8.68-27.19-26.86-3.59.78-65.3,18.35-62.66,18.71-4.32,1.36-7.63,36.89,7.11-2.03Z"/>
        <path class="cls-2" d="M80.72,191.55c-4.12,1.17-6.89-1.55-7.93-5.14l-18.45-63.93c-.98-3.4.42-6.95,3.75-8.16,2.87-1.04,5.58-1.77,8.66-2.66l62.49-17.99,66.07-19.05,3.8-1.1,61.81-17.81,5.71-1.72,8.48-2.29c2.96-.8,6.34.98,7.23,4.06l19.09,66.3c.91,3.17-1.65,6.44-4.38,7.23l-19.61,5.63-5.25,1.51-59.39,17.14-6.13,1.77-108.36,31.2-6.68,1.92-10.91,3.09ZM295.98,125.45c1.28-.36,1.69-1.9,1.62-2.85l-2.4-8.16-16.54-57.34c-.44-1.11-1.54-1.98-2.78-1.61l-24.46,7.16c19.61,2.4,34.05,18.14,34.92,37.57.57,12.59-5.06,23.87-14.85,32.2l24.49-6.97ZM284.32,97.46c-2.27-20.39-20.65-35.07-41.04-32.8-20.4,2.27-35.09,20.64-32.82,41.03,2.27,20.39,20.65,35.07,41.04,32.8,20.4-2.27,35.09-20.64,32.82-41.03ZM146.02,151.04c-2.15,8.85-7.04,15.55-13.83,21.65l111.05-32.04c-12.47-2.16-22.89-8.46-29.13-18.79-10.14-16.8-6.4-37.98,8.86-50.99l-63.49,18.15-6.08,1.8-41.17,11.86c3.55.95,6.9,1.36,10.27,2.74,17.89,7.31,28.13,26.66,23.52,45.61ZM126.26,174.2c9.64-5.34,16.44-14.81,18.44-25.63,3.38-18.29-7.3-36.25-24.84-42.17-11.45-3.86-16.44-1.24-27.49,2-3.63,1.06-6.74,3.45-9.55,6.03-14.73,13.57-15.91,36.82-2.65,51.89,7.57,8.6,18.75,13.32,30.26,12.59.77-.05,14.89-4.18,15.82-4.7ZM79.27,187.87c4.32-.98,8.13-2.12,12.17-3.34l12.81-3.86c-12.62-1.68-23.91-8.69-30.13-19.88-9.23-16.62-5.23-37.07,9.43-49.62-8.18,1.84-15.56,4.3-23.21,6.45-1.71.48-2.74,1.73-2.3,3.5l3.69,12.58,14.96,51.84c.3,1.05,1.37,2.59,2.58,2.32Z"/>
        <path class="cls-2" d="M308.14,98.62l-1.52-5.07-3.29-11.28-12.54-43.5c-.16-.54.7-1.54,1.15-1.63s1.26.49,1.46,1.19l17.14,59.43c.19.64-.4,1.66-.83,1.76s-1.44-.44-1.58-.9Z"/>
        <path class="cls-2" d="M56.68,176.48c.12.43-.64,1.41-1.06,1.47-.62.09-1.36-.4-1.58-1.17l-13.84-48.02c-.2-.68.64-1.56,1.11-1.61.67-.08,1.27.38,1.5,1.19l10.73,37.17,3.14,10.98Z"/>
        <path class="cls-2" d="M311.65,149.74c.79,7.13-4.35,13.56-11.48,14.35s-13.56-4.34-14.36-11.47c-.79-7.13,4.35-13.56,11.48-14.35s13.56,4.34,14.36,11.47ZM309.91,149.93c-.69-6.16-6.24-10.6-12.4-9.91-6.16.69-10.6,6.24-9.92,12.4.69,6.16,6.24,10.6,12.4,9.91,6.16-.69,10.6-6.24,9.92-12.4Z"/>
        <path class="cls-2" d="M103.96,209.63c.79,7.13-4.34,13.55-11.48,14.35-7.13.79-13.56-4.34-14.35-11.47-.79-7.13,4.34-13.55,11.48-14.35,7.13-.79,13.56,4.34,14.35,11.47ZM102.21,209.83c-.69-6.16-6.24-10.6-12.41-9.92-6.17.69-10.61,6.24-9.92,12.4.69,6.16,6.24,10.6,12.41,9.92s10.61-6.24,9.92-12.4Z"/>
        <circle class="cls-2" cx="280.14" cy="17.64" r="5.86" transform="translate(-.23 31.13) rotate(-6.36)"/>
        <circle class="cls-2" cx="75.38" cy="225.71" r="5.86" transform="translate(-24.53 9.73) rotate(-6.36)"/>
        <path class="cls-2" d="M318.37,149.55c3.33-.91,6.42,1.34,7.13,4.24.77,3.17-1.1,6.39-4.23,7.14s-6.2-1.04-7.1-4.15c-.84-2.9.8-6.3,4.19-7.23Z"/>
        <path class="cls-2" d="M32.97,82.94c3.12-1.63,6.62-.23,8.02,2.76,1.29,2.76.2,6.22-2.9,7.77-2.61,1.3-5.98.25-7.5-2.47s-.7-6.44,2.38-8.05Z"/>
        <path class="cls-2" d="M39.67,117.36c.17.57-.77,1.55-1.26,1.63-.6.1-1.3-.58-1.5-1.31l-2.2-8.01c-.13-.47.25-1.43.54-1.74s1.58-.14,1.7.27l2.71,9.14Z"/>
        <path class="cls-2" d="M317.14,120.52c.15.5-.11,1.36-.41,1.64-.37.33-1.79.27-1.93-.2l-1.8-6.17c-.13-.44.41-1.43.71-1.69.36-.3,1.51.02,1.65.49l1.78,5.93Z"/>
        <rect class="cls-2" x="174.99" y="193.25" width="54.61" height="2.08" transform="translate(-45.82 63.48) rotate(-16.05)"/>
        <path class="cls-2" d="M248.68,153.31c3.13-1.19,6.29.66,7.33,3.52s-.54,6.2-3.34,7.27c-2.97,1.13-6.08-.38-7.31-3.13-1.28-2.87.07-6.41,3.32-7.65ZM254.54,158.26c-.24-2.17-2.2-3.74-4.38-3.5s-3.74,2.2-3.5,4.37,2.2,3.74,4.38,3.5,3.74-2.2,3.5-4.37Z"/>
        <path class="cls-2" d="M265.55,164.22c2.98-1.6,6.49-.27,7.89,2.52s.33,6.1-2.5,7.59-6.07.55-7.72-2.41c-1.34-2.4-.62-6.12,2.33-7.7ZM272.23,168.8c-.24-2.17-2.2-3.74-4.37-3.5s-3.74,2.2-3.5,4.37,2.2,3.74,4.37,3.5,3.74-2.2,3.5-4.37Z"/>
        <path class="cls-2" d="M135.73,186.11c3.22-.82,6.14,1.19,6.95,4.07.86,3.06-.99,6.2-3.91,7s-6.14-.86-7.01-3.69c-.97-3.15.75-6.57,3.97-7.38ZM141.12,191.26c-.24-2.18-2.2-3.74-4.38-3.5s-3.74,2.2-3.5,4.38,2.2,3.74,4.38,3.5,3.74-2.2,3.5-4.38Z"/>
        <path class="cls-2" d="M125.83,204.66c3.06-1.12,6.25.49,7.36,3.41,1.1,2.87-.37,6.2-3.28,7.21s-6.12,0-7.43-3.19c-1.12-2.72.22-6.29,3.35-7.43ZM131.77,209.62c-.24-2.18-2.21-3.75-4.39-3.51s-3.75,2.21-3.51,4.38,2.21,3.75,4.39,3.51,3.75-2.21,3.51-4.38Z"/>
        <path class="cls-2" d="M162.56,206.78l-7.65,2.11c-.31.09-1.05-.11-1.29-.23s-.16-1.11.2-1.22l11.7-3.45c.35-.1,1.28.34,1.32.64.04.37-.44.94-.83,1.06l-3.44,1.08Z"/>
        <path class="cls-2" d="M237.32,185.13c-.36.1-1.09-.12-1.23-.37-.18-.3.27-1.17.62-1.27l7.81-2.21,4.03-1.14c.25-.07.72-.12.94-.13.3-.01.56,1.18.28,1.29-1.26.49-3.74,1.37-5.22,1.79l-7.22,2.04Z"/>
        <path class="cls-2" d="M72.15,99.22l-5.4-17.69c-1.55-5.08.81-9.5,5.9-10.96l16.16-4.63,16.69-4.73c1.59-.45,2.99-1.07,4.8-1.45l60.55-17.45,5.52-1.62,42.34-12.15c1.75-.5,3.24-.86,4.92-1.37l14.8-4.48c4.85-1.47,10.09-.16,11.62,5.14l4.86,16.85c1.17,4.06-.42,8.59-4.74,9.9l-8.33,2.52-63.93,18.41c-1.79.62-3.28.97-5.11,1.5l-59.32,17.08-6.37,1.9-26.12,7.43c-3.33.95-7.77-.7-8.83-4.2Z"/>
        <path class="cls-2" d="M198.86,98.16l8.78,30.65-51.04,14.61-8.78-30.65,51.04-14.61ZM188.44,132.28l16.85-4.9-3.95-13.72-3.83-13.21-32.57,9.36-14.8,4.39,7.78,26.88,20.34-5.9,10.18-2.89Z"/>
        <path class="cls-2" d="M300.33,160.29c-4.39,1-9.17-2.09-7.56-3.8s2.12,2.28,7.17,1.36c3.61-.66,3.75-5.11,5.81-3.7,1.57,1.08-1.61,5.27-5.42,6.14Z"/>
        <path class="cls-2" d="M97.68,215.28c-2.91-.41,2.03-4.46-2.32-8.96-4.24-4.4-8.01-.15-8.7-2.39-.77-2.46,6.68-3.49,10.51.51,4.02,4.2,2.69,11.15.51,10.84Z"/>
        <g>
          <path class="cls-2" d="M281.15,97.81c2.08,18.64-11.35,35.43-30,37.51s-35.44-11.35-37.52-29.98,11.35-35.43,30-37.51c18.64-2.08,35.44,11.35,37.52,29.98ZM273.16,98.72c-1.58-14.23-14.41-24.48-28.64-22.89-14.23,1.59-24.49,14.4-22.9,28.63,1.58,14.23,14.41,24.48,28.64,22.89s24.49-14.4,22.9-28.63Z"/>
          <path class="cls-2" d="M251.13,121.9c-6.11,1.03-11.66-.32-16.49-4.07l4.12-4.39c.8-.85,1.28-1.78.52-2.92-.47-.7-2.14-1.07-2.93-.27l-4.61,4.72c-3.91-4.57-5.48-10.2-4.81-16.34l7.16,1.6c.81.18,1.66-1.21,1.61-1.86-.07-.97-.7-1.94-1.71-2.19l-6.07-1.52c1.97-5.67,6.12-9.89,11.77-12.27l2.14,6.84c.25.79,1.67,1.02,2.35.69.57-.28,1.38-1.45,1.19-2.16l-1.68-6.39c5.77-1.42,11.55.26,16.41,4l-4.82,5.17c-.51.54-.12,1.78.3,2.23s2.13.78,2.6.32l4.83-4.84c3.91,4.64,5.72,10.2,4.77,16.27l-7.33-1.58c-.52-.11-1.41,1.07-1.39,1.59.03.59.42,2.04,1.11,2.22l6.59,1.76c-1.98,5.7-6.12,10.01-11.74,12.28l-2.18-7.07c-.23-.75-1.93-.68-2.61-.31-.62.34-.98,1.59-.75,2.45l1.62,6.03Z"/>
        </g>
        <g>
          <path class="cls-2" d="M141.9,137.97c2.08,18.64-11.36,35.44-30,37.51-18.65,2.08-35.45-11.35-37.52-29.99-2.08-18.64,11.36-35.44,30-37.51,18.65-2.08,35.45,11.35,37.52,29.99ZM139.4,138.2c-1.92-17.27-17.49-29.71-34.76-27.78-17.27,1.92-29.72,17.48-27.79,34.75,1.92,17.27,17.49,29.71,34.76,27.78,17.27-1.92,29.72-17.48,27.79-34.75Z"/>
          <path class="cls-2" d="M137.64,138.4c1.81,16.29-9.93,30.97-26.22,32.79-16.3,1.82-30.98-9.92-32.8-26.21s9.93-30.97,26.22-32.79,30.98,9.92,32.8,26.21ZM133.89,138.88c-1.59-14.23-14.41-24.48-28.64-22.89s-24.49,14.41-22.9,28.64c1.59,14.23,14.41,24.48,28.64,22.89,14.23-1.59,24.49-14.41,22.9-28.64Z"/>
          <path class="cls-2" d="M111.92,162.09c-6,.96-11.68-.34-16.59-4.09l4.37-4.64c.87-.92.86-2.16.05-2.94-.93-.9-2.17-.59-3.02.29l-4.31,4.44c-3.93-4.64-5.52-10.34-4.76-16.39l6.73,1.6c.63.15,1.76-.7,1.96-1.28.25-.71-.11-2.26-.86-2.46l-6.8-1.81c2-5.52,5.98-9.83,11.74-12.26l1.81,5.88c.34,1.11,1.13,1.99,2.23,1.81.95-.15,2-1.19,1.71-2.24l-1.84-6.73c6.04-.8,11.64.48,16.51,4.32l-4.41,4.64c-.65.69-.68,1.93-.2,2.57.55.74,2.14,1.1,2.79.43l4.76-4.85c3.9,4.59,5.67,10.33,4.67,16.33l-6.38-1.52c-.84-.2-2.04.59-2.21,1.27-.25.97.13,2.24,1.16,2.51l6.53,1.71c-1.99,5.82-6.19,10.03-11.77,12.28l-1.79-5.97c-.4-1.33-1.21-1.91-2.57-1.59-1.1.26-1.59,1.39-1.23,2.65l1.72,6.04Z"/>
        </g>
      </g>
    </g>
    <g>
      <path class="cls-1" d="M91.6,75.81c.06.18.12.38.17.59s.11.43.17.64c.06.21.12.4.19.58.07.18.16.32.29.42-.02.12-.02.26.01.41.03.15.05.3.05.44,0,.14-.04.26-.12.35-.08.1-.22.15-.44.17-.08-.09-.17-.19-.24-.3-.08-.11-.16-.21-.24-.3-.08-.09-.18-.17-.28-.22-.1-.06-.22-.08-.36-.08-.12-.29-.3-.46-.56-.51-.26-.05-.54-.04-.85.04-.31.08-.62.19-.93.33-.32.14-.6.26-.85.36-.05.15-.09.31-.12.48-.03.17-.07.33-.11.48-.04.16-.09.31-.15.46-.06.15-.13.29-.23.42.2.06.37.17.51.34.14.17.29.32.44.47.15.15.33.25.53.32s.45.04.76-.1c.69.37,1.54.47,2.55.31.04.08.08.14.15.17s.13.06.19.09c.07.03.13.06.19.09.06.03.11.09.14.16.21-.1.39-.12.52-.06.13.06.25.13.35.23.1.1.21.2.31.29.1.1.23.15.4.15.04.18.1.33.17.45.07.12.16.22.25.32.09.1.18.19.27.28.09.1.17.21.24.34.04.12.06.21.05.28,0,.07-.02.13-.03.18-.01.05,0,.09.01.14.02.04.07.09.17.14-.08.03-.13.07-.13.13,0,.06,0,.14.04.22.03.08.06.17.1.26.04.09.06.17.07.23-.19.26-.33.55-.42.86-.09.31-.19.62-.3.92-.24.1-.46.21-.66.32-.21.11-.32.28-.33.5-.06-.03-.13-.03-.24,0-.1.02-.21.06-.31.11-.11.05-.21.11-.31.18-.1.07-.18.14-.22.21-.3.05-.64.12-1.02.21-.38.09-.79.19-1.2.3-.42.12-.84.24-1.27.38-.43.14-.83.29-1.21.46-.13-.26-.24-.54-.33-.84-.09-.3-.17-.6-.25-.92-.08-.31-.17-.63-.26-.95-.1-.32-.23-.65-.39-.97.07-.12.19-.22.36-.28.17-.06.36-.12.57-.16.04.21.12.34.26.38.14.05.27.09.41.12.17.42.41.73.71.92.31.19.65.29,1.04.3.38,0,.79-.05,1.23-.18.44-.13.87-.3,1.29-.5.18-.28.36-.56.53-.84.17-.28.26-.6.26-.98,0-.07,0-.11-.03-.12-.03,0-.06-.01-.09,0-.03,0-.06,0-.09-.02-.03-.02-.04-.06-.04-.13-.04-.06-.05-.1-.03-.12.02-.02.04-.04.07-.06.03-.02.05-.04.07-.06.02-.02,0-.06-.03-.12-.28-.45-.64-.75-1.08-.88-.44-.14-.94-.18-1.5-.12-.02-.07-.05-.12-.09-.15-.04-.02-.09-.04-.14-.06-.05-.01-.1-.03-.14-.06-.04-.02-.07-.07-.09-.15-.69.07-1.35.07-1.97,0-.62-.07-1.18-.24-1.69-.53,0-.13-.02-.24-.09-.33-.07-.09-.14-.17-.24-.24s-.18-.15-.28-.22c-.1-.08-.17-.17-.23-.28-.1-.19-.18-.4-.22-.62-.05-.22-.07-.44-.07-.66,0-.21.03-.41.09-.6.05-.19.13-.36.23-.5-.07-.14-.11-.25-.12-.32,0-.07.01-.14.05-.2.04-.06.09-.12.17-.18.07-.06.15-.15.23-.27.08-.12.16-.24.24-.37.08-.13.17-.26.27-.38.1-.12.23-.23.38-.33.15-.1.34-.17.57-.22.34-.17.68-.31,1.02-.42.34-.11.68-.22,1.04-.31.36-.09.72-.19,1.09-.3.37-.11.77-.24,1.18-.39Z"/>
      <path class="cls-1" d="M102.37,72.17c.11-.08.17-.06.18.03.02.1.04.18.07.26.77-.2,1.46-.26,2.05-.18.59.08,1.09.35,1.48.83.56.13,1.05.38,1.48.75.43.37.8.83,1.12,1.38.31.55.58,1.17.79,1.86.21.69.37,1.41.48,2.16-.07,0-.11,0-.12.03,0,.03-.01.06,0,.1,0,.04,0,.07-.01.1-.02.03-.06.04-.13.04.13.33.18.62.14.86-.04.24-.09.47-.18.68-.08.21-.17.43-.25.64-.08.21-.12.46-.11.73-.33.3-.67.63-1.03,1-.36.36-.75.7-1.17,1.01-.42.31-.89.58-1.42.8-.52.22-1.11.33-1.78.32-.07,0-.11,0-.13.04-.02.03-.02.06-.02.09,0,.03,0,.06-.02.09-.02.03-.06.04-.13.04-.21-.04-.42-.08-.62-.12-.21-.03-.46.02-.76.17-.28-.05-.54-.12-.8-.22-.25-.1-.5-.2-.75-.31-.25-.11-.49-.21-.75-.31-.25-.1-.52-.17-.81-.2-.03-.16-.1-.28-.19-.35-.09-.07-.18-.14-.28-.21-.09-.07-.18-.14-.26-.24-.08-.09-.13-.24-.15-.44-.31-.06-.54-.21-.71-.43-.17-.23-.31-.49-.41-.79-.1-.3-.2-.61-.28-.93-.09-.32-.2-.6-.34-.84-.26-1.33-.25-2.51.02-3.54.27-1.02.88-1.87,1.83-2.53.02-.28.13-.5.32-.66.19-.15.42-.28.69-.39.26-.1.53-.19.81-.27.28-.07.51-.17.7-.28.11.01.24,0,.39-.03.15-.03.3-.08.45-.15.15-.07.28-.15.39-.25s.18-.22.2-.35ZM98.87,75.81c.07.12.09.21.06.29-.03.07-.08.14-.15.2-.07.06-.14.12-.22.18-.08.06-.13.12-.15.18-.04.08-.05.16-.03.25.01.09.02.18.03.27,0,.09-.01.18-.04.25-.03.08-.1.14-.2.18,0,.39.05.83.12,1.33.07.5.18.99.32,1.47s.32.93.54,1.33c.22.4.49.69.81.88.02.06,0,.11-.07.13-.06.02-.07.07-.03.15.32.21.65.4.97.58.32.18.64.39.95.61.15,0,.31-.01.47-.04.17-.03.33-.05.49-.07.16-.02.31-.02.45,0,.14.01.26.06.36.15l2.59-.74c.03-.17.12-.3.27-.4.15-.1.35-.17.59-.21.04-.09.08-.19.12-.3.04-.11.08-.21.13-.31.05-.1.11-.19.19-.27.08-.08.18-.15.31-.19-.08-.41.07-.7.47-.85-.1-.28-.17-.58-.19-.9-.02-.32-.05-.63-.08-.95-.03-.31-.09-.62-.16-.91-.08-.29-.21-.55-.41-.78,0-.04.01-.06.04-.08.02-.02.04-.04.06-.06.02-.02.03-.05.03-.09,0-.03-.02-.08-.06-.14-.25-.3-.49-.62-.72-.97-.23-.35-.47-.68-.72-.99-.06,0-.12.02-.19.05-.07.03-.12.01-.16-.03-.11-.18-.24-.3-.39-.37-.15-.07-.32-.13-.49-.18-.18-.05-.35-.1-.52-.15-.17-.05-.32-.14-.45-.26-.22.11-.43.15-.62.12-.19-.03-.38-.07-.57-.11-.18-.04-.36-.05-.52-.04-.16.01-.33.12-.49.31-.1-.11-.22-.15-.34-.11-.13.04-.26.09-.39.16-.13.07-.25.13-.35.19-.11.05-.19.04-.26-.03-.11.11-.2.23-.29.35-.09.12-.18.24-.27.35-.09.11-.21.22-.34.32-.13.1-.29.18-.49.24ZM98.41,75.42l-.09-.32-.33.1c.02.3.16.37.43.22ZM109.27,80.88l-.09-.32-.34.1c.08.17.23.25.43.22Z"/>
      <path class="cls-1" d="M116.33,68.97c.38,0,.76-.05,1.14-.14.38-.09.75-.18,1.11-.29s.72-.2,1.07-.29c.35-.09.68-.14.98-.16.08.2.14.38.17.56.03.17.01.32-.05.45-.12.05-.25.09-.38.13-.13.04-.24.09-.34.15-.1.06-.18.13-.23.21-.06.09-.07.19-.05.32-.07.05-.14.1-.24.14-.09.04-.18.08-.26.13-.08.05-.14.1-.18.17-.04.07-.03.16,0,.27-.08.05-.13.04-.15-.02-.02-.06-.07-.08-.13-.07-.05.16-.08.35-.11.57-.08.05-.13.04-.15-.03-.02-.06-.07-.09-.13-.08-.22.53-.51,1.03-.87,1.5-.36.46-.7.93-1.01,1.42.01.09.04.15.08.18.04.03.08.06.12.09s.08.07.11.11c.03.05.04.13.04.23.15-.02.29,0,.4.06.11.06.21.13.31.21.1.08.2.15.3.21.1.06.23.09.38.08.12.29.28.5.49.64.21.14.42.25.65.35.22.1.44.21.65.33.21.12.38.31.51.57.23,0,.42.05.57.17.15.12.3.26.44.41.14.15.29.28.45.39s.36.15.62.11c.09.11.2.2.33.25.13.06.27.1.41.13s.28.05.43.08c.14.02.28.07.4.13l.23.82c-.1,0-.16,0-.19.03-.03.03-.06.06-.08.09-.02.03-.04.07-.06.1-.02.03-.06.06-.12.08-.25,0-.51.03-.77.08-.26.05-.52.12-.77.2-.25.08-.5.17-.73.26-.23.09-.44.19-.63.29-.08-.05-.18-.07-.3-.06s-.25.03-.38.07c-.13.04-.27.08-.41.14-.14.05-.28.09-.41.12-.08-.16-.12-.3-.13-.43s.01-.23.06-.32.12-.17.21-.23c.09-.07.19-.13.3-.2.06,0,.08-.03.07-.08,0-.05-.02-.1-.03-.15-.01-.05-.02-.09-.02-.12,0-.04.05-.05.14-.04-.25-.31-.5-.59-.76-.85-.26-.26-.55-.46-.88-.59l-.12-.42c-.22-.04-.41-.13-.56-.26-.15-.13-.31-.27-.47-.42-.16-.15-.32-.27-.48-.39-.17-.11-.37-.17-.61-.15,0-.14-.04-.23-.09-.27-.06-.04-.12-.07-.18-.1-.06-.02-.13-.05-.18-.09s-.09-.13-.09-.27l-.4.11c-.02.32,0,.67.07,1.07.07.39.17.79.29,1.19.12.4.26.79.41,1.18.15.39.29.74.43,1.04.15.05.3.09.45.13.15.04.29.1.42.18.13.08.25.2.34.34.09.15.16.35.2.6-.09,0-.2.03-.32.07-.12.05-.24.09-.35.14-.11.04-.22.07-.31.07-.09,0-.16-.03-.2-.11-.18.2-.41.33-.68.4-.27.06-.55.11-.84.14-.29.03-.57.08-.84.13-.27.06-.5.18-.67.38-.15-.07-.25-.22-.31-.44-.06-.22-.12-.44-.18-.65.35-.09.61-.23.75-.42.15-.19.23-.41.25-.65.02-.24,0-.51-.07-.79-.07-.28-.15-.57-.23-.86-.08-.29-.15-.56-.19-.83-.05-.26-.04-.5.01-.71-.07-.01-.13-.05-.17-.12-.04-.06-.11-.07-.22-.03,0-.09-.03-.2-.07-.32-.05-.12-.09-.24-.14-.35-.04-.11-.07-.22-.07-.31,0-.09.03-.16.11-.21-.21-.36-.35-.7-.43-1.04-.08-.33-.15-.66-.22-.99-.07-.33-.17-.65-.28-.98-.12-.33-.31-.67-.57-1.02-.04-.09-.11-.11-.23-.05-.11.06-.21.09-.28.09,0-.11-.01-.18-.04-.21-.03-.04-.07-.06-.12-.06-.05,0-.1,0-.16,0-.06,0-.1,0-.13-.03.01-.11.02-.19.02-.24,0-.05-.01-.09-.03-.12s-.04-.07-.08-.12c-.04-.05-.08-.13-.12-.24.13-.02.27-.05.43-.11.15-.06.3-.11.44-.16.14-.05.28-.08.41-.09.13-.01.24.01.33.08.16-.16.36-.28.6-.36.24-.08.48-.14.73-.19.25-.05.49-.1.73-.15.23-.05.42-.12.57-.22l.18.64c-.24.05-.44.12-.6.21-.16.1-.18.26-.08.5l-.32.09c-.01.2,0,.43.05.7.04.27.1.54.18.81.08.27.17.53.28.79.11.25.22.46.34.62.31-.17.56-.38.77-.62.2-.24.39-.49.55-.75.17-.26.34-.51.52-.77.18-.26.4-.49.67-.69-.06-.12-.09-.23-.08-.32,0-.09.01-.18.03-.26.02-.08.04-.16.06-.23.02-.08.04-.16.05-.26-.06-.1-.14-.17-.23-.21-.09-.04-.21-.03-.36.04-.02-.16-.08-.26-.16-.32-.09-.06-.18-.08-.3-.07-.02-.06-.02-.11,0-.15s.04-.07.06-.1c.02-.03.03-.07.04-.11,0-.04-.02-.1-.08-.18ZM112.47,72.02c.17-.02.27-.08.32-.16.05-.08.08-.18.08-.3l-.5.14.09.32ZM113.82,74.26l-.09-.32-.32.09c.02.3.15.37.41.23ZM113.29,71.79l.32-.09s-.04-.09-.05-.16-.02-.13-.03-.18c-.02-.05-.04-.09-.07-.12-.03-.03-.08-.02-.15,0,.02.06.02.11,0,.15-.02.03-.04.07-.06.1-.02.03-.03.07-.04.11s.02.1.08.18ZM114.77,76.97c-.05-.1-.12-.17-.22-.21-.09-.04-.21-.03-.35.03.05.1.12.17.22.21.09.04.21.03.35-.03ZM114.66,74.71l-.09-.32-.34.1c.01.3.16.37.43.22ZM115.89,80.85c.06,0,.11-.04.15-.1.05-.06.08-.13.09-.2.02-.07,0-.13-.02-.17-.03-.05-.1-.06-.2-.05.02.05.01.1,0,.13-.02.03-.04.07-.06.1-.02.03-.03.08-.03.12,0,.05.02.1.07.17ZM121.3,79.55s.07.04.14.05c.07,0,.15-.01.21-.04s.12-.06.15-.12c.03-.05.01-.12-.06-.19-.02-.03-.07-.04-.14-.05s-.15.01-.21.04c-.07.03-.12.07-.15.12-.03.05-.01.11.05.18ZM121.31,78.94l.16-.05-.09-.32-.16.05.09.32Z"/>
      <path class="cls-1" d="M134.72,63.75c.05-.02.1-.01.13,0,.03.02.07.04.1.06.03.02.07.03.11.04.04,0,.1-.02.18-.08.07.19.08.37.05.53-.03.17-.09.33-.16.48-.08.15-.16.31-.25.45-.09.15-.16.3-.19.44-.04.15-.04.3,0,.46.04.16.15.32.34.5-.05.07-.07.17-.07.28,0,.11.02.23.06.35.03.12.08.22.13.32.06.09.12.16.2.19-.03.26-.01.55.05.87.06.32.15.64.26.96.11.33.23.64.37.94.13.3.25.57.35.79-.08.16-.12.31-.12.45,0,.14.02.28.06.43s.1.3.17.45c.07.15.15.32.22.51-.19.16-.3.35-.33.59-.04.24-.07.47-.09.71s-.08.46-.16.66c-.09.2-.27.36-.55.46-.15.29-.36.53-.64.74-.28.21-.65.37-1.12.48,0,.06-.03.11-.06.14-.04.03-.08.07-.12.1-.04.03-.09.06-.13.1s-.07.08-.08.13c-.14.04-.27.08-.4.11s-.22,0-.29-.09c-.07,0-.12,0-.15.03-.03.02-.05.04-.06.07,0,.03-.02.05-.03.09,0,.03-.03.06-.06.08-.17,0-.31-.02-.41-.03-.1-.01-.2.07-.3.23-.17,0-.34,0-.5-.04-.16-.03-.31-.06-.47-.09-.15-.03-.31-.05-.48-.06-.16-.01-.34,0-.54.05l-.09-.32c-.22.05-.39.03-.52-.06-.13-.09-.25-.2-.35-.33-.11-.13-.22-.25-.34-.36-.12-.11-.27-.17-.46-.17-.18-.5-.38-.96-.61-1.36-.23-.41-.45-.82-.66-1.25.09-.14.1-.32.04-.54-.06-.22-.13-.45-.22-.68-.09-.23-.16-.46-.22-.68-.06-.22-.04-.4.04-.54-.08-.02-.15-.11-.23-.26-.08-.14-.14-.3-.19-.46-.05-.16-.08-.32-.1-.48s.01-.27.08-.33c-.23-.55-.51-.98-.85-1.3-.34-.32-.76-.51-1.26-.55-.14-.33-.17-.62-.07-.86.16-.08.32-.13.48-.14.16-.01.31-.02.44-.02.14,0,.27-.02.38-.05s.22-.12.31-.26c.26.04.49.03.68-.01.19-.05.37-.11.54-.2.17-.08.35-.17.54-.26.19-.09.41-.16.67-.23.03.19.08.34.15.47.07.12.15.22.24.3-.01.16-.07.3-.16.42-.1.11-.21.23-.32.33-.11.11-.21.22-.31.34-.09.12-.15.26-.17.41.09.24.17.5.24.77.07.28.14.55.2.82.07.28.15.53.24.77.09.24.2.43.34.58-.02.35.02.69.13,1.01.11.32.24.64.4.96s.31.65.47.98c.16.34.28.69.35,1.06.18.19.38.34.59.46.21.12.4.29.56.52l.5-.14c.01.09.05.14.11.17.06.02.12.03.18.03.06,0,.12,0,.19.02.06.01.11.05.14.12l1.3-.37c.3-.12.54-.28.71-.46.17-.19.31-.39.42-.61.11-.22.21-.45.29-.69.09-.24.2-.46.33-.68-.08-.2-.12-.4-.12-.61,0-.21,0-.41,0-.61,0-.2-.02-.39-.06-.56-.04-.17-.13-.32-.28-.44.03-.17.03-.37,0-.59-.03-.22-.13-.38-.31-.46.02-.12.04-.27.06-.43s.01-.34,0-.52c-.02-.18-.06-.35-.12-.5-.06-.16-.16-.28-.29-.38.13-.04.18-.07.15-.1-.03-.03-.06-.05-.11-.08-.05-.03-.09-.06-.11-.09-.03-.03.02-.07.14-.1-.15-.16-.27-.39-.37-.66-.1-.28-.21-.54-.33-.77-.12-.24-.27-.41-.46-.53-.19-.11-.45-.09-.79.06-.08-.17-.22-.25-.41-.23-.07-.2-.12-.39-.16-.57-.03-.18-.02-.33.04-.45.31-.12.63-.21.95-.26.32-.05.63-.1.93-.15.3-.05.58-.13.83-.23.25-.1.47-.27.64-.5Z"/>
      <path class="cls-1" d="M140.82,61.93c.11.1.22.19.32.28.11.09.26.1.46.03.07.19.15.34.27.44.11.11.23.2.35.29.12.09.25.18.37.28.12.1.22.22.3.37.15-.04.28-.05.39-.03.11.03.22.06.32.11.1.05.2.1.3.15.1.05.21.09.31.1.1.26.23.45.41.58.17.12.36.23.56.32.2.09.39.18.59.26.19.09.35.24.48.44.33.08.64.2.93.36.28.17.56.34.83.52s.54.37.82.55c.27.19.56.34.86.46.08-.05.13-.12.14-.24.01-.11,0-.23-.03-.35-.03-.12-.08-.24-.15-.34-.06-.1-.13-.17-.2-.21.09,0,.14-.02.15-.07s0-.1-.03-.16c-.02-.05-.03-.1-.03-.15,0-.05.05-.07.15-.06-.11-.03-.19-.11-.24-.24-.05-.14-.09-.28-.13-.45-.03-.16-.08-.31-.13-.44-.05-.13-.13-.21-.26-.23-.01-.37-.07-.74-.16-1.12s-.24-.72-.43-1.03-.45-.53-.75-.69c-.3-.16-.67-.21-1.1-.14-.13-.29-.18-.53-.15-.73.03-.2.11-.38.24-.53.61-.06,1.22-.19,1.84-.4.62-.21,1.28-.44,1.96-.69.19.16.33.35.44.54.11.19.14.43.09.71-.33.05-.57.19-.7.41-.14.22-.21.48-.21.76,0,.28.04.57.14.86.09.29.21.53.35.72-.02.17.02.39.12.67.1.28.21.57.32.88.11.31.21.63.3.94.08.31.09.58.03.8.07.16.15.34.23.54s.16.4.24.62c.07.21.13.43.18.64.04.21.06.42.05.63.12.23.24.47.36.73s.21.5.3.74c.09.24.16.47.21.68.06.21.08.4.08.55l-1.45.42c-.16-.2-.37-.31-.63-.34,0-.15-.04-.27-.08-.37-.05-.1-.09-.19-.14-.27-.05-.08-.1-.16-.15-.23-.06-.08-.1-.17-.14-.29-.18-.05-.33-.13-.47-.23-.14-.1-.28-.2-.42-.31-.14-.11-.29-.2-.44-.28-.15-.08-.33-.12-.52-.14-.18-.13-.35-.28-.51-.44-.16-.16-.33-.32-.49-.47-.16-.15-.34-.28-.53-.38-.19-.11-.41-.17-.64-.19-.18-.26-.39-.46-.64-.59-.24-.13-.49-.25-.74-.37-.25-.11-.49-.24-.73-.4-.23-.15-.43-.38-.59-.68-.15,0-.29-.03-.42-.07-.13-.04-.25-.1-.37-.16-.12-.06-.24-.13-.35-.2-.11-.07-.23-.14-.35-.19-.14.19-.19.38-.15.58.04.2.1.4.18.6.08.21.16.42.23.63.07.21.08.43.01.65.14.11.25.29.33.55.08.25.16.53.23.84.07.31.15.62.22.93.08.31.17.58.28.8.09.2.2.36.31.47.11.11.24.2.39.26.15.06.31.1.49.12.18.02.4.02.64.02.11.13.2.28.28.46.08.17.14.35.17.54.04.19.05.37.05.54,0,.17-.04.32-.11.45-.38-.05-.76-.04-1.13.05-.37.08-.74.19-1.11.32-.37.13-.76.26-1.15.39-.4.13-.81.21-1.24.23l-.37-1.3c.14-.04.24-.1.31-.18.07-.08.13-.17.19-.25.06-.09.13-.17.21-.24.08-.08.21-.13.37-.15.14-.36.17-.75.1-1.17-.07-.42-.17-.84-.31-1.28-.14-.43-.27-.87-.41-1.29-.13-.43-.2-.83-.19-1.2-.08-.09-.17-.23-.26-.42-.09-.19-.17-.38-.24-.59-.07-.21-.12-.41-.14-.61-.02-.2-.01-.37.03-.49-.1-.02-.17-.07-.22-.17-.05-.1-.09-.2-.12-.33-.03-.12-.06-.25-.09-.39-.03-.14-.06-.26-.1-.36-.11-.1-.23-.16-.37-.2-.14-.04-.28-.07-.43-.09-.15-.03-.29-.06-.42-.1-.13-.04-.25-.11-.36-.21-.05-.22-.06-.41-.04-.59s.04-.36.06-.55l2.59-.75Z"/>
      <path class="cls-1" d="M160.43,55.48c.11-.08.17-.06.18.03.02.1.04.18.07.26.77-.2,1.46-.26,2.05-.18.59.08,1.09.35,1.48.83.56.13,1.05.38,1.48.75.43.37.8.83,1.12,1.38.31.55.58,1.17.79,1.86.21.69.37,1.41.48,2.16-.07,0-.11,0-.12.03,0,.03-.01.06,0,.1,0,.04,0,.07-.01.1-.02.03-.06.04-.13.04.13.33.18.62.14.86-.04.24-.09.47-.18.68-.08.21-.16.43-.25.64-.08.21-.12.46-.11.73-.33.3-.67.63-1.03,1-.36.36-.75.7-1.17,1.01-.42.31-.9.58-1.42.8s-1.11.33-1.78.32c-.07,0-.11,0-.13.04-.02.03-.02.06-.02.09,0,.03,0,.06-.02.09-.02.03-.06.04-.13.04-.21-.04-.42-.08-.62-.12-.21-.03-.46.02-.77.17-.28-.05-.54-.12-.8-.22-.25-.1-.5-.2-.75-.31-.24-.11-.49-.21-.75-.31-.25-.1-.52-.17-.81-.2-.04-.16-.1-.28-.19-.35-.09-.07-.18-.14-.28-.21-.09-.07-.18-.14-.26-.24-.08-.09-.13-.24-.15-.44-.31-.06-.54-.21-.71-.43-.17-.23-.31-.49-.41-.79-.1-.3-.2-.61-.29-.93-.09-.32-.2-.6-.34-.84-.26-1.33-.25-2.51.02-3.54.27-1.02.88-1.87,1.83-2.53.02-.28.13-.5.32-.66.19-.15.42-.28.69-.39.26-.1.53-.19.81-.27.28-.07.51-.17.7-.28.11.01.24,0,.39-.03.15-.03.3-.08.45-.15.15-.07.28-.15.39-.25s.18-.22.2-.35ZM156.92,59.12c.07.12.09.21.06.29-.03.07-.08.14-.15.2-.07.06-.14.12-.22.18s-.13.12-.15.18c-.04.08-.05.16-.03.25.01.09.02.18.03.27,0,.09-.01.18-.04.25-.03.08-.1.14-.2.18,0,.39.05.83.12,1.33.07.5.18.99.32,1.47s.32.93.54,1.33c.22.4.49.69.81.88.02.06,0,.11-.07.13-.06.02-.07.07-.03.15.32.21.65.4.97.59s.64.39.95.61c.15,0,.31-.01.47-.04.17-.03.33-.05.49-.07.16-.02.31-.02.45,0,.14.01.26.06.36.15l2.59-.74c.03-.17.12-.3.27-.4.15-.1.35-.17.59-.21.04-.09.08-.19.12-.3.04-.11.08-.21.13-.31.05-.1.11-.19.19-.27.08-.08.18-.15.31-.19-.09-.41.07-.7.47-.84-.1-.28-.17-.58-.19-.9-.02-.32-.05-.63-.08-.95-.03-.31-.09-.62-.16-.91s-.21-.55-.41-.78c0-.04.01-.06.04-.08.02-.02.04-.04.06-.06.02-.02.03-.05.03-.09,0-.04-.02-.08-.06-.14-.25-.3-.49-.62-.72-.97-.23-.35-.47-.68-.72-.99-.06,0-.12.02-.19.05-.07.03-.12.01-.16-.03-.11-.18-.24-.3-.39-.37-.15-.07-.32-.13-.49-.18-.18-.05-.35-.1-.52-.15-.17-.05-.32-.14-.45-.26-.22.11-.43.15-.62.12-.19-.03-.38-.07-.57-.11-.18-.04-.36-.05-.52-.04-.16.01-.33.12-.49.31-.1-.11-.22-.15-.34-.11-.13.04-.26.09-.39.16-.13.07-.25.13-.35.19s-.19.04-.26-.03c-.11.11-.2.23-.29.35-.09.12-.18.24-.27.35-.09.11-.21.22-.34.32-.13.1-.29.18-.49.24ZM156.46,58.73l-.09-.32-.34.1c.02.3.16.37.43.22ZM167.33,64.19l-.09-.32-.34.1c.08.17.23.25.43.22Z"/>
    </g>
    <g>
      <path class="cls-1" d="M178.65,61.67c.06.2.03.36-.07.5-.1.14-.23.23-.39.27-.16.05-.31.04-.47-.02-.16-.06-.27-.19-.32-.39-.48-1.66-.93-3.33-1.37-4.99-.43-1.66-.81-3.34-1.13-5.04-.03-.18,0-.34.07-.48.08-.14.18-.23.31-.28s.26-.06.41-.03.28.12.39.27c.38.53.74,1.07,1.09,1.62.35.55.7,1.1,1.04,1.65.35.55.7,1.1,1.05,1.65s.72,1.08,1.11,1.6c.15-1.52.25-3.03.29-4.53.05-1.5,0-3.01-.15-4.54-.01-.16.03-.3.12-.41.09-.11.21-.18.35-.22.14-.04.28-.04.41,0,.14.04.24.13.32.28.22.44.38.9.48,1.36.1.46.22.92.36,1.39.14.5.31.98.51,1.44.2.46.38.93.57,1.41.36.95.71,1.91,1.03,2.88.32.97.64,1.93.95,2.9.06.21.04.38-.05.51-.1.14-.22.23-.38.27-.16.05-.32.04-.48-.02-.16-.06-.28-.19-.34-.4-.3-.97-.62-1.94-.94-2.9-.33-.96-.67-1.93-1.04-2.88-.07-.17-.14-.35-.21-.53-.07-.18-.14-.36-.21-.53-.03,1.03-.09,2.06-.17,3.07-.09,1.02-.18,2.04-.3,3.06-.02.14-.06.27-.13.39s-.18.2-.33.24c-.1.03-.22.03-.34,0-.12-.03-.22-.08-.3-.16-.68-.8-1.3-1.63-1.87-2.49s-1.13-1.74-1.68-2.63c.27,1.13.55,2.25.86,3.36.3,1.11.61,2.23.93,3.34Z"/>
      <path class="cls-1" d="M187.15,51.62c-.08,0-.16-.01-.25-.04-.09-.03-.16-.07-.21-.13-.06-.07-.1-.14-.14-.2s-.07-.13-.09-.21c-.03-.09-.04-.19-.03-.29-.01-.2.03-.36.13-.48.02-.07.07-.14.13-.19.09-.11.21-.18.36-.23.14-.05.29-.05.42,0,.06.03.13.06.19.09.07.03.12.08.18.14.04.05.08.1.12.15.04.06.07.12.08.18.01.08.02.15.03.21,0,.07,0,.13-.03.19-.03.09-.06.15-.08.19-.02.04-.06.1-.12.17-.03.05-.08.1-.16.15-.18.19-.36.28-.53.29ZM188.46,59.02c-.06-.52-.1-1.04-.14-1.56-.03-.51-.09-1.03-.18-1.54-.1-.5-.23-.98-.39-1.45-.16-.47-.27-.95-.33-1.47-.03-.17.03-.32.18-.46.15-.13.3-.2.46-.2.19,0,.34.06.45.19.11.13.18.28.2.45.03.25.08.5.16.75.08.25.16.5.24.74.14.48.24.97.32,1.46.08.52.14,1.03.18,1.54.04.51.09,1.02.14,1.53.02.18-.05.33-.19.46-.14.13-.29.2-.45.2-.19,0-.35-.06-.46-.19-.11-.13-.18-.27-.2-.45Z"/>
      <path class="cls-1" d="M192.56,56.4c.3-.52.6-1.03.89-1.53.29-.51.55-1.04.77-1.6-.45-.3-.89-.61-1.32-.92-.43-.31-.87-.63-1.29-.95-.16-.11-.26-.24-.32-.4-.05-.15-.03-.32.06-.49.08-.15.21-.25.39-.32.18-.06.34-.04.48.06.4.29.8.58,1.2.87.4.29.8.58,1.21.85.1-.42.2-.85.27-1.28.08-.43.16-.86.25-1.29.04-.2.14-.34.3-.41.15-.07.31-.08.46-.04.15.04.29.13.4.27.11.14.15.31.11.51-.11.52-.21,1.02-.31,1.52-.09.5-.21,1-.36,1.51.54.39,1.08.77,1.63,1.15.55.38,1.1.77,1.65,1.15.15.1.26.23.32.39.06.16.04.33-.06.5-.08.15-.21.25-.38.31-.17.06-.34.04-.49-.06-.52-.37-1.04-.73-1.57-1.1-.52-.36-1.04-.73-1.57-1.1-.22.53-.47,1.03-.74,1.52-.28.49-.56.98-.86,1.47-.11.18-.25.28-.42.31-.17.03-.33,0-.47-.08-.14-.08-.24-.19-.3-.35-.06-.16-.04-.32.07-.5Z"/>
      <path class="cls-1" d="M204.49,48.68c.2-.06.36-.04.5.06.14.1.22.22.27.38s.04.31-.02.47c-.06.16-.19.27-.39.32-.25.08-.49.15-.74.21-.25.06-.5.11-.74.16.25.82.47,1.64.67,2.48.2.83.35,1.67.45,2.52.03.18-.03.34-.17.47-.14.13-.3.19-.47.19-.19,0-.34-.06-.45-.18-.11-.12-.17-.27-.19-.46-.1-.83-.26-1.64-.47-2.43-.21-.8-.44-1.59-.69-2.39-.41.05-.83.1-1.26.15-.43.05-.84.1-1.25.17-.18.03-.34-.03-.46-.18-.13-.15-.19-.3-.19-.46,0-.19.06-.34.19-.45.13-.11.27-.18.45-.21.36-.05.72-.09,1.08-.13.36-.04.72-.09,1.09-.14-.03-.05-.05-.13-.08-.23-.27-.94-.54-1.86-.81-2.78-.27-.91-.49-1.85-.67-2.82-.03-.17,0-.34.07-.49.07-.16.2-.26.37-.31.16-.05.32-.03.5.06.18.09.28.21.31.39.18,1.03.42,2.03.71,3.02.29.98.59,1.97.9,2.98.26-.05.51-.1.76-.16.25-.06.51-.12.76-.19Z"/>
      <path class="cls-1" d="M209.63,52.64c-.4-.06-.74-.19-1.02-.41-.28-.22-.51-.48-.68-.79-.17-.31-.3-.65-.37-1.02-.07-.37-.1-.73-.08-1.1.02-.29.05-.59.09-.9.04-.32.11-.62.2-.9.1-.29.24-.55.42-.79.18-.24.42-.43.72-.57.31-.15.63-.26.96-.34.33-.08.67-.14,1-.18.15-.02.3-.03.45-.02.15,0,.3.02.45.03-.03-.16,0-.31.1-.45.1-.14.22-.23.37-.28.18-.05.34-.03.48.06.14.09.25.21.32.37.19.46.35.94.48,1.42.13.48.25.96.37,1.45.11.49.23.97.35,1.45.12.48.26.96.42,1.43.07.2.05.36-.05.5-.1.14-.23.23-.39.27-.16.05-.31.04-.47-.02-.16-.06-.27-.19-.34-.38-.52.42-1.11.74-1.76.97-.66.23-1.32.29-2.01.2ZM208.77,49.22c0,.21,0,.43.01.69.02.25.07.49.15.7s.21.39.38.54c.17.15.39.22.67.22.58.01,1.13-.09,1.64-.32.51-.23.96-.56,1.35-.99-.11-.52-.21-1.03-.32-1.51-.11-.49-.24-.97-.39-1.46-.21-.06-.42-.11-.63-.15-.21-.04-.42-.04-.65,0-.23.03-.47.08-.71.13-.25.06-.49.13-.71.21-.02,0-.07.03-.15.09-.08.05-.13.08-.13.1-.09.08-.16.19-.21.33-.08.23-.14.46-.19.7-.04.24-.07.49-.1.73Z"/>
      <path class="cls-1" d="M220.48,54.84c.07.19.06.36-.04.49-.09.13-.21.22-.37.27-.16.05-.32.04-.48-.02-.16-.06-.28-.19-.35-.38-.59-1.63-1.14-3.28-1.64-4.93-.5-1.65-1.02-3.3-1.57-4.95-.21-.19-.29-.4-.22-.65-.04-.11-.08-.22-.12-.31s-.07-.2-.12-.31c-.06-.18-.05-.34.03-.47.09-.13.2-.23.35-.28.15-.05.3-.06.46,0,.16.05.28.16.36.33.15-.13.3-.26.44-.38s.29-.24.44-.36c.13-.1.27-.21.43-.32.16-.11.33-.21.51-.29.18-.08.36-.15.54-.21s.36-.07.53-.05c.35.03.66.15.93.34.27.19.52.42.75.68.21.26.41.51.61.78.2.26.35.55.45.86.1.32.14.63.12.95-.02.31-.09.61-.21.89-.12.28-.27.55-.47.8s-.42.48-.67.68c-.26.22-.54.43-.83.63-.29.2-.6.36-.93.49-.14.06-.28.1-.42.1-.14,0-.27,0-.4-.02.3.96.6,1.91.9,2.85.3.94.62,1.88.95,2.82ZM217.28,44.93c.16.47.31.94.46,1.41s.3.94.46,1.41c.07.02.15.04.22.06.07.02.15.04.24.06.1.03.17.04.23.03.05-.01.13-.04.24-.1.21-.12.43-.24.64-.36s.41-.27.59-.43c.17-.15.33-.31.48-.47.15-.16.26-.35.36-.57.06-.14.1-.29.1-.46,0-.17-.02-.34-.09-.51-.07-.21-.18-.4-.33-.6-.15-.19-.3-.37-.43-.53-.08-.08-.16-.16-.23-.25-.07-.09-.16-.16-.24-.23-.12-.07-.21-.1-.27-.11-.3.06-.55.15-.75.27-.2.12-.4.25-.59.4-.19.15-.37.31-.55.47-.18.16-.35.33-.52.49Z"/>
      <path class="cls-1" d="M224.72,42.2c.12-.33.29-.63.5-.92.22-.29.46-.54.74-.74.28-.21.58-.37.91-.47.33-.1.68-.13,1.05-.09.36.03.7.12,1.02.26.32.14.6.35.84.64.19.22.33.47.44.75.1.29.1.57,0,.86-.09.26-.24.48-.43.66-.19.18-.41.33-.65.46-.24.13-.49.23-.76.3-.27.08-.52.14-.76.2-.27.07-.55.12-.82.17-.27.04-.55.09-.83.14.22.44.5.81.86,1.11.36.29.77.47,1.25.53.13,0,.22.01.29.02.03,0,.06,0,.09,0,.03,0,.06,0,.09-.02.09-.01.16-.03.22-.04.06-.01.11-.03.16-.05.07-.03.12-.05.14-.07.02-.01.05-.03.08-.05.11-.06.2-.13.27-.2.08-.07.16-.17.26-.3.05-.07.11-.17.18-.31s.14-.25.19-.36c.06-.18.16-.31.3-.41.14-.1.3-.12.48-.07.16.04.29.14.4.3.11.15.13.32.07.5-.18.49-.44.94-.77,1.34-.33.4-.76.69-1.28.87-.42.14-.85.19-1.3.13-.44-.06-.86-.19-1.25-.39-.48-.26-.9-.59-1.25-1.01-.36-.42-.62-.87-.78-1.36-.11-.05-.21-.12-.29-.21-.08-.09-.13-.2-.14-.32-.02-.12,0-.24.03-.35.03-.12.11-.21.22-.28,0-.42.08-.83.22-1.23ZM228.57,41.5c-.16-.11-.37-.19-.64-.24-.22-.03-.46,0-.73.08-.27.08-.48.19-.64.34-.21.18-.37.4-.5.66-.13.26-.21.53-.26.81.26-.04.52-.08.78-.12.26-.04.51-.09.77-.15.13-.04.27-.08.41-.12s.27-.08.4-.13c.04-.01.08-.03.12-.04.03-.02.07-.03.11-.04.09-.05.15-.08.2-.1.05-.02.09-.05.14-.08.04-.02.09-.05.14-.09.04-.04.07-.06.08-.07,0-.01.02-.03.04-.05v-.2s-.06-.07-.08-.11c-.02-.03-.04-.07-.07-.09-.02-.03-.06-.07-.11-.12-.05-.05-.1-.1-.15-.13Z"/>
    </g>
  </g>
</svg>