<?xml version="1.0" encoding="UTF-8"?>
<svg id="Layer_2" data-name="Layer 2" xmlns="http://www.w3.org/2000/svg" viewBox="0 0 218.48 220.24">
  <defs>
    <style>
      .cls-1 {
        fill: #975399;
      }
    </style>
  </defs>
  <g id="Layer_1-2" data-name="Layer 1">
    <g id="UCV9WI">
      <g>
        <path class="cls-1" d="M215.83,75.71c-.12-.43-.55-1.23-.79-1.59-.34-.51-.73-.88-.87-1.5-.37-1.73-1.25-5.24-2.37-6.46l-.07,1.51-.97-.25-.36.3c.38.95.77,1.87,1.03,2.86.75,2.81,1.48,5.55,2.62,8.22.21.5.28.98.45,1.49l1.4,4.31c1.74,5.36-1.33,11.54-7.08,13.32l-9.17,2.84,1.36.22c-.75.28-1.49.37-2.35.47-3.41.38-1.95.93-4.8,1.53l-.2-2.34-4.33,6.4,2.15-.62c.08,1.54.16,3.14.12,4.74-.01.45-.52,1.03-.3,1.5.16.36.06.63,0,1.01-.25,1.35-.41,2.64-.57,3.94l.67-1.56c.32.73-.09,1.44-.1,2.15-.02,1.68-.1,3.29-.72,4.89l-.13-.89-.88,5.42-2.23-1.02,2.24,4.83c.52-.3.85.29,1.04.7l-1.42-.68c-.18-.08-.45-.15-.48-.28l-.17-.72-.18.77c-.1.41,1.45.24,1.36,1.54-.09,1.45.68,1.58,1.8,2.51l2.6.93-2.38-1.37.15-1.34.51.44c.09.08-.04.25-.22.53.49.34,1.02.63,1.74.75l-.97-.67-.43-1.9,12.54,6.26c3.53,1.76,5.64,4.77,6.61,8.56.37,1.43.17,2.77,0,4.35-.13,1.21.27,2.64,0,3.91-.31.09-.77-.2-.9-.4-.1.21-.52.42-.96.46-.85,1.52-1.7,3.17-2.46,4.8-1.41,3.05-1.38,3.55-3.41,6.25-1.98,2.63-1.89,3.34-4.89,5.91-.76.65-1.64.71-2.51.96-1.11.32-2.17.62-3.29.74-1.09.12-1.75-.32-2.52-.9-.77-.59-2.02-.92-3.06-1.42l-6.34-3.02c-1.48-.71-2.89-1.43-4.23-2.36-.45-.31-.84-.67-1.46-.48,1.92,1.37,4.22,2.1,5.89,3.4-2.27-.73-4.24-1.77-6.26-2.8.06-.38.08-.56,0-.24-.29.03-.38.06-.37,0,.01-.05.05-.32.09-.36l1.12-1.27,12.41,6.6c1.11.59,2.26.9,3.55.94.33-.1.4-.15,0-.17l-1.8-.38c-.06-.01-.27-.2-.41-.32-.16,0-.14,0,.07,0,3.88.63,8.04-.39,10.7-3.46l.93-.39c.92-1.22,1.67-2.44,2.12-3.93l-1.2,1.49,3.46-7.91c-.64.46-.85,1.24-1.21,1.97l-2.76,5.56c-1.6,3.22-3.84,4.75-7.43,5.6l1.24.12c-2.11.93-4.39.53-6.54-.33-.57-.23-.89-.49-1.36-.87-.54-.44-1.53-.59-2.14-1.02-.69-.48-1.38-1.13-1.89-1.57-1.48-1.26-3.62-1.94-5.36-3.29-.29-.22-.47-.25-.8-.41l-5.37-2.61c-2.24,2.57-4.08,5.17-6.43,7.44l-4.14,4c-1.57,1.52-3.21,2.85-4.97,4.18.13-.1-2.76,1.65-2.73,1.55l-.14.55c-1.03.66-2.08,1.42-3.18,1.99l-1.27.66c-.17.09-.53.4-.49.57.29,1.13.65,2.15,1.1,3.27l-2.49,1.66c-.35.22-.31.21.07.08l2.85-.8c.64,1.01-.24,1.87.1,1.78l.5-.14,1.37,4.4.06,1.02,1.69,5.74c.82,2.78.74,4.09-.73,6.78-.99,1.82-2.53,3.16-4.48,3.81l-5.43,1.81c-.15.14-.48.49-.67.55l-8.37,2.8c-.56.19-1.15.31-1.52.67-4.54.5-8.25-2.81-9.15-7.11-.74-3.53-2.29-6.68-3.36-10.08l.45-.32c-.23-.17-.78-.49-.86-.73l-1.56-4.61-5.97.24-6.94.23c-.22,0-.58-.17-.84-.33l2.1-.07c-.07-.03-.14-.07-.21-.1l-2.79-.35c.23.43.25.48.17.36l-1.17.13.44.36c-1,.2-2-.06-3.09-.2l-4.43-.55c-.83-.1-1.56-.37-2.38-.49l-6.43-.94-1.53,3.73-1.13.58s-.04.11-.06.15l.58.25-1.91,3.91-.8.71-1.5,4.1c-.22.59-.89,1.47-1.35,1.81-.46.34-3.75,4.78-6.59,4.71l-1.55-.04c-1.95-.05-3.39-.49-5.01-1.35l-12.36-6.57c-4.75-2.53-6.48-8.1-3.91-12.8.15-.27.14-.95.35-1.27.81-1.25,1.59-2.46,2.15-3.79.3-.71.52-1.12,1.09-1.69.5-.5.75-1.4,1.21-2.05l1.62,1.47c.05.05.15.12.19.15.04.03.04-.24.03-.3l-.66-3.66,1.52-2.97-4.11-3.46c-.21-.19-.46-.81-.74-.91-.49-.18-.58-.79-.87-1.04l-2.1-1.8c-.58-.5-1.39-.79-2.13-.95-1.46-1.67-2.87-3.26-4.46-4.83-.3-.29-.42-.91-.47-1.27-2.43-3.12-4.02-6.14-6.55-9.22l-1.84.6c-2.1.68-1.42-.17-1.72.42-.04.09-.23.26-.35.3-2.53.9-5.1,1.43-7.53,2.51-1.32.59-2.48,1.25-4,1.46-1.39.19-2.82.15-4.18-.12-.06.61-.43,1.17-1.04,1.19l-1.93.04-.12-.8c-.03-.2.34-.49.54-.49h.89c.1.01.3-.12.38-.16.07-.04-.14-.34-.22-.35l-1.26-.18-.78-.96-.17.94c-.04.19-1.32.25-1.3-.08l.05-1.14c.03-.64-.09-1.12-.7-1.38v2.73s-1.36,0-1.36,0v-.33s0-.34,0-.34v-.34s0-.34,0-.34l-.02-3.42c-.34.05-.43.08-.47.15l-.06,4.64c.91,1.43,2.66,2.18,4.26,2.88,3.84,1.67,8.15,1.35,11.96-.27.72-.31,1.39-.81,2.18-1.02l7.35-2,3.38,5.48c-.13-1.8,2.99,3.12,3.06,3.23.92,1.43,3.38,4.93,4.8,5.56l4.76,5.96c.64.8.2.96.27,1.02-.06-.06-.48-.12-.53-.05-.62.9-1.57,2.64-2.1,3.81l-3.19,7.04c-.55,1.22-.94,2.92-1.19,4.12-.03.14.2.44.21.56.13,1.09.17,2.91.39,4.16.47,2.7,1.58,5.02,3.37,6.98,1.07,1.17,2.29,1.8,3.65,2.56l1.62.91c2.88,1.62,6.16,2.55,8.95,4.37,3.98,2.6,8.31,4.2,13.19,2.47,1.33-.47,2.78-1.1,4.06-1.93.3-.19.95-.35,1.2-.54,1.58-1.18,2.68-2.8,3.61-4.51l1.62-2.96c1.48-2.71,2.81-5.44,3.95-8.26,1.83.36,3.52.84,5.32.96l6.24.39c.48.03,1.03.35,1.54.37l5.26.2,1.04-.89c.06-.05.22-.3.17-.34l-.31-.26-.39.51c-.09.11-.58.03-.68-.06-.25-.24.25-1.01.58-1.16.37-.18,1.11-.17,1.45.28.25.34.43,1.46,0,1.92-.04.05.29.12.35.12l4.37-.15.53,1.61,3.33,11.07c1.46,4.86,5.51,9.24,10.87,9.33.28,0,.64.07.99.16.11-.06.25-.1.4-.1h2.26l.13-.05s.02,0,.03,0l-1.28-.18,1.39-.33c.23-.05.58-.4.51-.53l-.4.09c-.06.01-.13-.26-.12-.33.09-.59.68-1.06,1.26-1.01.55.05.94.59,1.08,1.16l2.8-.5-1.71.77c2.19-.26,3.97-1.06,5.93-1.57l3.91-1.02c1.65-.43,3.18-.95,4.78-1.51,6.39-2.21,10.41-8.53,9.61-15.19-.43-.32-1.11-.26-1.54-.14-.31.09-.78-.59-.76-.91.06-1.14.6-1.02,1.59-1.9.09-.08-.33-.52-.4-.42l-.36.48-.79.02c0-.23.08-.81.26-.97.18-.17.58-.27,1.03-.42l-3.8-12.36,2.53-1.73h.85s2.28-2.26,2.28-2.26c2.27-2.25,1.88-.94,2.82-1.9,1.61-1.63,3.05-3.41,4.92-4.72.76-.53,1.34-.94,1.96-1.64l2.75-3.12,11.16,5.91c3.65,1.93,7.61,3.09,11.75,1.83,3.77-1.15,6.76-3.87,8.64-7.27.24-.43.2-.66.26-1.18.08-.67.6-1.81,1.07-2.25.3-.27.73-.5.95-.89l4.03-7.16c.44-.78.85-1.39,1.14-2.29.77-2.38,1.58-5.11.69-7.58-.21-.59,0-1.11-.11-1.64-.68-3.64-3.38-6.86-6.68-8.61l-14.77-7.82,1.33-4.35c.12-.39.04-1.09,0-1.54-.07-1.06,0-2.06.05-3.13l.12-2.1c.13-2.36.41-4.67.33-7.02l-.19-5.29,15.42-5.15c4.79-1.6,8.07-5.48,9.1-10.27v-5.09l-2.66-9.38ZM43.11,163.42l3,3.18.61,1.35c-.55-.25-3.58-3.75-3.6-4.53ZM78.42,209.21c.31-.75,1.12-1.46,1.37-2.27l.7-2.25h1.41c-1.03,2.14-1.2,3.34-3.48,4.53ZM109.78,194.87l-4.03.02-.33-.02c-.06,0,.26-.28.34-.28l4.95-.24c-.14.22-.61.51-.93.52ZM116.51,194.27c.08-.3.82-.45,1.01-.27.31.44.61,1.05.91,1.74-.42-.08-.72-.47-1.02-.72-.3-.07-1.02-.28-.9-.74ZM118.23,197.95c.42-.14.94-.17,1.35-.07l1.43,3.42.22,1.34c.19,1.14.8,2.02,1.13,3.27l-4.12-7.96ZM121.87,210.53l-1.62-3.85c-.13-.32-.14-.72-.18-1.09-.12-1.12-.93-2.12-.95-3.28,1.38,2.36,2.11,4.82,3.02,7.26l.67,1.78c-.54-.14-.77-.43-.94-.82ZM142.36,215.24c-1.18.5-2.06,1.32-3.61,1.43l.72-.53-1.7.46c-.38.09-1.17-.41-1.35-.75-.27-.5.11-1.19.65-1.33,3.25-.82,6.36-1.61,9.84-2.18-.31.6-.83.72-1.3,1.1l-1.07.88-2.18.93ZM147.05,213.89l-1.47.11c.41-.22,1.2-.7,1.66-.7h1.43c-.47.24-1.11.56-1.61.6ZM178.02,164.44l1.41,1.11c-.89.51-1.56.15-2.25-.38l.84-.72ZM152.04,183.31c-.16-.27-.32-.63-.33-.86-.02-.3.69-.7.85-.43l-.51,1.29ZM156.43,195l.3-.42c2.01,5.82,1.69,5.42.27,10.86-.09.35.09.67-.5.66.54-2.25.29-4.38-.05-6.61-.1-.62-.04-1.26-.24-1.92l-3.35-11.27c.22-.24.48-.46.78-.69.29.42.49.88.4,1.31.14.71.53,1.49.87,2.31l-.12.76,1.3,4.62c.04.14.3.43.35.37ZM169.46,168.79l-4.83,4.83c-.31.31-.75.57-1.14.77-1.3.67-1.35,2.11-3.16,2.74l-.7,1.12,2.42-1.85c-1.86,2.15-3.96,3.72-6.39,5.31-.04-.22.04-.48.13-.56l-.33.02c-.08,0-.02-.35.04-.41l.91-.96c-.56.05-.72.22-1.24.52l-.2-.79,2.39-2.19,4.74-4.41c.7-.65,1.36-1.38,2.13-1.92.36-.25.83-.42,1.15-.71,1.5-1.41,2.75-2.86,4.02-4.54.47.08.97.48,1.31.76.19.04.57.13.75.2l-2.01,2.06ZM172.18,165.02c-.15.04-.46.33-.55.25l-.37-.32-1.16-.19,2.43-3.18,3.84,1.97c-2.64,1.28-3.26-1.81-3.93-.04.66-.44,1.19.27,1.81.5l-.69.16,1.23.18-2.6.68Z"/>
        <path class="cls-1" d="M88.98,0c1.8.4,3.61.74,5.3,1.64,2.91,1.54,5.15,3.9,6.29,7,1.55,4.18.56,1.27.9,4.1.26,2.15,1.24,3.59,1.13,3.91-.02.06-.18.11-.14.24l2.36,6.65,4.69.18,1.64.18c1.02.11,7.84.32,8.9.6l1.51.4-4.96-.44c-1.53-.14-2.98.07-4.82.06l2.31.52c-1.34.17-2.64-.01-4.1-.12s-.85-.81-4.12-.49c.14.75.31,1.52.53,2.22.76.34,1.61.26,2.42.12,2.43-.41,4.8-.45,7.29-.25.94.08,1.92.56,2.86.78,1.58.38,3.18.3,4.81.63l3.91.79c.15.03.66-.01.6-.12s-.24-.54-.36-.57l-3.09-.71c1-.11,1.92.03,2.93.11l.48-1.18-.22,1.35c1.03-.4.34-1.06,1.3-2.14.69-.78,1.23-1.48,2.25-1.99.12.74-.12,1.31-.45,1.87l-1.25,2.14c.37.14.7.24,1.04.29l1.66-3.45.23-.99,4.42-9.13c3.03-6.26,10.57-8.51,16.79-5.46,1.07.52,2.09.92,3.19,1.39,1.3.54,2.48,1.15,3.75,1.8.2.11.77.16.98.3l2.74,1.74c-1.34.09-1.82-1.24-2.6-1.15.96.73,1.95,1.45,3.03,1.86.72.27,1.68-.06,2.08.83.63,1.38.44-.84,2.92,2.02,3.59,4.13,4.8,8.59,3,13.89-.16.47-.17,1.11-.46,1.52l-1.16,1.62-1.03,1.35c.16.39.21.45.18.07.38-.28.53-.39.83-.45l-6.46,11.96,3.72,3.64c1.12,1.09,2.12,2.23,3.13,3.43l1.88,2.24,2.2,2.54c.06.07.17.19.18.2,0,0-.09.13-.17.25,2.05,2.01,3.54,4.38,4.94,7.08,2.05-.35,3.97-.98,5.89-1.7.43.04,1.1.11,1.51.07l3.3-.36c.19-.02.47.13.81.39.22.01-.04.15-.27.26l-3.2,1.04-4.31,1.58c-1.49.55-2.99.73-4.57,1.04l-2.51-3.77c-.28-.16-.81-.48-.98-.71l-.76-1.01-3.97-5.51c-1.23-1.71-2.56-3.26-4.08-4.74l-5.61-5.49,8.31-16.64c2.01-4.02,1.03-8.71-2.12-11.82l-.06-1.02c-.78.1-1.38-.06-1.99-.49-.89-.63-1.89-.98-2.83-1.42-1.15-.54-2.3-.84-3.48-1.31-2.08-.84-5.13-3.92-5.98-3.11-1.08-.46-2.32-1.09-3.5-1.38-4.26-1.04-8.57.83-10.68,4.65-1.37,2.48-2.51,4.92-3.72,7.49-.12.26-.51.67-.76.73-.58.14-.3.78-.45,1.1l-3.59,7.57-2.51-.69-3.12,2.09.07-1.26c.02-.36.37-.95.57-1.51-1.83-.48-3.52-.88-5.4-1.28-1.44-.3-.14-.85-3.42-.93l-.72.28-6.61-.35c-.91-.05-1.78.09-2.73.16l.14.53c.04.16.11.29.03.29h-.31s.3,1.39.3,1.39l-1.65-1.15-.1-.94h-4.28s-.75-2.34-.75-2.34l-4.07-2.07,1.65-.34-1.41-1.36,2.1.09-.58-.98.8.11-3.32-10.54c-.74-2.36-1.57-2.85-3.5-4.47l.14.68c-1.56-1.21-3.06-1.62-4.83-1.93-.96-.17-1.82-.39-2.82-.12-1.68.46-3.26,1.13-4.8,1.8l-.14-.26c-.06-.12-1.73.4-2.17.6l-2.96,1.34c-.07.03-.38-.36-.44-.33l-4.61,1.42.69.35c-4.93,1.42-7.89,6.33-6.43,11.3l3.2,10.88,3.37-2.08-2.2,5.94.5,1.8-1.59.99-2.08,5.33-1.22-3.38-4.08,2.57c-2.05,1.29-3.97,2.62-5.81,4.19-.5.43-.99.78-1.66,1.09l1.35-1.39c-1.28.76-2.41,1.58-3.5,2.65-.32.32-.62,1.07-.93,1.55l.81-.22-2.34,2.66,1.14.7-1.78.42-2.32,2.66-3.37-1.71c-.34-.17-1.11.06-1.56.07l.47-.67-9.71-5.45c-4.83-2.71-10.49-.94-13.32,3.62-1.28,2.06-2.41,4.17-3.56,6.26-.13.13-.54.42-.62.6l-3,6.81c-.88,2-1.23,4.28-.89,6.28.04.21-.07.68.01.87,1.08,2.46,3.03,4.7,5.48,5.98l7.11,3.72c.13.13.44.56.59.65l3.37,1.87c-1.17.59-1.58,1.94-.87,3.06.16.25.76.46,1.04.35.22-.08.46-.44.58-.67.07.14.21.51.33.54l.5.11-1.22,6.11-.78,3.42c-.2.89-.22,2.03-.23,2.99l-.11,7.92.31,4.28.84-.07-.83,1.31-.23,2.26c-.43.37-1.36.63-1.88.9l-1.33,1.75-.17-1.27c-1.48.39-3.04.73-4.43,1.44-.27.14-.6.5-.93.6-1.97.58-3.79,1.2-5.66,1.99-2.46,1.04-3.65,2.76-5.17,4.75-.21.01-.53-.03-.59.1l-.23.49c-.33.7-.21,1.21.13,1.86l-.24,2.04c-.19-.38-.21-.39-.21.02-.15,2.51.33,5.41,1,7.68.05.12.43.42.47.57l1.47,5.54.87,3.46-.94.07-.02,4.37c-.13-.16-.52-.64-.51-.87l.02-1.84c.01-1.08-.66-1.73-1.72-1.83.2-.71.25-1.34-.02-1.89-1.15-2.35-1.87-5.28-2.46-6.36-.33-.61-.95-1.12-1.22-1.79-.38-.95-.97-1.97-1.06-2.93l-.17-1.87-.05-1.33c-.02-.56-.27-1.27-.24-1.87.16-3.62,1.78-7.3,4.59-9.54.86-.68,1.8-1.25,2.71-1.78,1.37-.79,2.95-1.07,4.45-1.5l.56-.45,9.54-2.78-.12-6.14.29-6.21c.08-1.64.51-3.26.69-4.96.09-.85.02-1.84.32-2.57.45-1.1.6-2.02.63-3.18s.35-2.33.54-3.55l-2.57-1.3-.64-.71c-1.1-.62-2.41-.88-3.4-1.62-.67-.5-1.19-1.12-2.07-1.45-1.73-.65-3.43-1.41-4.94-2.45-.25-.61-.58-1.1-1.05-1.52-1.05-.95-1.65-2.17-2.36-3.37l.2.96c-.92-.81-.85-1.98-1.13-3.15-.61-2.54-.8-5.22.1-7.68l1.05-.05c.25-.01.74.08.98.05l-.02-2.82c0-.23-.18-.75-.24-.98.66-1.28,1.21-2.53,1.93-3.74.58-.98,1.15-1.89,1.47-2.98l-.54.17.53-1.19h-.39s.06-.26.09-.31l1.41-2.05-.64,1.74c.83-.48,1.66-3.16,2.63-4.54,1.16-1.65,2.75-3.1,4.52-4.1,3.79-2.15,8.82-2.5,12.9-.78,2.47,1.04,4.82,2.19,7.09,3.56,1.69,1.02,3.3,1.91,5.05,2.83l3.24-3.43-.02-.59,5.22-4.91c1.03-.97,2.21-1.73,3.32-2.61l.32-.71c1.98-1.48,3.95-2.79,6.11-4.16l-1.58-5.76-2.02-6.46.48-.67v-2.6c0-.42-.45-.8-.85-.92-.14-3.7,1.94-9.06,4.71-11.56l.67.05c1.26-.98,2.56-1.7,4.08-2.2l.49-.6,2.81-.63,11.18-3.76c.16.31.43.79.64.72l.78-.29.47.32-3.1.85c-.29.08-.93-.03-1.27.09-2.07.71-12.28,4.15-12.99,6.09l3.52-1.22-.55-.23c1.81-.67,3.57-1.31,5.59-1.85-.13.23-.34.58-.49.64l-1.06.42c-1.63.65-4.84,1.29-5.56,2.26l3.22-1.05-1.21.79c3.1-.8,5.88-1.85,8.69-3.1l-2.76.8c.07-.2.16-.32.11-.38l-.24-.28c1.17-.37,2.28-.66,3.45-.98l4.37-1.21c1.36-.37,2.66-.47,4.07-.6.53-.05.89-.41,1.64.17l-.94.03c5.73,1.26,7.41,4.43,9.39,9.81.4,1.08.68,2.12,1.41,3.13l-1.73-5.93c.55.28.64.8.74,1.34.31,1.64.85,3.13,1.4,4.7l2.68,7.69,1.65-.18c-.27-.69-.64-1.46-.99-2.16l-.92-1.84.73,2.83c-.44-.8-.84-1.6-1.1-2.47l-2.66-8.89c-1.17-3.92-4.2-6.82-7.94-8.27,1.94-.2,5.03,2.86,6.21,4.27l1.13.48c-.22-1.08-.74-1.71-1.39-2.44-3.39-3.82-7.85-4.26-12.65-3.46l-.09-1.03,1.56-.41h2.88ZM61.08,20.38l-.31.29c-.06.06-.24-.28-.25-.39-.16-2,.4-4.2,1.12-6.03l.09.66,1.37-3.06.29.21s.12-.16.15-.21c.84-1.15,1.77-2.04,2.92-2.87-2.06.73-3.39,2.34-4.5,4.2-1.57,2.61-2.02,5.76-1.36,8.78.33,1.51.8,3.01,1.24,4.5.08.28-.04.99.06,1.26.38.99.83,2.03,1.27,2.97l-.5-3.23c-.49-3.21-1.05-4.31-1.6-7.09ZM104.66,26.69l.5.23c.09.04.28-.29.25-.37l-.8-2.12-1.77.08.23,1.1c-.26.14-.45.34-.46.57-.01.18.29.44.48.57.56.39,1.21.48,1.57-.06ZM130.46,24.93c.02-.26-2.54,3.61-1.39,2.74.4-.31,1.35-2.13,1.39-2.74ZM128.14,31.42c-.77.02-1.19.34-1.67.62.08-.36.12-.66.06-.9-.36.6-.49.96-.56,1.5.97-.44,1.54-.73,2.17-1.22ZM53.09,45.98l.34.29c.67-.6,1.43-1.25,2.08-1.93.54-.57.95-1.17,1.61-1.66l2.48-1.81c.26-.19.1-.45.12-.48.38-.51-5.61,3.38-5.99,3.65-1,.7-1.78,1.36-2.71,2.08-.38.29-.51.79-.31,1.42l.92-.71c.88.1,1.2-1.08,1.46-.86ZM36.29,49.01l-3.83-1.81c-.6-.28-1.1-.78-1.75-.95-1.29-.34-2.55-.59-3.78-.42,1.66.19,3.13.51,4.59,1.04l-1.23.2c2.07.76,3.91,1.35,5.99,1.95Z"/>
        <path class="cls-1" d="M210.77,64.96c-.63.45-1.05.81-1.43,1.32l-1.48-1.28-1-1.33c-.8-1.05-2.17-1.52-3.32-2.16l.06-.4c.01-.09.36-.1.45-.08,2.08.49,4.12,1.55,5.63,2.94l-.26.82c-.05.17.86.28.96-.18,0-.03.42.35.38.35Z"/>
        <path class="cls-1" d="M210.03,150.3c.47-1.73.47-3.65-.56-5.3.22,1.5.42,2.81.33,4.19-.19-.97-.35-1.79-.71-2.6l-.15-1.85c-.03-.39.04-.78.21-1.28,1.88,1.04,1.84,6.45,1.61,8.18l-.63.21-.1-1.55Z"/>
        <path class="cls-1" d="M134.73,16.42c-.18-.83.56-1.56.63-2.42.19-2.44,3.04-3.19-.63,2.42Z"/>
        <path class="cls-1" d="M201.22,138.92c-.73-.21-1.34-.29-1.88-.68l.32-.24s.11-.05.09-.09l-.19-.35c1.45.51,2.75,1.02,3.9,1.99l-2.23-.63Z"/>
        <path class="cls-1" d="M146.06,5.3c-2.03.19-3.62.91-5.39,1.63.96-.83,4.34-2.36,5.39-1.63Z"/>
        <path class="cls-1" d="M129.17,25.28c.35-1.59,1.16-2.9,2.22-4.11l-2.22,4.11Z"/>
        <path class="cls-1" d="M149.3,6.73l-4.73.55c1.47-.52,2.97-.87,4.73-.55Z"/>
        <path class="cls-1" d="M116.43,24.98c.42-.16,3.84.24,4.3.57-1.52.02-2.82-.23-4.3-.57Z"/>
        <path class="cls-1" d="M204.67,161.7c-.34.33,1.4-3.71,1.74-3.44-.48,1.16-.98,2.19-1.74,3.44Z"/>
        <path class="cls-1" d="M174.93,31.71c.24-1.14.48-2.14.91-3.27,0,1.17-.27,2.27-.91,3.27Z"/>
        <path class="cls-1" d="M26.65,89.32c-.43.08-.69-.45-.52-.72l.58-.92c.08.49.07,1.05-.06,1.65Z"/>
        <path class="cls-1" d="M214.43,82.03c.5-.09,1.33,3.57,1.14,3.75l-1.14-3.75Z"/>
        <path class="cls-1" d="M208.76,146.25l-1.65-3.15c.83.77,1.46,1.8,1.65,3.15Z"/>
        <path class="cls-1" d="M200.2,99.03c-1,.49-2.01.82-3.12.92,1.02-.57,2.01-.83,3.12-.92Z"/>
        <path class="cls-1" d="M170.11,16.44c-.27.13-.74.08-.93-.09l-1.07-.97c.83.23,1.39.54,2,1.05Z"/>
        <path class="cls-1" d="M103.78,17.81c-.37.42-1.33-2.79-1.21-2.93l1.21,2.93Z"/>
        <path class="cls-1" d="M143.16,6.81l-2.35.99c.91-.71,1.85-1.09,2.92-1.51,0,.31-.23.38-.57.53Z"/>
        <path class="cls-1" d="M189.68,169.62c-.31.05-.83.04-1.04-.08l-1.48-.86c1.05.22,1.73.57,2.52.95Z"/>
        <path class="cls-1" d="M156.61,179.36c-1.43.55,4.38-3.94,4.39-3.78-1.22,1.37-2.77,2.67-4.39,3.78Z"/>
        <g>
          <path class="cls-1" d="M103.21,46.85l-.69-.54-2.06.58c.63.29,2.39.33,2.74-.04ZM136.78,53.67l.18-.99-3.66-.14c.5.22.87.33,1.32.47l2.15.66ZM46.34,105.91l.02-1.7c.36-.82.37-1.88-.37-2.3l-.28,1.77c-.12.74.47,1.61.63,2.23ZM45.33,118.85c-.07.3.4.85.81.71l.29-4.55c-.33-.2-1.02-.35-1.14-.1-.02.05-.06.33-.07.39,0,.05-.07.09-.1.05l-.27-.38c-.31.92.23,1.97,1.22,2.24l-.63.19c.18-.05-.04,1.1-.12,1.44ZM49.01,133.71l1.2,2.76c.03-.76-.18-1.35-.4-2.03l-1.77-5.37c-.49-1.49.63-1.32-.8-3.05-.25,1.5-.26,2.79.3,4.11l.63-.1.57,2.17c-.1.06-.24.1-.21.17l.16.34c.12.24.2.73.32,1Z"/>
          <path class="cls-1" d="M74.72,70.33l-1.25.82c-.23.15-.52.58-.72.75-1.7,1.46-3.34,2.85-4.78,4.56l-1.8,2.12c-.66.78-1.96,3.4-2.7,4.37-.23.02-.63.18-.7.35l-.93,2.08c-.14-.15-1.12,1.53-1.12,1.56-.01.52-.2.94-.72,1.17l.34.25c.07.05.01.33-.06.4l-.89.85c-.31,1.28-.45,2.63-.91,3.86l-.67,1.81c-.1.27-.45.88-.29,1.09l.65.87-.46.75c-.08-.47-.03-.57-.25-.84l-.48,2.22-.64,2.83-.16,4.57c-.07,2-.6,3.89-.56,5.94l.53.63.38,2.84c.04.29.42.76.48,1.06l.85,3.86.47,2.83c.2,1.18.64,2.28.76,3.46.22,2.13,1.66,3.39,1.48,3.6l-.24.28c.2.53.34,1.16.72,1.28s.27.97.47,1.31l2.14,3.55c.81,1.35,1.87,2.47,2.85,3.75,2.46,3.23.88,2.72,2.21,4.19.18.2.42.63.65.82l1.9,1.59.02-.62.86.76,1.74,2.1,1.7,1.35c.49.39,1.03.67,1.39,1.2l-3.39-2.03.36.81c-1.16-.07-1.06-1.13-1.4-1.63-.94-1.36-2.4-2.21-3.84-2.88l.42.79c-.54-.13-.96-.63-1.35-1.15-1.36-1.8-2.71-3.5-3.96-5.45.77-.18.68,1.13,1.87,2.03.15.11.73-.15.68-.4-.53-2.22-3.01-2.89-3.91-5.07-.08-.19-.02-.75-.14-.92-.62-.87-2.85-4.15-3.92-3.58l-.72-.75.42,1.32-.54-.45c.33,1.21,1.04,2.19,1.84,3.12-.23-.63-.39-.92-.11-1.25l-.84-1.65c.96.54,1.62,1.33,1.86,2.62-.34-.17-.56-.35-.98-.75l.98,1.53c1.2,1.88,1.93,3.51,2.45,5.72.22.94,1.87,2.37,1.91,2.34l.44-.3c.97.89,1.98,1.98,2.66,3.01-.23.23-.35.45-.28.6.11.22.41.51.61.64.55.37.96.74,1.42,1.13.81.68,2.22.72,2.77,1.79.33.63.67,1.22,1.31,1.58,1.19.67,2.22,1.46,3.25,2.34.76.65,1.62.89,2.5,1.28,3.2,1.41,6.23,3.09,9.59,4.09.93.27,1.82.27,2.82.67.28-.04.3,0,0,.31.36.43,1.01.63,1.6.64l.72.26c.05.02.15-.18.1-.21l-.27-.18s-.13-.2-.16-.24.16,0,.22.02l1.96.95c.69.34,3.73,1.01,4.58.68l1.52.71-.28-.69c4.58.51,7.28.82,11.86.38,1.66-.16.13-.55,4.4-.57.68,0,1.41-.17,2.04-.28l1.68.47c.35.1.68.37,1.01.71l-3.36,1.13c-.82.28-2.06-.13-2.81.22-.55.34-1.04.77-1.78.77h-11.86c-3.65.01-7.02-.75-10.42-1.77-.59-.18-1.35-.04-1.99-.02l-1.86-1.22c-.13-.08-.53.15-.69.28-1.97-.69-3.87-1.6-5.8-2.62l-3.97-2.09c-.1-.05-.14-.47-.15-.58,0,.37-2.87-1.24-3.26-1.57-.97-.82-1.85-1.65-2.7-2.48-.03-.27-.06-.87-.26-.98s-.62-.11-.91-.12l-3.48-2.92c-2.52-2.11-4.9-5.86-6.95-8.44l-.03.79-1.47-2.47c0-1.38-1.48-2.59-2.18-3.7l.65.35c-.07-1.37-1.45-1.06-.84-2.16l-.76-1.67-.33.65-1.9-5.77c-1.06-3.22-2.33-11.15-1.73-14.84.19.25.24.37.34.64.46-.74.42-1.74-.29-2.35l-.18.67-.36-1.71c-.15-.7-.55-1.46-.44-2.24.23-1.75.53-3.39.86-5.11.81-4.19.98-5.6,2.75-9.51.13-.3.51-.81.51-1.12-.01-2.12,1.14-3.6,1.91-5.3.57-1.25.79-2.53,1.72-3.63.53-.63.78-1.72,1.43-2.25.44-.36.8-.68,1.08-1.16l1.95-3.33c.25-.42.99-.78,1.24-1.12.93-1.25,1.69-2.55,2.72-3.7.52-.59,1.04-1.26,1.68-1.74l2.18-1.61c.17-.13.31-.54.33-.8,1.01-.88,2.04-1.88,3-2.92.45-.49,1.03-1,1.58-1.23l.64.31c.38.19.37-1.21.84-1.36.07-.02,2.88-.27,3.49-.61.17-.08.51-.57.7-.63l3.24-1.04c.3-.1.42-.46.4-.74l2.91-1.19c.9-.37,1.84-.54,2.79-.81.49-.14.89-.44,1.34-.66,1.4-.68,3.01-.76,4.47-1.35,1.26-.51,2.78-.79,4.05-.8.77.89.8-.41,3.06-.21.31-.41.76-.88,1.23-1.08.55-.24,1.08.18,1.64.18h3.5c.54,0,1.11.23,1.58.33l1.78.35c.21.04.67-.05.89-.12l6.81,1.33c2.29.45,4.24,1.44,6.39,2.25l1.87.71c.93.35,2.29.37,3.03,1.03.53.47.68,1.23,1.74,1.05.5-.09.84.37,1.21.65,1.87,1.41,2.35,1.08,3.63,1.79.58.32,1.31.65,1.79,1.04l1.61,1.3,1.12.91c.13-.2.19-.35.25-.33l.37.12c.09-.03.32-.24.39-.16l.32.4s.12.23.14.27c.02.04-.18.05-.22.02l-.28-.22-.2.26c.56.43,1.13.77,1.56,1.2l1.39,1.37c.98.96,1.9,1.9,2.96,2.77.95.79,1.76,1.66,2.39,2.69l2.59,4.19c.19.31.67.5.88.69.8.75,1.26,1.87,2,2.71l.79.9c.91,1.04,1.42,2.43,2.07,3.68.53,1.03.67,2.12,1.01,3.2l.97,2.99c.15.46.14.94.17,1.44.13,2.28,1.32,2.88,1.18,4.04-.2-.43-.28-.57-.3-.17l.21,1.91c0,.07.14.16.16.11l.11-.44.09,1.84c.24,1.4.49,2.69.62,4.08l.46,4.79c.1,1.08-.09,2.65-.44,3.58-.18.48-.84,1.3-.63,1.79.04.11-.17.49-.17.6l-.17,2.91c0,.07.07.34.07.38s.16-.11.22-.16l.2-.16c.1-.08-.16,1.43-.09,1.23l-.92,2.7c-.33.96-.65,3.67-1.16,4.17.15-.56.68-4.22.37-3.81l-.16.21-.3.4c-.4-.97.45-1.55.79-2.2.77-1.5.52-3.31.25-4.88l-.2-.18-.24,1.04c-.22-.6-.15-1.2-.04-1.88.45-2.65.45-5.23.55-7.84.77,1.99-.7,3.74.91,3.9.74-1.19.45-2.6.04-3.86-.95-2.93-.22-3.55-.29-4-.2-1.39-.81-3.36-1.77-4.56-.11-.14-.49-.29-.6-.4s.16-.58.12-.76c-.34-1.78-.73-3.76-1.19-5.53-.64-2.45-.14-2.59-2.5-4.18.01,1.2.93.15.81,2.46-.05,1.01.18,2.01.62,2.81.19-.03.58-.05.61.07l.42,1.85s-.2.14-.19.19l.25,1c.51,2.04.57,2.84,1.11,4.73l.73,2.56c-.18.1-.32.17-.27.14-.11-.23-.18-.36-.17-.36-.55.3.85,2.7-.59,6.3-.41,1.03-.15,2.17.17,3.16l.32-2.48c.06-.17.23,0,.32.21-.65,2.4.2,4.1-.5,6.37-1.14-.19-.67.57-.87,2.81-.09,1.03.45,2.1-.05,3.13-.16.34-.72.92-.77,1.28-.26,1.88-.75,3.45-1.58,5.12-.41.83-.41,3.26-2.61,7.16l-2.7,4.78c-.46.81-.78,1.83-1.5,2.44-.51.07-1.24.21-1.31,1.06l.66-.31c.05-.03.32-.08.38-.09.06-.01-.01.08-.1.18-.35.27-.78.55-1.05.79l-1.35,1.22c-1.16,1.04-2.23,2.15-3.29,3.32-.37.41-.96,1.13-1.51,1.1-.02,0-.31.17-.31.17,0-.01.09.04.13.06l.47.2c-1.96,1.63-4.1,3.05-6.36,4.45l-4.53,2.81c-1.35.84-2.97,1.15-4.5,1.75-.51.2-.85.2-1.42.06l-1.81-.45c-.12-.36-.16-.46-.1-.34l3.09-1.43c.67-.31,1.68-.54,2.36-.79.23-.82.68-1.07,1.42-1.36,6.21-2.45,10.89-7.5,15.33-12.28.33-.36,1.24-1.69,1.15-2.36l1.64-1.28c.13-.1-.03-.45-.16-.63l2.71-4.31c.9-1.43,1.48-2.94,2.2-4.44.14-.29.44-.58.54-.98.93-3.84.54-1.79,1.72-5.04.42-1.15.95-.58,1.08-1.42.02-.15-.2-.33-.42-.5.36-1.18.52-2.44.65-3.76l.63-6.43.19-2.47.91.02v-2.84c0-.25-.19-.84-.41-.93-.26-.1-.65-.18-1.09-.26.38-.84.01-1.83-.17-2.76-.1-.5.51-1.05-.16-1.6-.28-.23-.26-.75.07-1.06l-.25-1.38c-.09-.06-.08-.07-.11-.05l-.32.25c-.46-2.05-.95-4.06-1.52-6.07-.88-3.09-2.52-5.77-3.56-8.78l-.36-1.04-1.09-2.17s.14-.22.17-.18l.24.34c.28.4.26-.44-.44-1.45-.18-.26-.86-.17-1.03-.08l-1.53-1.09c-.72-.51-1.32-1.31-1.81-2.06-1.19-1.82-2.52-3.41-4.11-4.89l-4.12-3.84c-.16-.15-.38-.52-.5-.75-1.8-.72-3.21-2.18-5.02-2.98l-3.11-1.38c-.85-.38-1.79-.81-2.61-1.31-.33-.21-.76-.73-1.16-.84l-2.97-.78c-.64-.17-1.37-.61-1.91-.94l-6.09-.89c-.65-.09-3.31-1.15-3.52-.42-1.02-.04-2.15-.05-3.29.09-3.68.46-2.12-.79-2.8-.56-.89.31-.63.97-1.23.72-4.49-1.92-2.42-.77-4.59-.78l-2.8-.02-.44.65c-.98.12-1.81.28-2.74.51-1.09.27-2.42.13-3.38.7-.49.29-.92.71-1.48.86-2.77.72-3.95,2.17-6.71,3.02-.51.16-.85.22-1.31.48l-1.26.71c.11.54-.16,1.11-.57,1.57-.26.29-.83.28-1.37.36-.81.67-1.64,1.34-2.55,1.97-.34.24-.76.36-1.2.65ZM103.72,55.94c-.03-.17-.21-.58-.29-.69l-1.94.6c.64.26,1.39.3,2.23.1ZM133.03,60.74c-1.08-.02-1.98-.04-3.13.07l2.89.9.24-.97ZM151.27,74.52l-1.33-1.57c-.88-1.03-2.43-1.45-3.7-1.7.47,1.11,1.46,1.67,2.44,2.11l2.6,1.17ZM151.48,77.14c-.69-1.32-1.86-2.35-3.33-2.9.6.58,1.18,1.08,1.8,1.6l1.54,1.3ZM157.5,85.4c-.19-1.63-.6-2.79-1.21-4.09-1.12-.04-2.09,1.05-1.86,2.05.53.31,1.13.7,1.31,1.42l1.76.63ZM161.44,104.03c-.09-.78-.02-.93.14-1.21.17-.96-.21-2.08-.69-3l.28,1.87-.51-.92c-.08,1.29.36,2.27.78,3.25ZM55.31,106.56c-.29-1.68.84-2.38-.44-3.38l-.26,1.61c-.07.46.44,1.33.7,1.78ZM54.33,117.27c-.06.33-.14.61,0,.83.12.18.52.33.71.18l.35-3.79c-.35-.15-.78-.24-1.13-.24l-.09.67-.35-.51c-.31.82.24,1.62,1.07,1.89-.18.11-.4.18-.43.31l-.13.66ZM58.37,132.9c.22-.97-.16-1.53-.38-2.24-.49-1.56-1.03-3.12-1.38-4.76-.15-.69.2-1.39-.64-2.08-.16.03-.74,4.18.81,3.51l.35,2.01c.05.31.17.89.3,1.21l.95,2.35Z"/>
          <path class="cls-1" d="M138.36,167.69c-3.21,1.9-3.13,1.31-6.37,2.68-1.69-.52-1.92.12-3.19-.8l1.99-.85c.49-.21.95-.46,1.45-.74.84-.48,2.21-.49,2.96-1.17.56-.5.89-1.13,1.77-1.41,1.32-.42,2.5-1.12,3.73-1.83,3.52-2.03,6.57-4.63,9.48-7.46.28.25.57.51.79.56.25.07.81-.3.98-.42l1.06.49c-1.06.85-1.24,1.82-1.99,2.07-.41.14-.54.47-.55.82-2.08,1.81-4.36,3.34-6.71,4.78l-3.6,2.21-1.79,1.06Z"/>
          <path class="cls-1" d="M169.1,134.74c.23.8-.08,1.55-1,1.87-.18.06-.5.1-.67.08s-.2-.6-.09-.78c1.24-2.04.67-2.36,1.77-4.58.41,3.57-.99,2.72-.98,4.85l.97-1.44Z"/>
          <path class="cls-1" d="M74.34,162.32c.58.18,1.15.27,1.37.55.29.36.54,1.13.34,1.5-.11.2-.75.03-.95-.14-1.47-1.22-2.35-1.32-3.96-2.54,3.65.46,2.56,1.65,4.58,1.99l-1.38-1.36Z"/>
          <path class="cls-1" d="M82,155.97l-1.48-.89c.14.59.36,1.1.19,1.61-.09.27-.76.03-.97-.15-1.32-1.17-1.74-.8-3.14-2.09.69.09,1.58.26,2.1.54.56.44.89,1.03,1.74,1.09l-.97-1.11,1.49.08c.38.02.88.49,1.05.91Z"/>
          <path class="cls-1" d="M160.8,131.39c.2.87-.12,1.45-1.02,1.7-.16.04-.45.05-.6,0s-.17-.53-.09-.68c1.15-2.01.52-1.92,1.5-3.92.54,3.15-.8,2.27-.77,4.22l.98-1.32Z"/>
          <path class="cls-1" d="M153.41,156.25l-.04-3.23c.07-.24.28-.52.5-.67l.07,3.27c0,.18-.28.49-.53.63Z"/>
          <path class="cls-1" d="M79.18,165.54l.78-.11.37.1c.11.03-.04-.34-.12-.51-.45.28-.39.24-.02.01l1.35.83-.32.12c-.07.02-.07.09-.16.31-.62-.03-1.18-.2-1.87-.75Z"/>
          <path class="cls-1" d="M166.25,142.11l-.6-.36c.09-.61.34-1.29.83-1.76l.02,1.51c0,.14-.18.55-.25.61Z"/>
          <path class="cls-1" d="M112.04,173.1c-1.16.05-2.18.2-3.24.06l2.74-.23,2.02-.17c.06,0,.33.01.35.02s-.2.25-.25.25l-1.61.06Z"/>
          <path class="cls-1" d="M158.54,137.41c0,.1-.15.38-.21.48-.06.11-.43-.26-.48-.39-.18-.44.15-1.22.62-1.47l.07,1.38Z"/>
          <path class="cls-1" d="M85.21,157.53c-.1.45-.51.77-.86.67s-.75-.37-.9-.68h1.77Z"/>
          <path class="cls-1" d="M171.68,102.25c-.21.32-.97-2.78-.59-2.79.37.89.53,1.72.59,2.79Z"/>
          <path class="cls-1" d="M162.68,103.38c-.35-.72-.74-1.5-.4-2.39.29.71.49,1.41.4,2.39Z"/>
          <path class="cls-1" d="M84.44,166.22c.47.1.87.42.94.8l-2.18-1.06,1.23.26Z"/>
        </g>
      </g>
    </g>
  </g>
</svg>