<?xml version="1.0" encoding="UTF-8"?>
<svg id="Layer_2" data-name="Layer 2" xmlns="http://www.w3.org/2000/svg" viewBox="0 0 179.04 171.43">
  <defs>
    <style>
      .cls-1 {
        fill: #fff;
      }
    </style>
  </defs>
  <g id="Layer_1-2" data-name="Layer 1">
    <g id="_4wzpBx.tif" data-name="4wzpBx.tif">
      <path class="cls-1" d="M89.01,132.8c-17.34,12.65-28.18,30.78-47.92,37.6-2.63.91-10.27-.12-9.72-4.3,2-15.33,7.45-43.67,13.99-58.77l-21.9-20.81c-6.05-5.75-12.33-10.89-19.23-15.46-2.3-1.52-3.99-3.3-4.2-5.64-.26-2.85,1.83-5.96,5-5.87,8.8.25,17.28.67,26.09.21l33.04-1.74,11.68-36.02c2.05-6.33,4.78-12.23,7.33-18.33,1.32-3.16,5.56-4.12,7.8-3.47,4.75,1.37,3.21,5.32,4.03,9,2.88,12.96,12.95,32.65,15.98,48.59,21.23,3.56,32.85-.89,55.48,1.99,5.36.68,12.12,4.07,12.57,10.26.31,4.3-4.95,7.93-7.51,11.01l-15.42,9.52c-9.36,5.78-18.55,11.22-28.58,16.51,9.35,17.87,17.27,36.24,21.18,56.28.74,3.78-2.29,6.59-4.96,7.58-4.03,1.49-6.56-.59-9.63-3.11-10.69-8.8-20.93-17.3-30.89-26.84-3.95-3.78-8.07-5.78-14.22-8.18ZM132.81,150.53c-4.15-15.15-10.48-27.9-17.74-41.16-1.27-2.32-1.65-5.56-.28-8.01.86-1.53,3.25-3.01,5.48-4.08,9.78-4.66,18.55-10.31,27.82-15.8,5.36-3.17,10.18-5.74,15.84-9.71-19.97-4.19-38.07,1.84-57.86-2.88-6.51-1.58-6.79-5.67-7.74-10.84-2.15-11.67-6.72-22.3-11.11-33.18l-11.47,37c-.44,1.43.12,5.31-1.02,6.28s-3.75,1.55-5.75,1.66l-43.6,2.26,31.52,29.74c2.81,2.65,1.01,8.17-.93,10.95-5.75,13.77-8.38,27.48-10.54,42.59,15.96-10,22.15-20.72,38.97-34.04,2.49-1.97,6.01-.94,8.42.1,21.89,9.38,20.81,15.5,39.98,29.13Z"/>
    </g>
  </g>
</svg>