<?xml version="1.0" encoding="UTF-8"?>
<svg id="Layer_2" data-name="Layer 2" xmlns="http://www.w3.org/2000/svg" viewBox="0 0 291.5 298.3">
  <defs>
    <style>
      .cls-1 {
        fill: #fefffa;
      }
    </style>
  </defs>
  <g id="Layer_1-2" data-name="Layer 1">
    <path class="cls-1" d="M31.74,76.69c-14.3,25.87-20.11,42.21-20.01,71.54.06,17.4,3.74,33.33,9.74,49.42,2.77,7.42,6.51,13.48,10.87,20.12l5.01,7.64,8.45,10.56c9.28,11.6,20.65,19.63,33.17,27.47,9.96,6.23,21.15,9.18,32.48,11.8l9.54,2.21c2.36.55,4.77.88,7.1,1.03l13.16.84c3.37.22,6.87.56,10.16.25l17.74-1.68c10.6-1,20.07-3.81,30.16-7.78,27.37-10.78,53.92-31.56,66.56-58.64,7.32-15.7,12.23-30.65,13.27-48.12l1.12-18.73,3.88,4.69,2-6.31c.25-.78-.01-3.6-.78-3.8l-3.37-.85c-.88-.22-2.66-1.07-3.22-1.73-.67-.79.53-2.79,1.62-3.98l-2.77-6.86,6.09.68c1.48.16,4,2.53,5.18,3.45l.58,8.29c.04.54-1.65,1.54-2.07,1.88-2.67,2.18,3.95.2,3.97,9.21.02,7.29.62,14.45-.71,21.73-2.44,13.37-6.15,32.14-12.68,43.13-10.23,9.01-.15,2.81-12.41,16.91-.76.87-1.01,3.28-1.28,4.43-1.19,4.95-5.67,8.23-8.96,12.48-5.65,7.3-14.26,13.31-20.51,19.24-1.49,1.41-2.14,6.15-6.62,4.92-.77-.21-2.44-.4-3.16-.06-.87.41-1.46,2.52-2.1,3.66-2.88,5.08-18.37,6.26-24.89,10.91-5.02,3.58-8.42,4.62-14.97,4.52-4.98-.08-10.92,2.07-15.97,2.65-31.87,3.63-58.21-1.15-87.15-14.95-9.73-4.64-24.65-15.5-31.85-22.8l-5.76-5.83c-18.37-18.6-30.88-42.71-37.46-67.74-1.21-4.6-1.31-8.79-1.85-13.19-.79-6.38-2.21-12.52-2.56-18.98-1.46-26.63.37-34.47,9.34-60.3,5.93-17.06,17.04-32.37,29.29-45.75,1.6-1.75,3.7-5.02,5.23-6.27,3.39-2.77,7-6.62,10.39-8.64l15.23-9.09c2.26-1.35,5.82-3.31,7.8-4.35,3,.56,4.73.5,7.47-.12l7.74-1.75c.37-.53-.13-3.31.55-3.49l3.88-1.02c4.83-1.27,9.57-2.05,14.38-2.81l13.51-2.13c9.37-1.48,30.86-.12,41.22,1.76,30.28,5.51,44.48,13,69.3,31.54l-6.91,2.46,3.97,2.24c-.51,1.18-1.54,3.34-1.47,4.45.08,1.3,1.61,3.16,2.53,4.3l-1.82,1.08c-.89.53-9.52-6.38-7.74-11.84l-7.87-3.08,1.62,4.66c-32.74-20.4-57.54-24.97-96.52-21.57-3.11.27-5.75.21-8.62,1.07-13.87,4.14-16.01,2.89-27.03,7.39-8.85,3.61-9.88,8.76-25.27,16.57-2.27,1.15-6.69.9-7.35,5.11-.18,1.13-3.28,1.86-4.16,2.74-6.2,6.22-12.8,14.92-17.38,23.2Z"/>
    <path class="cls-1" d="M215.03,264.53c24.36-16.74,36.87-28.76,49.89-55.04,7.73-15.59,11.56-31.48,13.39-48.56.84-7.87.2-14.97-.72-22.86l-1.07-9.08-2.84-13.23c-3.12-14.53-9.69-26.79-17.39-39.41-6.12-10.03-14.81-17.67-23.77-25.08l-7.54-6.24c-1.87-1.54-3.88-2.92-5.89-4.1l-11.39-6.64c-2.92-1.7-5.89-3.57-8.97-4.77l-16.61-6.43c-9.93-3.85-19.65-5.57-30.46-6.53-29.3-2.6-62.34,4.11-85.76,22.68-13.57,10.77-24.65,21.95-33.39,37.11l-9.38,16.25-1.37-5.93-4.61,4.74c-.57.59-1.6,3.23-1,3.75l2.64,2.27c.69.59,1.9,2.15,2.11,2.99.25,1-1.73,2.26-3.23,2.84l-.59,7.37-5.14-3.33c-1.25-.81-2.45-4.05-3.09-5.41l3.19-7.68c.21-.5,2.16-.64,2.69-.76,3.37-.75-3.44-1.95.57-10.01,3.25-6.53,5.91-13.2,10.35-19.12,8.16-10.87,19.87-26,30.63-32.9,13.18-3.48,1.39-2.45,18.66-9.57,1.07-.44,2.36-2.48,3.13-3.39,3.27-3.89,8.75-4.82,13.59-7.15,8.31-4.01,18.71-5.53,26.95-8.04,1.96-.6,4.66-4.55,8.13-1.44.59.53,2,1.45,2.8,1.47.97.02,2.43-1.6,3.52-2.33,4.84-3.25,19.23,2.61,27.15,1.37,6.09-.95,9.59-.37,15.41,2.65,4.42,2.3,10.7,3.03,15.46,4.77,30.13,11.01,51.55,27.07,71.27,52.35,6.63,8.5,15.11,24.89,18.29,34.63l2.54,7.79c8.11,24.85,8.52,52.01,3.21,77.33-.98,4.65-2.76,8.45-4.24,12.63-2.15,6.06-3.62,12.19-6.19,18.12-10.61,24.47-15.74,30.67-35.32,49.75-12.94,12.61-29.71,21.33-46.66,27.82-2.21.85-5.56,2.84-7.48,3.27-4.27.96-9.22,2.79-13.15,3.09l-17.68,1.32c-2.63.2-6.69.36-8.92.4-2.43-1.84-4.01-2.56-6.73-3.24l-7.71-1.9c-.57.31-1.36,3.02-2.06,2.88l-3.92-.82c-4.89-1.02-9.48-2.44-14.12-3.92l-13.03-4.14c-9.05-2.87-27.65-13.7-36.07-20.01-24.62-18.47-33.96-31.52-47.88-59.2l7.28.89-2.55-3.77c.99-.83,2.87-2.3,3.31-3.33.51-1.2-.03-3.55-.34-4.98l2.11-.15c1.03-.07,5.66,9.97,1.63,14.05l5.66,6.27.64-4.89c20.16,32.89,40.29,48.06,76.68,62.46,2.9,1.15,5.24,2.38,8.19,2.9,14.26,2.5,15.61,4.57,27.48,5.48,9.53.73,12.75-3.42,30.02-3.52,2.55-.02,6.39,2.19,8.86-1.28.66-.93,3.77-.2,4.95-.59,8.32-2.79,18.12-7.62,25.92-12.97Z"/>
    <g id="xjuQSb">
      <path class="cls-1" d="M276.95,105.44c-.79-1.32-3.99-2.57-5.74-1.61l-62.37,34.14-12.33-21.48,63.5-34.87c2.31-1.27,3.06-4.62,1.65-6.87-.85-1.35-3.58-1.93-5.76-1.31l-64.01,35.14-11.86-20.65,61.84-34.01c2.77-1.52,4.08-4.05,2.56-7.04-.86-1.68-4.32-2.36-6.55-1.13l-62.53,34.24-27.2-47.04c-.56-.97-3.04-2.31-4.16-2.21-1.11.1-3.3,1.46-3.92,2.54l-26.22,45.25-61.8-33.88c-2.49-1.37-5.67.08-6.61,2.42-.71,1.76.56,4.67,2.68,5.83l61.08,33.56-11.8,20.62-63.94-34.95c-1.74-.95-5.52,1.78-5.65,3.44-.15,1.92.88,3.97,2.73,5.31l62.26,34.19-12.43,21.47-60.35-33.11c-2.5-1.37-5.35-.76-6.68,1.45-1.28,2.11-.42,5.09,2.08,6.46l60.41,33.14-41.07,71.08c-.73,1.26-.77,4.35-.03,5.33.62.82,2.64,1.95,3.78,1.95l70.9.04.19,58.38c0,1.89,3.16,3.92,4.67,3.85,1.51-.07,4.37-2.3,4.37-4.06l-.02-58.18,24.75.03.14,58.28c0,2.1,3.51,4.13,5.15,3.86,1.65-.28,3.98-2.69,3.98-4.72l-.11-57.45,23.8.04.15,57.39c0,2.54,2.66,4.76,4.57,4.77,1.55,0,4.58-2.22,4.58-4.01l-.1-58.18h63.07c1.72.01,4.36-1.03,5.1-2.15.77-1.18.56-4.07-.28-5.53l-40.05-69.28,61.75-33.83c2.3-1.26,2.9-4.81,1.81-6.63ZM241.91,213.65H46.48s30.74-53.24,30.74-53.24c.06-.47.19-.96.4-1.45,3.73-8.72,9.44-15.92,15.86-22.55-.14-1.07.03-2.19.5-3.15.21-.85.63-1.66,1.24-2.35.08-.09.16-.18.24-.27-.5.29-.99.57-1.49.87l50.29-87.12,49.87,86.4c-.2-.1-.39-.21-.59-.31,1.84,3.06,3.2,6.41,5.22,9.53,3.67,5.65,7.44,11.19,10.63,17.12l32.53,56.51Z"/>
    </g>
    <path class="cls-1" d="M145.81,163.86c5.52.31,11.05-2.88,13.64-7.75s2.18-11.18-.94-15.74c-4.78-6.98-15.69-8.7-22.38-3.52s-7.77,16.17-2.21,22.55,16.6,6.81,22.64.9"/>
  </g>
</svg>